<svg width="26" height="17" viewBox="0 0 26 17" fill="none" xmlns="http://www.w3.org/2000/svg">
<path d="M25.5307 9H1.46931C1.21025 9 1 8.776 1 8.5C1 8.224 1.21025 8 1.46931 8H25.5307C25.7898 8 26 8.224 26 8.5C26 8.776 25.7898 9 25.5307 9Z" fill="#545A2F"/>
<path d="M8.87947 16C8.80211 16 8.72475 15.9718 8.66552 15.916L1.08824 8.70203C1.03203 8.64794 1 8.57487 1 8.49835C1 8.42182 1.03203 8.34875 1.08824 8.29467L8.66612 1.08415C8.78398 0.971951 8.97557 0.971951 9.09343 1.08415C9.21128 1.19634 9.21128 1.37874 9.09343 1.49093L1.7295 8.49835L9.09343 15.5086C9.21128 15.6208 9.21128 15.8032 9.09343 15.9154C9.0342 15.9718 8.95683 16 8.87947 16Z" stroke="#545A2F" stroke-width="0.681818"/>
</svg>
