<svg width="937" height="890" viewBox="0 0 937 890" fill="none" xmlns="http://www.w3.org/2000/svg">
<path fill-rule="evenodd" clip-rule="evenodd" d="M871.004 413.244C862.295 646.588 741.968 773.833 623.072 846.372L619.942 841.243C737.534 769.499 856.382 643.907 864.999 413.02L871.004 413.244Z" fill="#E9ECE0" fill-opacity="0.33"/>
<path fill-rule="evenodd" clip-rule="evenodd" d="M857.031 510.43C857.04 511.773 899.407 483.02 911.483 449.305L857.031 510.43Z" fill="#E9ECE0" fill-opacity="0.33"/>
<path fill-rule="evenodd" clip-rule="evenodd" d="M854.651 512.281C854.172 511.653 854.031 510.972 854.028 510.453L860.037 510.414C860.034 509.916 859.898 509.252 859.43 508.638C858.968 508.033 858.385 507.739 857.954 507.605C857.251 507.387 856.677 507.503 856.577 507.523L856.569 507.525C856.406 507.557 856.287 507.599 856.236 507.619C856.241 507.617 856.246 507.614 856.251 507.612C856.405 507.541 856.749 507.356 857.311 507.012C858.403 506.345 860.035 505.25 862.076 503.762C866.148 500.794 871.73 496.347 877.689 490.815C889.678 479.685 902.862 464.467 908.655 448.295L914.312 450.321C908.029 467.863 893.992 483.879 881.777 495.219C875.634 500.922 869.867 505.519 865.616 508.618C863.495 510.164 861.722 511.359 860.447 512.138C859.827 512.518 859.248 512.847 858.774 513.066C858.582 513.154 858.192 513.329 857.741 513.419L857.737 513.42C857.576 513.452 856.932 513.58 856.173 513.344C855.722 513.204 855.123 512.9 854.651 512.281ZM856.209 507.63C856.209 507.63 856.218 507.625 856.236 507.619C856.217 507.627 856.209 507.63 856.209 507.63Z" fill="#E9ECE0" fill-opacity="0.33"/>
<path fill-rule="evenodd" clip-rule="evenodd" d="M910.498 451.885C912.653 451.96 935.807 449.416 931.133 415.285L910.498 451.885Z" fill="#E9ECE0" fill-opacity="0.33"/>
<path fill-rule="evenodd" clip-rule="evenodd" d="M915.894 452.909C913.325 453.724 911.242 453.917 910.428 453.889L910.568 449.886C910.832 449.895 912.452 449.798 914.684 449.091C916.877 448.395 919.56 447.14 922.042 444.921C926.902 440.576 931.419 432.137 929.149 415.559L933.118 415.016C935.521 432.569 930.798 442.467 924.712 447.908C921.719 450.582 918.502 452.082 915.894 452.909Z" fill="#E9ECE0" fill-opacity="0.33"/>
<path fill-rule="evenodd" clip-rule="evenodd" d="M870.3 416.28C869.865 417.714 867.449 433.721 891.209 436.662L870.3 416.28Z" fill="#E9ECE0" fill-opacity="0.33"/>
<path fill-rule="evenodd" clip-rule="evenodd" d="M869.53 419.681C869.444 417.887 869.68 416.557 869.809 416.131L870.792 416.429C870.704 416.72 870.475 417.929 870.556 419.632C870.637 421.325 871.024 423.478 872.14 425.674C874.356 430.034 879.518 434.698 891.273 436.153L891.147 437.172C879.142 435.686 873.632 430.876 871.225 426.139C870.029 423.786 869.617 421.485 869.53 419.681Z" fill="#E9ECE0" fill-opacity="0.33"/>
<path fill-rule="evenodd" clip-rule="evenodd" d="M866.284 423.638C865.344 423.058 855.232 417.403 848.645 433.781L866.284 423.638Z" fill="#E9ECE0" fill-opacity="0.33"/>
<path fill-rule="evenodd" clip-rule="evenodd" d="M859.305 420.633C863.39 419.972 866.6 421.788 867.198 422.158L865.37 425.118C865.029 424.908 862.713 423.606 859.86 424.068C857.182 424.501 853.407 426.604 850.26 434.43L847.031 433.132C850.471 424.58 855.046 421.321 859.305 420.633Z" fill="#E9ECE0" fill-opacity="0.33"/>
<path fill-rule="evenodd" clip-rule="evenodd" d="M910.498 451.885C912.653 451.96 913.528 446.488 931.133 415.285L910.498 451.885Z" fill="#E9ECE0" fill-opacity="0.33"/>
<path fill-rule="evenodd" clip-rule="evenodd" d="M913.823 451.696C913.134 452.73 912.123 453.945 910.429 453.886L910.568 449.882C910.286 449.873 910.113 449.985 910.07 450.018C910.107 449.983 910.243 449.843 910.49 449.474C911.07 448.604 911.871 447.077 913.239 444.402C913.419 444.05 913.608 443.68 913.805 443.293C916.569 437.878 921.156 428.893 929.389 414.3L932.878 416.268C924.685 430.79 920.128 439.718 917.372 445.116C917.174 445.504 916.986 445.873 916.806 446.225C915.485 448.809 914.563 450.586 913.823 451.696ZM910.059 450.027C910.059 450.027 910.063 450.024 910.07 450.018C910.063 450.025 910.059 450.027 910.059 450.027Z" fill="#E9ECE0" fill-opacity="0.33"/>
<path fill-rule="evenodd" clip-rule="evenodd" d="M870.3 416.28C869.865 417.714 873.386 419.277 891.209 436.662L870.3 416.28Z" fill="#E9ECE0" fill-opacity="0.33"/>
<path fill-rule="evenodd" clip-rule="evenodd" d="M870.492 417.967C869.936 417.337 869.614 416.775 869.808 416.133L870.791 416.431C870.769 416.506 870.723 416.677 871.262 417.287C871.785 417.879 872.714 418.729 874.251 420.11C874.455 420.293 874.67 420.486 874.895 420.688C878.037 423.506 883.245 428.179 891.568 436.297L890.851 437.032C882.543 428.929 877.347 424.267 874.209 421.452C873.983 421.25 873.769 421.057 873.565 420.874C872.047 419.511 871.064 418.614 870.492 417.967Z" fill="#E9ECE0" fill-opacity="0.33"/>
<path fill-rule="evenodd" clip-rule="evenodd" d="M866.283 423.643C865.343 423.062 863.564 425.276 847.804 434.693L866.283 423.643Z" fill="#E9ECE0" fill-opacity="0.33"/>
<path fill-rule="evenodd" clip-rule="evenodd" d="M864.438 422.242C865.024 421.948 866.109 421.487 867.198 422.16L865.37 425.121C865.752 425.356 866.092 425.294 866.179 425.27C866.15 425.281 866.091 425.305 865.995 425.353C865.562 425.57 864.858 426.018 863.555 426.872C863.386 426.982 863.208 427.099 863.021 427.221C860.413 428.931 856.08 431.772 848.697 436.184L846.912 433.197C854.234 428.821 858.521 426.011 861.115 424.31C861.302 424.188 861.479 424.071 861.649 423.96C862.878 423.156 863.78 422.571 864.438 422.242ZM866.2 425.263C866.2 425.264 866.193 425.267 866.179 425.27C866.194 425.265 866.201 425.263 866.2 425.263Z" fill="#E9ECE0" fill-opacity="0.33"/>
<path fill-rule="evenodd" clip-rule="evenodd" d="M910.498 451.885C912.653 451.96 898.234 425.494 931.133 415.285L910.498 451.885Z" fill="#E9ECE0" fill-opacity="0.33"/>
<path fill-rule="evenodd" clip-rule="evenodd" d="M912.244 453.033C911.781 453.637 911.088 453.908 910.429 453.885L910.569 449.882C910.044 449.864 909.454 450.088 909.064 450.596C908.777 450.971 908.739 451.326 908.733 451.38L908.733 451.382C908.729 451.416 908.729 451.436 908.728 451.436C908.726 451.436 908.722 451.338 908.68 451.083C908.613 450.687 908.513 450.227 908.385 449.644C908.286 449.19 908.171 448.661 908.043 448.031C907.494 445.332 906.876 441.481 907.294 437.244C907.714 432.979 909.185 428.309 912.803 424.027C916.414 419.754 922.042 416.008 930.54 413.371L931.727 417.197C923.776 419.664 918.87 423.054 915.863 426.612C912.865 430.161 911.637 434.018 911.281 437.637C910.921 441.282 911.448 444.672 911.969 447.233C912.064 447.704 912.167 448.18 912.265 448.632C912.415 449.322 912.552 449.955 912.63 450.419C912.692 450.786 912.769 451.317 912.716 451.813C912.69 452.052 912.609 452.556 912.244 453.033Z" fill="#E9ECE0" fill-opacity="0.33"/>
<path fill-rule="evenodd" clip-rule="evenodd" d="M870.3 416.28C869.865 417.714 890.214 412.743 891.209 436.662L870.3 416.28Z" fill="#E9ECE0" fill-opacity="0.33"/>
<path fill-rule="evenodd" clip-rule="evenodd" d="M869.912 416.714C869.776 416.539 869.75 416.325 869.808 416.135L870.791 416.433C870.821 416.332 870.809 416.196 870.725 416.087C870.677 416.025 870.629 416.004 870.629 416.004C870.629 416.004 870.631 416.005 870.636 416.007C870.688 416.027 870.821 416.055 871.08 416.079C871.373 416.106 871.736 416.123 872.175 416.142C872.499 416.157 872.864 416.173 873.273 416.197C875.154 416.308 877.748 416.572 880.398 417.562C883.054 418.555 885.77 420.277 887.882 423.298C889.991 426.316 891.47 430.592 891.722 436.645L890.696 436.688C890.45 430.781 889.012 426.708 887.04 423.887C885.069 421.067 882.539 419.458 880.038 418.524C877.531 417.588 875.057 417.331 873.213 417.223C872.846 417.201 872.494 417.185 872.171 417.17C871.703 417.149 871.295 417.131 870.985 417.102C870.727 417.078 870.466 417.042 870.267 416.966C870.17 416.928 870.022 416.857 869.912 416.714Z" fill="#E9ECE0" fill-opacity="0.33"/>
<path fill-rule="evenodd" clip-rule="evenodd" d="M866.284 423.641C865.344 423.061 863.67 438.512 846.434 434.7L866.284 423.641Z" fill="#E9ECE0" fill-opacity="0.33"/>
<path fill-rule="evenodd" clip-rule="evenodd" d="M865.566 422.008C866.103 421.8 866.704 421.853 867.199 422.159L865.37 425.119C865.807 425.389 866.348 425.437 866.822 425.253C867.185 425.113 867.379 424.886 867.423 424.834C867.474 424.775 867.5 424.731 867.5 424.732C867.5 424.732 867.481 424.764 867.443 424.845C867.355 425.031 867.266 425.248 867.147 425.537C867.056 425.757 866.948 426.019 866.81 426.342C866.229 427.703 865.318 429.634 863.821 431.477C862.314 433.334 860.205 435.11 857.248 436.14C854.292 437.168 850.621 437.406 846.059 436.397L846.81 432.999C850.867 433.896 853.868 433.632 856.104 432.853C858.337 432.076 859.937 430.741 861.12 429.284C862.314 427.813 863.075 426.228 863.61 424.975C863.698 424.77 863.788 424.553 863.876 424.34C864.03 423.968 864.178 423.611 864.295 423.362C864.381 423.179 864.538 422.857 864.769 422.585C864.881 422.452 865.14 422.173 865.566 422.008Z" fill="#E9ECE0" fill-opacity="0.33"/>
<path fill-rule="evenodd" clip-rule="evenodd" d="M795.558 727.253C797.766 729.177 837.294 747.192 848.657 706.336L795.558 727.253Z" fill="#E9ECE0" fill-opacity="0.33"/>
<path fill-rule="evenodd" clip-rule="evenodd" d="M795.642 729.148C795.223 728.918 794.81 728.667 794.535 728.427L796.578 726.083C796.575 726.081 796.574 726.079 796.574 726.079C796.574 726.079 796.611 726.109 796.707 726.17C796.811 726.236 796.955 726.322 797.141 726.424C797.513 726.629 798.02 726.883 798.649 727.169C799.906 727.74 801.617 728.419 803.654 729.061C807.737 730.347 813.06 731.46 818.624 731.285C824.177 731.111 829.918 729.659 834.939 725.872C839.953 722.091 844.389 715.875 847.157 705.922L850.153 706.755C847.24 717.229 842.474 724.083 836.812 728.355C831.156 732.62 824.746 734.205 818.721 734.393C812.707 734.582 807.024 733.383 802.719 732.027C800.563 731.348 798.734 730.623 797.363 730C796.678 729.689 796.098 729.399 795.642 729.148Z" fill="#E9ECE0" fill-opacity="0.33"/>
<path fill-rule="evenodd" clip-rule="evenodd" d="M864.099 413.158C866.292 411.218 889.264 374.348 850.218 357.802L864.099 413.158Z" fill="#E9ECE0" fill-opacity="0.33"/>
<path fill-rule="evenodd" clip-rule="evenodd" d="M865.906 413.258C865.624 413.643 865.327 414.013 865.063 414.247L863.137 412.07C863.134 412.072 863.134 412.072 863.137 412.069C863.146 412.06 863.183 412.023 863.25 411.942C863.332 411.845 863.436 411.712 863.563 411.539C863.815 411.195 864.135 410.723 864.5 410.134C865.231 408.958 866.128 407.346 867.029 405.405C868.836 401.515 870.631 396.369 871.178 390.815C871.725 385.27 871.025 379.368 867.905 373.877C864.79 368.394 859.181 363.178 849.652 359.14L850.786 356.464C860.78 360.699 866.942 366.297 870.432 372.441C873.919 378.577 874.66 385.116 874.07 391.1C873.482 397.073 871.563 402.543 869.665 406.629C868.715 408.676 867.762 410.392 866.969 411.668C866.573 412.306 866.212 412.841 865.906 413.258Z" fill="#E9ECE0" fill-opacity="0.33"/>
<path fill-rule="evenodd" clip-rule="evenodd" d="M866.062 415.677C867.919 416.134 899.071 410.896 901.549 374.633L866.062 415.677Z" fill="#E9ECE0" fill-opacity="0.33"/>
<path fill-rule="evenodd" clip-rule="evenodd" d="M866.862 417.526C866.541 417.548 866.047 417.569 865.621 417.464L866.502 413.884C866.412 413.862 866.357 413.858 866.357 413.857C866.357 413.856 866.432 413.86 866.616 413.848C866.873 413.83 867.243 413.788 867.718 413.71C868.665 413.554 869.962 413.266 871.498 412.792C874.57 411.844 878.537 410.175 882.52 407.408C890.43 401.914 898.511 392.031 899.709 374.504L903.387 374.756C902.107 393.492 893.373 404.359 884.623 410.436C880.277 413.455 875.953 415.276 872.585 416.315C870.9 416.835 869.44 417.163 868.317 417.348C867.758 417.44 867.266 417.499 866.862 417.526Z" fill="#E9ECE0" fill-opacity="0.33"/>
<path fill-rule="evenodd" clip-rule="evenodd" d="M867.199 424.124C867.56 422.246 861.643 391.553 825.299 390.951L867.199 424.124Z" fill="#E9ECE0" fill-opacity="0.33"/>
<path fill-rule="evenodd" clip-rule="evenodd" d="M867.817 423.383C867.849 423.709 867.862 424.023 867.821 424.24L866.577 424.002C866.577 424.002 866.577 424.002 866.577 424.001C866.578 423.993 866.582 423.954 866.58 423.872C866.579 423.781 866.572 423.66 866.557 423.508C866.527 423.204 866.467 422.798 866.371 422.302C866.178 421.311 865.843 419.984 865.315 418.434C864.261 415.334 862.448 411.364 859.506 407.435C853.638 399.598 843.251 391.878 825.288 391.581L825.309 390.315C843.689 390.619 854.433 398.547 860.52 406.676C863.555 410.73 865.425 414.824 866.514 418.026C867.059 419.627 867.41 421.01 867.614 422.06C867.716 422.585 867.782 423.031 867.817 423.383Z" fill="#E9ECE0" fill-opacity="0.33"/>
<path fill-rule="evenodd" clip-rule="evenodd" d="M814.855 504.33C811.994 503.705 773.963 482.713 799.987 449.231L814.855 504.33Z" fill="#E9ECE0" fill-opacity="0.33"/>
<path fill-rule="evenodd" clip-rule="evenodd" d="M815.258 502.435C815.278 502.442 815.281 502.444 815.27 502.441L814.444 506.22C814.045 506.133 813.565 505.935 813.129 505.736C812.645 505.515 812.057 505.217 811.392 504.849C810.061 504.112 808.376 503.068 806.533 501.733C802.855 499.069 798.469 495.193 795.003 490.207C791.529 485.21 788.943 479.044 788.997 471.864C789.05 464.672 791.749 456.681 798.462 448.045L801.516 450.419C795.217 458.524 792.911 465.712 792.865 471.893C792.819 478.085 795.04 483.484 798.179 487.998C801.325 492.524 805.357 496.105 808.802 498.6C810.519 499.844 812.072 500.804 813.266 501.465C813.864 501.796 814.362 502.046 814.737 502.218C815.043 502.358 815.207 502.417 815.258 502.435Z" fill="#E9ECE0" fill-opacity="0.33"/>
<path fill-rule="evenodd" clip-rule="evenodd" d="M795.558 727.253C797.766 729.177 803.375 724.157 848.657 706.336L795.558 727.253Z" fill="#E9ECE0" fill-opacity="0.33"/>
<path fill-rule="evenodd" clip-rule="evenodd" d="M798.879 728.788C797.296 729.279 795.765 729.496 794.537 728.426L796.579 726.082C796.576 726.08 796.57 726.077 796.563 726.075C796.562 726.074 796.561 726.074 796.56 726.074C796.559 726.073 796.586 726.082 796.658 726.084C796.856 726.089 797.241 726.04 797.958 725.818C799.395 725.373 801.621 724.414 805.326 722.777C805.817 722.561 806.332 722.333 806.872 722.094C814.417 718.755 826.931 713.216 848.087 704.89L849.226 707.784C828.129 716.086 815.661 721.605 808.129 724.938C807.589 725.177 807.074 725.405 806.583 725.622C802.95 727.227 800.529 728.277 798.879 728.788Z" fill="#E9ECE0" fill-opacity="0.33"/>
<path fill-rule="evenodd" clip-rule="evenodd" d="M864.099 413.159C866.293 411.218 862.04 405.007 850.218 357.803L864.099 413.159Z" fill="#E9ECE0" fill-opacity="0.33"/>
<path fill-rule="evenodd" clip-rule="evenodd" d="M865.95 410.08C866.232 411.71 866.239 413.204 865.062 414.245L863.136 412.068L863.147 412.058L863.15 412.056C863.15 412.056 863.15 412.056 863.15 412.055M865.95 410.08C865.658 408.384 864.931 405.854 863.808 402.042L865.95 410.08ZM863.808 402.042C863.657 401.527 863.497 400.986 863.33 400.419L863.808 402.042ZM863.33 400.419C860.997 392.519 857.136 379.441 851.628 357.448L863.33 400.419ZM851.628 357.448L848.809 358.154L851.628 357.448ZM848.809 358.154C854.331 380.205 858.205 393.327 860.542 401.24L848.809 358.154ZM860.542 401.24C860.709 401.808 860.869 402.348 861.021 402.863L860.542 401.24ZM861.021 402.863C862.164 406.747 862.829 409.084 863.086 410.574L861.021 402.863ZM863.086 410.574C863.215 411.318 863.216 411.718 863.182 411.931L863.086 410.574ZM863.182 411.931C863.168 412.023 863.15 412.055 863.15 412.055L863.182 411.931ZM863.15 412.055C863.15 412.055 863.15 412.055 863.15 412.055L863.15 412.055Z" fill="#E9ECE0" fill-opacity="0.33"/>
<path fill-rule="evenodd" clip-rule="evenodd" d="M676.161 773.428C678.717 772.652 678.174 762.615 689.912 700.066L676.161 773.428Z" fill="#E9ECE0" fill-opacity="0.33"/>
<path fill-rule="evenodd" clip-rule="evenodd" d="M678.73 773.544C678.333 774.283 677.718 775.001 676.73 775.301L675.593 771.555C675.343 771.631 675.235 771.773 675.234 771.772C675.234 771.772 675.25 771.75 675.28 771.692C675.411 771.449 675.599 770.948 675.836 769.972C676.305 768.04 676.83 764.853 677.661 759.605C677.771 758.907 677.887 758.175 678.008 757.407C679.701 746.686 682.508 728.913 687.989 699.705L691.837 700.427C686.366 729.58 683.566 747.311 681.875 758.019C681.754 758.787 681.638 759.52 681.528 760.217C680.708 765.394 680.156 768.771 679.64 770.895C679.385 771.946 679.105 772.845 678.73 773.544Z" fill="#E9ECE0" fill-opacity="0.33"/>
<path fill-rule="evenodd" clip-rule="evenodd" d="M866.062 415.677C867.919 416.134 871.256 409.756 901.356 375.547L866.062 415.677Z" fill="#E9ECE0" fill-opacity="0.33"/>
<path fill-rule="evenodd" clip-rule="evenodd" d="M867.829 417.063C867.256 417.408 866.493 417.678 865.622 417.464L866.503 413.884C866.149 413.797 865.912 413.915 865.911 413.914C865.911 413.914 865.916 413.911 865.927 413.905C866.046 413.833 866.313 413.627 866.81 413.119C867.789 412.117 869.264 410.364 871.701 407.431C872.023 407.042 872.362 406.634 872.718 406.206C877.681 400.225 885.912 390.307 899.973 374.327L902.741 376.762C888.715 392.703 880.51 402.589 875.554 408.561C875.198 408.99 874.86 409.398 874.537 409.787C872.144 412.668 870.555 414.561 869.446 415.696C868.899 416.256 868.365 416.74 867.829 417.063Z" fill="#E9ECE0" fill-opacity="0.33"/>
<path fill-rule="evenodd" clip-rule="evenodd" d="M867.198 424.124C867.559 422.246 861.018 419.244 825.298 390.951L867.198 424.124Z" fill="#E9ECE0" fill-opacity="0.33"/>
<path fill-rule="evenodd" clip-rule="evenodd" d="M867.491 422.968C867.76 423.366 867.908 423.789 867.82 424.246L866.576 424.007L866.576 424.006C866.58 423.99 866.597 423.906 866.442 423.676C866.274 423.429 865.959 423.09 865.408 422.604C864.311 421.638 862.436 420.22 859.399 417.952C858.994 417.65 858.569 417.333 858.123 417C851.897 412.355 841.577 404.655 824.905 391.45L825.691 390.457C842.349 403.651 852.658 411.342 858.881 415.985C859.327 416.318 859.752 416.635 860.157 416.938C863.175 419.192 865.1 420.645 866.245 421.654C866.815 422.156 867.23 422.581 867.491 422.968Z" fill="#E9ECE0" fill-opacity="0.33"/>
<path fill-rule="evenodd" clip-rule="evenodd" d="M814.855 504.33C811.994 503.705 812.68 496.209 799.987 449.231L814.855 504.33Z" fill="#E9ECE0" fill-opacity="0.33"/>
<path fill-rule="evenodd" clip-rule="evenodd" d="M815.434 502.514C815.404 502.49 815.349 502.459 815.267 502.441L814.442 506.22C812.635 505.826 811.838 504.278 811.284 502.706C810.702 501.05 810.096 498.455 809.221 494.591C809.102 494.067 808.978 493.518 808.848 492.941C807.033 484.909 804.031 471.615 798.119 449.736L801.854 448.727C807.786 470.683 810.802 484.037 812.621 492.087C812.751 492.663 812.875 493.213 812.993 493.736C813.891 497.696 814.443 500.028 814.934 501.422C815.191 502.154 815.368 502.431 815.434 502.514ZM815.464 502.544C815.464 502.546 815.454 502.538 815.434 502.514C815.455 502.53 815.464 502.542 815.464 502.544Z" fill="#E9ECE0" fill-opacity="0.33"/>
<path fill-rule="evenodd" clip-rule="evenodd" d="M795.558 727.253C834.851 727.055 827.64 722.938 848.657 706.336L795.558 727.253Z" fill="#E9ECE0" fill-opacity="0.33"/>
<path fill-rule="evenodd" clip-rule="evenodd" d="M829.704 724.313C823.568 727.661 815.143 728.711 795.565 728.809L795.549 725.7C815.264 725.601 822.879 724.494 828.215 721.583C830.886 720.127 833.05 718.182 835.952 715.451C836.201 715.216 836.455 714.976 836.715 714.732C839.463 712.138 842.835 708.955 847.692 705.118L849.619 707.558C844.873 711.307 841.59 714.406 838.846 716.996C838.587 717.24 838.334 717.48 838.084 717.715C835.199 720.43 832.77 722.641 829.704 724.313Z" fill="#E9ECE0" fill-opacity="0.33"/>
<path fill-rule="evenodd" clip-rule="evenodd" d="M864.099 413.156C868.98 374.167 863.966 380.786 850.218 357.8L864.099 413.156Z" fill="#E9ECE0" fill-opacity="0.33"/>
<path fill-rule="evenodd" clip-rule="evenodd" d="M865.5 378.953C868.016 385.442 867.975 393.907 865.542 413.338L862.658 412.977C865.107 393.419 864.999 385.698 862.791 380.003C861.686 377.153 860.03 374.746 857.697 371.516C857.496 371.239 857.291 370.956 857.082 370.667C854.865 367.607 852.147 363.855 848.972 358.547L851.466 357.055C854.573 362.25 857.225 365.91 859.438 368.965C859.647 369.253 859.852 369.536 860.052 369.814C862.373 373.026 864.244 375.71 865.5 378.953Z" fill="#E9ECE0" fill-opacity="0.33"/>
<path fill-rule="evenodd" clip-rule="evenodd" d="M676.16 773.428C697.188 731.579 690.38 735.879 689.912 700.067L676.16 773.428Z" fill="#E9ECE0" fill-opacity="0.33"/>
<path fill-rule="evenodd" clip-rule="evenodd" d="M693.046 734.678C692.137 743.717 688.412 753.406 677.911 774.306L674.413 772.548C684.939 751.598 688.324 742.512 689.151 734.286C689.566 730.158 689.343 726.186 688.966 720.89C688.934 720.434 688.901 719.97 688.867 719.496C688.505 714.47 688.063 708.331 687.956 700.09L691.87 700.039C691.976 708.161 692.411 714.198 692.772 719.219C692.806 719.692 692.839 720.156 692.871 720.612C693.246 725.889 693.499 730.173 693.046 734.678Z" fill="#E9ECE0" fill-opacity="0.33"/>
<path fill-rule="evenodd" clip-rule="evenodd" d="M814.855 504.33C791.586 472.669 799.19 476.003 799.987 449.231L814.855 504.33Z" fill="#E9ECE0" fill-opacity="0.33"/>
<path fill-rule="evenodd" clip-rule="evenodd" d="M800.312 474.676C801.141 480.586 804.729 487.284 816.414 503.183L813.297 505.474C801.713 489.712 797.468 482.246 796.481 475.214C795.988 471.701 796.321 468.388 796.781 464.456C796.821 464.115 796.862 463.769 796.903 463.416C797.346 459.67 797.875 455.2 798.054 449.172L801.921 449.287C801.736 455.491 801.19 460.111 800.746 463.864C800.704 464.219 800.663 464.565 800.623 464.905C800.16 468.867 799.897 471.718 800.312 474.676Z" fill="#E9ECE0" fill-opacity="0.33"/>
<path fill-rule="evenodd" clip-rule="evenodd" d="M795.558 727.256C816.349 722.372 811.279 701.001 848.656 706.34L795.558 727.256Z" fill="#E9ECE0" fill-opacity="0.33"/>
<path fill-rule="evenodd" clip-rule="evenodd" d="M813.087 717.846C808.858 722.151 804.29 726.8 795.915 728.767L795.203 725.74C802.626 723.997 806.398 720.169 810.506 716.001C811.872 714.615 813.275 713.192 814.861 711.795C817.996 709.035 821.727 706.567 827.125 705.162C832.491 703.765 839.403 703.445 848.877 704.798L848.438 707.876C839.224 706.56 832.753 706.91 827.908 708.171C823.094 709.424 819.784 711.603 816.916 714.129C815.607 715.281 814.362 716.548 813.087 717.846Z" fill="#E9ECE0" fill-opacity="0.33"/>
<path fill-rule="evenodd" clip-rule="evenodd" d="M864.099 413.155C861.942 391.907 840.095 394.174 850.218 357.799L864.099 413.155Z" fill="#E9ECE0" fill-opacity="0.33"/>
<path fill-rule="evenodd" clip-rule="evenodd" d="M856.966 394.636C860.685 399.383 864.681 404.483 865.546 413.01L862.655 413.304C861.882 405.687 858.551 401.423 854.944 396.806C853.749 395.275 852.523 393.706 851.35 391.963C849.024 388.507 847.066 384.503 846.373 378.989C845.683 373.505 846.256 366.624 848.82 357.411L851.62 358.191C849.122 367.166 848.63 373.642 849.256 378.627C849.88 383.582 851.621 387.16 853.761 390.34C854.741 391.797 855.841 393.2 856.966 394.636Z" fill="#E9ECE0" fill-opacity="0.33"/>
<path fill-rule="evenodd" clip-rule="evenodd" d="M676.161 773.428C683.893 747.394 665.985 735.378 689.912 700.066L676.161 773.428Z" fill="#E9ECE0" fill-opacity="0.33"/>
<path fill-rule="evenodd" clip-rule="evenodd" d="M679.508 747.382C680.282 755.34 681.095 763.696 678.039 773.984L674.286 772.869C677.105 763.379 676.392 755.996 675.639 748.193C675.393 745.643 675.143 743.048 675.01 740.319C674.47 729.23 676.088 716.978 688.293 698.966L691.534 701.162C679.812 718.462 678.421 729.874 678.92 740.129C679.038 742.539 679.271 744.942 679.508 747.382Z" fill="#E9ECE0" fill-opacity="0.33"/>
<path fill-rule="evenodd" clip-rule="evenodd" d="M814.855 504.33C806.379 484.727 826.559 476.055 799.987 449.231L814.855 504.33Z" fill="#E9ECE0" fill-opacity="0.33"/>
<path fill-rule="evenodd" clip-rule="evenodd" d="M815.347 485.743C814.455 491.496 813.653 496.673 816.632 503.563L813.081 505.098C809.619 497.09 810.652 490.51 811.59 484.533C811.869 482.752 812.14 481.024 812.281 479.328C812.595 475.563 812.374 471.669 810.537 467.125C808.685 462.545 805.142 457.182 798.615 450.593L801.363 447.871C808.121 454.693 812.021 460.473 814.123 465.676C816.241 470.915 816.487 475.444 816.136 479.649C815.957 481.804 815.647 483.806 815.347 485.743Z" fill="#E9ECE0" fill-opacity="0.33"/>
<path fill-rule="evenodd" clip-rule="evenodd" d="M795.558 727.253C797.765 729.177 814.939 682.607 848.656 706.336L795.558 727.253Z" fill="#E9ECE0" fill-opacity="0.33"/>
<path fill-rule="evenodd" clip-rule="evenodd" d="M796.276 728.78C795.764 728.941 795.088 728.909 794.536 728.427L796.579 726.083C796.164 725.722 795.656 725.715 795.341 725.814C795.21 725.855 795.127 725.908 795.097 725.93C795.1 725.927 795.103 725.924 795.107 725.921C795.226 725.814 795.456 725.546 795.826 725.03C796.31 724.354 796.892 723.456 797.602 722.362C797.951 721.824 798.331 721.238 798.745 720.608C801.206 716.862 804.691 711.842 809.214 707.499C813.735 703.156 819.39 699.397 826.205 698.33C833.064 697.258 840.859 698.95 849.551 705.067L847.761 707.61C839.594 701.862 832.599 700.478 826.686 701.403C820.728 702.335 815.63 705.648 811.368 709.741C807.107 713.833 803.777 718.612 801.343 722.315C800.967 722.889 800.607 723.444 800.266 723.969C799.528 725.107 798.881 726.105 798.354 726.841C797.977 727.367 797.579 727.88 797.187 728.233C797.001 728.399 796.69 728.649 796.276 728.78ZM795.084 725.94C795.084 725.94 795.088 725.936 795.097 725.93C795.088 725.938 795.084 725.941 795.084 725.94Z" fill="#E9ECE0" fill-opacity="0.33"/>
<path fill-rule="evenodd" clip-rule="evenodd" d="M864.097 413.156C866.291 411.215 822.33 388.169 850.216 357.8L864.097 413.156Z" fill="#E9ECE0" fill-opacity="0.33"/>
<path fill-rule="evenodd" clip-rule="evenodd" d="M865.605 412.658C865.693 413.159 865.58 413.786 865.063 414.243L863.137 412.067C862.757 412.403 862.69 412.868 862.743 413.166C862.764 413.283 862.799 413.36 862.814 413.389C862.811 413.385 862.807 413.379 862.802 413.371C862.705 413.23 862.462 412.961 861.998 412.527C861.388 411.958 860.569 411.262 859.575 410.416C859.087 410 858.556 409.549 857.987 409.059C854.592 406.135 850.071 402.037 846.355 397C842.641 391.965 839.655 385.891 839.479 379.025C839.302 372.116 841.974 364.629 849.149 356.816L851.289 358.782C844.521 366.153 842.23 372.936 842.385 378.95C842.54 385.006 845.179 390.51 848.694 395.275C852.208 400.038 856.524 403.964 859.883 406.856C860.404 407.305 860.909 407.735 861.386 408.141C862.418 409.018 863.321 409.786 863.981 410.403C864.454 410.844 864.904 411.299 865.196 411.723C865.335 411.925 865.533 412.251 865.605 412.658ZM862.822 413.402C862.821 413.402 862.819 413.398 862.814 413.389C862.82 413.398 862.822 413.402 862.822 413.402Z" fill="#E9ECE0" fill-opacity="0.33"/>
<path fill-rule="evenodd" clip-rule="evenodd" d="M676.16 773.43C678.716 772.654 657.218 715.399 692.232 698.94L676.16 773.43ZM676.16 773.43C678.716 772.654 712.647 743.697 689.754 698.386L676.16 773.43Z" fill="#E9ECE0" fill-opacity="0.33"/>
<path fill-rule="evenodd" clip-rule="evenodd" d="M678.128 774.602C677.756 774.86 677.24 775.195 676.744 775.345L673.486 776.335L674.353 772.314C674.324 771.999 674.266 771.569 674.173 771.005C673.991 769.899 673.713 768.491 673.377 766.792C673.217 765.98 673.043 765.101 672.861 764.157C671.747 758.398 670.37 750.535 670.024 742.147C669.339 725.522 672.697 705.909 691.381 697.126L695.044 695.404L693.637 701.929C702.915 723.185 700.094 740.811 694.323 753.44C691.254 760.156 687.365 765.433 684.071 769.088C682.424 770.917 680.914 772.352 679.713 773.369C679.113 773.876 678.577 774.29 678.128 774.602ZM689.348 702.811C676.228 711.23 673.409 727 674.026 741.982C674.335 749.478 675.502 756.582 676.551 762.128L689.348 702.811ZM692.11 709.007C698.222 726.645 695.529 741.164 690.68 751.775C687.809 758.058 684.166 762.999 681.095 766.407C680.475 767.094 679.881 767.718 679.323 768.275L692.11 709.007Z" fill="#E9ECE0" fill-opacity="0.33"/>
<path fill-rule="evenodd" clip-rule="evenodd" d="M866.061 415.676C867.918 416.133 875.878 373.141 903.451 375.816L866.061 415.676Z" fill="#E9ECE0" fill-opacity="0.33"/>
<path fill-rule="evenodd" clip-rule="evenodd" d="M867.532 416.92C867.328 417.116 866.628 417.713 865.619 417.464L866.501 413.884C865.608 413.665 865.036 414.205 864.973 414.266C864.913 414.323 864.877 414.369 864.865 414.387C864.869 414.38 864.877 414.368 864.887 414.35C864.982 414.186 865.135 413.856 865.357 413.3C865.652 412.56 865.998 411.603 866.419 410.441C866.62 409.884 866.839 409.279 867.077 408.629C868.524 404.682 870.592 399.33 873.495 394.027C879.233 383.543 888.658 372.527 903.628 373.979L903.272 377.649C890.67 376.426 882.328 385.569 876.729 395.798C873.962 400.852 871.969 405.995 870.539 409.897C870.32 410.496 870.111 411.073 869.913 411.619C869.479 412.82 869.099 413.869 868.781 414.666C868.553 415.237 868.318 415.782 868.079 416.195C867.967 416.389 867.788 416.673 867.532 416.92ZM864.859 414.395C864.859 414.395 864.861 414.392 864.865 414.387C864.861 414.393 864.859 414.396 864.859 414.395Z" fill="#E9ECE0" fill-opacity="0.33"/>
<path fill-rule="evenodd" clip-rule="evenodd" d="M867.2 424.124C867.56 422.246 824.054 418.626 825.3 390.951L867.2 424.124Z" fill="#E9ECE0" fill-opacity="0.33"/>
<path fill-rule="evenodd" clip-rule="evenodd" d="M867.525 423.464C867.65 423.574 867.898 423.844 867.821 424.241L866.578 424.003C866.553 424.133 866.582 424.246 866.621 424.32C866.653 424.385 866.689 424.415 866.69 424.417L866.69 424.417C866.691 424.417 866.691 424.417 866.691 424.417C866.691 424.417 866.679 424.408 866.649 424.39C866.617 424.371 866.572 424.348 866.512 424.32C866.259 424.204 865.85 424.066 865.276 423.901C864.505 423.678 863.506 423.425 862.317 423.123C861.744 422.977 861.128 422.821 860.471 422.651C856.455 421.613 851.051 420.11 845.667 417.791C834.942 413.17 824.025 405.182 824.667 390.92L825.932 390.977C825.328 404.391 835.542 412.05 846.168 416.628C851.46 418.907 856.787 420.391 860.788 421.425C861.426 421.59 862.032 421.744 862.6 421.888C863.804 422.194 864.837 422.456 865.627 422.684C866.206 422.851 866.694 423.011 867.038 423.168C867.205 423.244 867.383 423.34 867.525 423.464Z" fill="#E9ECE0" fill-opacity="0.33"/>
<path fill-rule="evenodd" clip-rule="evenodd" d="M814.856 504.331C811.995 503.706 839.142 462.152 799.988 449.232L814.856 504.331Z" fill="#E9ECE0" fill-opacity="0.33"/>
<path fill-rule="evenodd" clip-rule="evenodd" d="M816.5 503.519C816.357 503.106 815.959 502.59 815.269 502.439L814.443 506.218C813.574 506.029 813.056 505.393 812.845 504.786C812.676 504.299 812.697 503.836 812.722 503.568C812.775 502.999 812.961 502.339 813.16 501.721C813.439 500.85 813.86 499.722 814.335 498.445C814.553 497.861 814.782 497.245 815.015 496.608C816.535 492.452 818.374 486.963 819.113 481.146C819.852 475.327 819.469 469.346 816.714 464.101C813.985 458.906 808.791 454.171 799.382 451.066L800.594 447.393C810.762 450.748 816.857 456.053 820.139 462.302C823.396 468.503 823.746 475.371 822.95 481.634C822.154 487.899 820.19 493.723 818.648 497.937C818.386 498.653 818.141 499.311 817.916 499.914C817.464 501.129 817.095 502.119 816.843 502.903C816.652 503.499 816.586 503.809 816.574 503.926C816.575 503.873 816.57 503.719 816.5 503.519ZM816.573 503.93C816.573 503.928 816.574 503.927 816.574 503.926L816.573 503.93Z" fill="#E9ECE0" fill-opacity="0.33"/>
<path fill-rule="evenodd" clip-rule="evenodd" d="M867.227 613.987C870.737 614.765 909.473 617.647 912.205 560.266L867.227 613.987Z" fill="#E9ECE0" fill-opacity="0.33"/>
<path fill-rule="evenodd" clip-rule="evenodd" d="M891.031 610.621C880.041 617.296 868.936 616.384 866.802 615.911L867.655 612.066C869.031 612.372 879.049 613.29 888.987 607.255C898.76 601.32 908.897 588.381 910.24 560.174L914.174 560.361C912.785 589.535 902.187 603.846 891.031 610.621Z" fill="#E9ECE0" fill-opacity="0.33"/>
<path fill-rule="evenodd" clip-rule="evenodd" d="M867.227 613.987C870.737 614.765 873.839 606.06 912.205 560.266L867.227 613.987Z" fill="#E9ECE0" fill-opacity="0.33"/>
<path fill-rule="evenodd" clip-rule="evenodd" d="M871.753 613.737C870.333 615.196 868.789 616.353 866.802 615.912L867.655 612.067C867.65 612.067 867.633 612.065 867.612 612.068C867.607 612.069 867.604 612.07 867.604 612.07C867.603 612.07 867.633 612.063 867.7 612.029C867.909 611.923 868.289 611.65 868.931 610.991C870.216 609.67 872.051 607.334 875.087 603.392C875.489 602.87 875.91 602.322 876.353 601.747C882.529 593.717 892.772 580.4 910.698 559.004L913.716 561.533C895.843 582.867 885.638 596.135 879.473 604.15C879.03 604.725 878.609 605.273 878.207 605.796C875.232 609.657 873.236 612.214 871.753 613.737Z" fill="#E9ECE0" fill-opacity="0.33"/>
<path fill-rule="evenodd" clip-rule="evenodd" d="M876.921 604.233C876.504 587.216 875.412 581.495 875.39 578.118L876.921 604.233Z" fill="#E9ECE0" fill-opacity="0.33"/>
<path fill-rule="evenodd" clip-rule="evenodd" d="M877.97 585.9C878.301 589.916 878.68 595.638 878.89 604.186L874.952 604.282C874.745 595.814 874.37 590.167 874.045 586.224C873.943 584.987 873.843 583.894 873.755 582.922C873.567 580.865 873.429 579.346 873.421 578.133L877.359 578.107C877.366 579.151 877.481 580.413 877.655 582.319C877.746 583.316 877.854 584.49 877.97 585.9Z" fill="#E9ECE0" fill-opacity="0.33"/>
<path fill-rule="evenodd" clip-rule="evenodd" d="M885.671 592.081C885.269 577.532 884.183 572.642 884.164 569.755L885.671 592.081Z" fill="#E9ECE0" fill-opacity="0.33"/>
<path fill-rule="evenodd" clip-rule="evenodd" d="M886.724 576.361C887.053 579.804 887.427 584.708 887.629 592.029L883.715 592.137C883.516 584.908 883.147 580.093 882.826 576.732C882.728 575.699 882.631 574.778 882.543 573.951C882.356 572.173 882.214 570.833 882.207 569.769L886.123 569.743C886.129 570.61 886.239 571.651 886.409 573.255C886.499 574.11 886.607 575.126 886.724 576.361Z" fill="#E9ECE0" fill-opacity="0.33"/>
<path fill-rule="evenodd" clip-rule="evenodd" d="M895.783 580.309C895.408 569.788 894.331 566.253 894.316 564.165L895.783 580.309Z" fill="#E9ECE0" fill-opacity="0.33"/>
<path fill-rule="evenodd" clip-rule="evenodd" d="M896.874 568.823C897.199 571.34 897.568 574.915 897.757 580.24L893.81 580.381C893.625 575.185 893.268 571.732 892.957 569.329C892.853 568.524 892.757 567.854 892.67 567.253C892.625 566.94 892.583 566.645 892.544 566.36C892.435 565.572 892.347 564.845 892.343 564.18L896.292 564.153C896.295 564.533 896.347 565.03 896.456 565.821C896.49 566.067 896.53 566.343 896.573 566.646C896.662 567.263 896.767 567.995 896.874 568.823Z" fill="#E9ECE0" fill-opacity="0.33"/>
<path fill-rule="evenodd" clip-rule="evenodd" d="M867.227 613.987C870.737 614.765 855.158 566.982 912.205 560.266L867.227 613.987Z" fill="#E9ECE0" fill-opacity="0.33"/>
<path fill-rule="evenodd" clip-rule="evenodd" d="M868.822 615.384C868.234 615.913 867.479 616.061 866.801 615.91L867.654 612.066C867.195 611.964 866.622 612.065 866.185 612.459C866.014 612.613 865.918 612.765 865.87 612.855C865.821 612.945 865.802 613.008 865.798 613.021C865.793 613.039 865.81 612.984 865.827 612.809C865.843 612.645 865.854 612.427 865.859 612.145C865.871 611.452 865.845 610.611 865.813 609.577C865.789 608.8 865.762 607.914 865.745 606.9C865.668 602.356 865.83 596.015 867.749 589.39C869.675 582.74 873.376 575.79 880.358 570.08C887.33 564.377 897.434 560.023 911.976 558.311L912.436 562.223C898.454 563.869 889.112 568.007 882.851 573.128C876.6 578.241 873.28 584.449 871.531 590.486C869.775 596.549 869.608 602.428 869.683 606.834C869.697 607.688 869.722 608.521 869.745 609.296C869.779 610.438 869.81 611.451 869.797 612.212C869.786 612.834 869.749 613.556 869.57 614.153C869.483 614.443 869.29 614.962 868.822 615.384Z" fill="#E9ECE0" fill-opacity="0.33"/>
<path fill-rule="evenodd" clip-rule="evenodd" d="M796.682 672.279C796.691 673.622 852.956 641.55 869.293 611.035L796.682 672.279Z" fill="#E9ECE0" fill-opacity="0.33"/>
<path fill-rule="evenodd" clip-rule="evenodd" d="M794.641 674.5C793.963 673.867 793.681 673.037 793.676 672.298L799.685 672.259C799.681 671.54 799.406 670.727 798.741 670.107C798.166 669.57 797.546 669.411 797.243 669.358C796.702 669.262 796.286 669.354 796.237 669.364L796.233 669.365C796.138 669.385 796.08 669.404 796.079 669.404C796.078 669.405 796.113 669.393 796.191 669.362C796.48 669.245 796.997 669.004 797.759 668.612C799.256 667.842 801.461 666.614 804.195 664.985C809.655 661.733 817.124 656.945 825.101 651.169C841.188 639.521 858.827 624.216 866.643 609.616L871.941 612.453C863.42 628.368 844.757 644.356 828.625 656.036C820.493 661.925 812.873 666.811 807.27 670.148C804.473 671.814 802.153 673.109 800.507 673.956C799.698 674.372 798.989 674.712 798.445 674.932C798.206 675.029 797.839 675.169 797.453 675.249L797.449 675.25C797.312 675.279 796.809 675.383 796.2 675.276C795.871 675.218 795.23 675.05 794.641 674.5Z" fill="#E9ECE0" fill-opacity="0.33"/>
<path fill-rule="evenodd" clip-rule="evenodd" d="M796.682 672.279C796.691 673.622 852.956 641.55 869.293 611.035L796.682 672.279Z" fill="#E9ECE0" fill-opacity="0.33"/>
<path fill-rule="evenodd" clip-rule="evenodd" d="M794.641 674.5C793.963 673.867 793.681 673.037 793.676 672.298L799.685 672.259C799.681 671.54 799.406 670.727 798.741 670.107C798.166 669.57 797.546 669.411 797.243 669.358C796.702 669.262 796.286 669.354 796.237 669.364L796.233 669.365C796.138 669.385 796.08 669.404 796.079 669.404C796.078 669.405 796.113 669.393 796.191 669.362C796.48 669.245 796.997 669.004 797.759 668.612C799.256 667.842 801.461 666.614 804.195 664.985C809.655 661.733 817.124 656.945 825.101 651.169C841.188 639.521 858.827 624.216 866.643 609.616L871.941 612.453C863.42 628.368 844.757 644.356 828.625 656.036C820.493 661.925 812.873 666.811 807.27 670.148C804.473 671.814 802.153 673.109 800.507 673.956C799.698 674.372 798.989 674.712 798.445 674.932C798.206 675.029 797.839 675.169 797.453 675.249L797.449 675.25C797.312 675.279 796.809 675.383 796.2 675.276C795.871 675.218 795.23 675.05 794.641 674.5Z" fill="#E9ECE0" fill-opacity="0.33"/>
<path fill-rule="evenodd" clip-rule="evenodd" d="M731.019 758.813C731.028 760.156 764.033 743.562 797.044 727.977L731.019 758.813Z" fill="#E9ECE0" fill-opacity="0.33"/>
<path fill-rule="evenodd" clip-rule="evenodd" d="M729.221 761.247C728.442 760.654 728.02 759.75 728.014 758.828L734.023 758.789C734.017 757.909 733.612 757.039 732.865 756.47C732.27 756.016 731.682 755.924 731.467 755.899C731.207 755.868 731.014 755.884 730.941 755.891C730.854 755.899 730.8 755.911 730.792 755.912C730.79 755.913 730.79 755.913 730.793 755.912C730.803 755.909 730.856 755.896 730.964 755.862C731.09 755.823 731.256 755.766 731.468 755.688C732.335 755.37 733.676 754.806 735.473 754.005C739.042 752.413 744.166 749.994 750.357 747.029C754.466 745.061 759.039 742.855 763.92 740.501C773.71 735.778 784.742 730.457 795.761 725.255L798.326 730.689C787.328 735.881 776.344 741.18 766.567 745.896C761.677 748.254 757.09 750.467 752.953 752.448C746.765 755.412 741.573 757.864 737.92 759.493C736.105 760.302 734.609 760.936 733.541 761.329C733.034 761.515 732.487 761.698 732.005 761.798C731.82 761.836 731.33 761.933 730.763 761.866C730.485 761.834 729.848 761.726 729.221 761.247Z" fill="#E9ECE0" fill-opacity="0.33"/>
<path fill-rule="evenodd" clip-rule="evenodd" d="M771.848 621.086C770.944 621.595 762.061 628.446 772.538 641.307L771.848 621.086Z" fill="#E9ECE0" fill-opacity="0.33"/>
<path fill-rule="evenodd" clip-rule="evenodd" d="M766.289 626.069C767.468 622.173 770.264 620.016 771.01 619.596L772.689 622.576C772.691 622.575 772.69 622.576 772.684 622.579C772.655 622.599 772.516 622.691 772.294 622.88C772.046 623.089 771.729 623.388 771.392 623.775C770.718 624.55 769.991 625.648 769.563 627.06C768.743 629.772 768.892 634.123 773.865 640.228L771.213 642.388C765.709 635.631 765.062 630.126 766.289 626.069Z" fill="#E9ECE0" fill-opacity="0.33"/>
<path fill-rule="evenodd" clip-rule="evenodd" d="M761.267 624.946C761.075 624.204 757.871 616.578 746.724 621.615L761.267 624.946Z" fill="#E9ECE0" fill-opacity="0.33"/>
<path fill-rule="evenodd" clip-rule="evenodd" d="M760.952 623.084C761.481 623.866 761.749 624.541 761.817 624.802L760.714 625.087C760.686 624.978 760.482 624.421 760.009 623.722C759.542 623.033 758.83 622.231 757.803 621.597C755.784 620.35 752.403 619.672 746.957 622.132L746.488 621.094C752.19 618.519 755.985 619.135 758.402 620.628C759.594 621.364 760.415 622.292 760.952 623.084Z" fill="#E9ECE0" fill-opacity="0.33"/>
<path fill-rule="evenodd" clip-rule="evenodd" d="M723.426 658.148C724.445 656.702 731.416 638.633 705.874 626.503L723.426 658.148Z" fill="#E9ECE0" fill-opacity="0.33"/>
<path fill-rule="evenodd" clip-rule="evenodd" d="M725.04 657.248C724.793 657.927 724.533 658.479 724.32 658.783L722.527 657.518L722.527 657.519C722.527 657.519 722.531 657.513 722.539 657.499C722.548 657.485 722.559 657.465 722.574 657.439C722.603 657.386 722.639 657.314 722.682 657.224C722.767 657.043 722.869 656.8 722.978 656.499C723.197 655.896 723.438 655.081 723.625 654.096C724.001 652.126 724.161 649.502 723.535 646.563C722.296 640.741 717.922 633.442 705.401 627.496L706.342 625.515C719.363 631.698 724.275 639.499 725.681 646.106C726.378 649.38 726.2 652.304 725.78 654.507C725.57 655.609 725.298 656.537 725.04 657.248Z" fill="#E9ECE0" fill-opacity="0.33"/>
<path fill-rule="evenodd" clip-rule="evenodd" d="M771.848 621.086C770.944 621.595 771.956 624.065 772.538 641.307L771.848 621.086Z" fill="#E9ECE0" fill-opacity="0.33"/>
<path fill-rule="evenodd" clip-rule="evenodd" d="M769.783 621.965C769.808 621.348 769.922 620.206 771.008 619.594L772.687 622.575C773.082 622.352 773.192 622.018 773.214 621.927C773.21 621.956 773.204 622.012 773.2 622.104C773.182 622.554 773.23 623.331 773.34 624.793C773.354 624.982 773.369 625.18 773.385 625.389C773.606 628.311 773.973 633.168 774.247 641.249L770.828 641.364C770.557 633.354 770.194 628.552 769.974 625.645C769.958 625.437 769.943 625.238 769.929 625.048C769.826 623.674 769.754 622.66 769.783 621.965ZM773.219 621.903C773.219 621.904 773.218 621.912 773.214 621.927C773.217 621.91 773.218 621.903 773.219 621.903Z" fill="#E9ECE0" fill-opacity="0.33"/>
<path fill-rule="evenodd" clip-rule="evenodd" d="M761.267 624.945C761.075 624.204 759.123 624.458 746.724 621.614L761.267 624.945Z" fill="#E9ECE0" fill-opacity="0.33"/>
<path fill-rule="evenodd" clip-rule="evenodd" d="M760.824 623.967C761.242 624.096 761.687 624.298 761.817 624.802L760.714 625.087C760.725 625.129 760.745 625.153 760.756 625.163C760.736 625.149 760.666 625.11 760.488 625.055C760.123 624.942 759.513 624.822 758.468 624.627C758.33 624.601 758.185 624.574 758.032 624.546C755.911 624.152 752.391 623.498 746.595 622.168L746.85 621.058C752.623 622.382 756.125 623.033 758.241 623.427C758.393 623.455 758.538 623.482 758.677 623.508C759.693 623.697 760.382 623.83 760.824 623.967ZM760.762 625.168C760.762 625.168 760.76 625.167 760.756 625.163C760.761 625.166 760.763 625.168 760.762 625.168Z" fill="#E9ECE0" fill-opacity="0.33"/>
<path fill-rule="evenodd" clip-rule="evenodd" d="M723.424 658.148C724.443 656.701 721.078 653.641 707.561 627.525L723.424 658.148Z" fill="#E9ECE0" fill-opacity="0.33"/>
<path fill-rule="evenodd" clip-rule="evenodd" d="M724.287 655.996C724.681 656.921 724.941 657.902 724.321 658.781L722.529 657.517C722.511 657.542 722.502 657.565 722.497 657.581C722.495 657.513 722.463 657.311 722.269 656.857C721.916 656.031 721.208 654.762 719.993 652.632C719.832 652.351 719.663 652.055 719.486 651.745C717.011 647.416 712.905 640.235 706.588 628.03L708.536 627.022C714.833 639.186 718.921 646.337 721.391 650.658C721.568 650.968 721.737 651.263 721.898 651.545C723.086 653.626 723.872 655.025 724.287 655.996ZM722.495 657.609C722.494 657.607 722.493 657.597 722.497 657.581C722.498 657.602 722.496 657.61 722.495 657.609Z" fill="#E9ECE0" fill-opacity="0.33"/>
<path fill-rule="evenodd" clip-rule="evenodd" d="M720.834 651.894C713.027 648.854 710.221 648.264 708.683 647.634L720.834 651.894Z" fill="#E9ECE0" fill-opacity="0.33"/>
<path fill-rule="evenodd" clip-rule="evenodd" d="M712.746 647.816C714.635 648.429 717.308 649.343 721.232 650.871L720.436 652.915C716.553 651.403 713.92 650.503 712.07 649.903C711.493 649.716 710.98 649.554 710.521 649.41C709.549 649.104 708.824 648.876 708.267 648.648L709.099 646.618C709.57 646.811 710.157 646.995 711.049 647.276C711.521 647.424 712.077 647.599 712.746 647.816Z" fill="#E9ECE0" fill-opacity="0.33"/>
<path fill-rule="evenodd" clip-rule="evenodd" d="M716.976 645.616C710.293 643.037 707.865 642.603 706.55 642.064L716.976 645.616Z" fill="#E9ECE0" fill-opacity="0.33"/>
<path fill-rule="evenodd" clip-rule="evenodd" d="M710.058 642.079C711.686 642.584 713.986 643.345 717.351 644.643L716.601 646.587C713.282 645.307 711.026 644.561 709.441 644.069C708.957 643.919 708.521 643.789 708.13 643.672C707.284 643.419 706.642 643.227 706.154 643.027L706.945 641.099C707.336 641.259 707.824 641.405 708.581 641.631C708.987 641.752 709.471 641.897 710.058 642.079Z" fill="#E9ECE0" fill-opacity="0.33"/>
<path fill-rule="evenodd" clip-rule="evenodd" d="M713.549 638.787C708.699 636.961 706.889 636.779 705.938 636.389L713.549 638.787Z" fill="#E9ECE0" fill-opacity="0.33"/>
<path fill-rule="evenodd" clip-rule="evenodd" d="M708.536 636.113C709.741 636.443 711.435 636.954 713.889 637.878L713.205 639.694C710.81 638.792 709.174 638.3 708.024 637.985C707.639 637.88 707.317 637.796 707.028 637.721C706.876 637.682 706.734 637.646 706.597 637.609C706.218 637.509 705.871 637.411 705.569 637.287L706.305 635.491C706.478 635.562 706.714 635.632 707.094 635.733C707.212 635.764 707.345 635.799 707.492 635.836C707.789 635.913 708.141 636.004 708.536 636.113Z" fill="#E9ECE0" fill-opacity="0.33"/>
<path fill-rule="evenodd" clip-rule="evenodd" d="M771.848 621.084C770.944 621.594 783.507 628.862 772.538 641.306L771.848 621.084Z" fill="#E9ECE0" fill-opacity="0.33"/>
<path fill-rule="evenodd" clip-rule="evenodd" d="M770.102 620.974C770.168 620.349 770.541 619.861 771.01 619.597L772.689 622.577C773.101 622.345 773.443 621.901 773.503 621.335C773.549 620.907 773.408 620.602 773.376 620.533C773.334 620.444 773.295 620.391 773.295 620.391C773.295 620.391 773.313 620.416 773.361 620.472C773.48 620.609 773.617 620.752 773.801 620.944C773.953 621.104 774.138 621.297 774.371 621.548C775.292 622.54 776.57 624.033 777.509 625.98C778.458 627.948 779.063 630.389 778.622 633.233C778.181 636.067 776.726 639.145 773.822 642.44L771.256 640.178C773.837 637.25 774.924 634.753 775.242 632.709C775.557 630.674 775.135 628.933 774.428 627.465C773.71 625.976 772.702 624.778 771.864 623.875C771.725 623.726 771.572 623.564 771.421 623.406C771.174 623.146 770.934 622.894 770.776 622.712C770.659 622.577 770.431 622.309 770.281 621.99C770.209 621.836 770.05 621.46 770.102 620.974Z" fill="#E9ECE0" fill-opacity="0.33"/>
<path fill-rule="evenodd" clip-rule="evenodd" d="M761.267 624.945C761.075 624.204 753.52 631.784 746.724 621.614L761.267 624.945Z" fill="#E9ECE0" fill-opacity="0.33"/>
<path fill-rule="evenodd" clip-rule="evenodd" d="M761.43 624.368C761.636 624.447 761.769 624.617 761.817 624.803L760.714 625.088C760.75 625.228 760.856 625.368 761.023 625.432C761.143 625.478 761.237 625.46 761.247 625.458C761.247 625.458 761.247 625.458 761.248 625.458C761.251 625.458 761.252 625.457 761.252 625.457C761.252 625.458 761.214 625.47 761.115 625.518C760.984 625.582 760.833 625.666 760.643 625.77C760.499 625.849 760.332 625.941 760.135 626.045C759.276 626.502 758.043 627.094 756.578 627.375C755.107 627.658 753.398 627.629 751.606 626.843C749.818 626.058 747.993 624.541 746.249 621.931L747.196 621.298C748.85 623.773 750.519 625.122 752.064 625.8C753.606 626.476 755.073 626.505 756.363 626.257C757.661 626.007 758.777 625.478 759.601 625.04C759.756 624.957 759.91 624.873 760.054 624.794C760.271 624.675 760.466 624.568 760.614 624.495C760.733 624.437 760.89 624.366 761.043 624.338C761.117 624.324 761.267 624.306 761.43 624.368Z" fill="#E9ECE0" fill-opacity="0.33"/>
<path fill-rule="evenodd" clip-rule="evenodd" d="M723.423 658.149C724.443 656.703 699.351 655.641 707.128 628.457L723.423 658.149Z" fill="#E9ECE0" fill-opacity="0.33"/>
<path fill-rule="evenodd" clip-rule="evenodd" d="M724.47 657.621C724.633 658.047 724.538 658.473 724.321 658.781L722.528 657.516C722.375 657.734 722.293 658.07 722.421 658.405C722.471 658.536 722.538 658.624 722.581 658.671C722.623 658.72 722.658 658.747 722.669 658.755C722.67 658.756 722.669 658.755 722.665 658.753C722.644 658.742 722.546 658.689 722.305 658.596C721.991 658.476 721.609 658.348 721.138 658.192C720.768 658.069 720.343 657.928 719.854 657.757C717.731 657.017 714.809 655.855 712.089 653.834C709.356 651.803 706.818 648.897 705.492 644.69C704.169 640.49 704.088 635.101 706.075 628.154L708.184 628.758C706.283 635.403 706.422 640.34 707.585 644.031C708.745 647.713 710.958 650.26 713.398 652.073C715.851 653.897 718.525 654.971 720.577 655.686C720.979 655.826 721.377 655.959 721.748 656.083C722.276 656.259 722.747 656.416 723.092 656.549C723.377 656.658 723.72 656.802 723.98 656.996C724.105 657.089 724.343 657.288 724.47 657.621Z" fill="#E9ECE0" fill-opacity="0.33"/>
<path fill-rule="evenodd" clip-rule="evenodd" d="M770.243 616.547C772.271 616.627 801.439 609.194 789.836 582.197L770.243 616.547Z" fill="#E9ECE0" fill-opacity="0.33"/>
<path fill-rule="evenodd" clip-rule="evenodd" d="M771.272 618.446C770.943 618.504 770.525 618.565 770.165 618.551L770.323 614.548C770.29 614.547 770.272 614.547 770.272 614.547C770.272 614.545 770.362 614.539 770.579 614.501C770.84 614.455 771.201 614.378 771.647 614.264C772.537 614.036 773.721 613.671 775.065 613.147C777.764 612.094 781.022 610.43 783.849 608.008C786.666 605.594 789.005 602.473 790.014 598.477C791.02 594.493 790.76 589.42 787.997 582.991L791.677 581.409C794.715 588.478 795.16 594.458 793.898 599.458C792.638 604.446 789.734 608.24 786.455 611.049C783.187 613.85 779.498 615.717 776.521 616.879C775.026 617.462 773.689 617.876 772.641 618.144C772.118 618.278 771.656 618.379 771.272 618.446Z" fill="#E9ECE0" fill-opacity="0.33"/>
<path fill-rule="evenodd" clip-rule="evenodd" d="M770.019 618.751C770.728 619.87 788.29 632.549 806.914 615.594L770.019 618.751Z" fill="#E9ECE0" fill-opacity="0.33"/>
<path fill-rule="evenodd" clip-rule="evenodd" d="M769.801 619.705C769.631 619.557 769.436 619.372 769.32 619.19L770.715 618.305C770.709 618.296 770.706 618.29 770.706 618.29C770.708 618.289 770.753 618.343 770.888 618.46C771.036 618.59 771.249 618.759 771.526 618.958C772.078 619.356 772.863 619.857 773.85 620.381C775.826 621.429 778.587 622.556 781.89 623.133C788.462 624.282 797.247 623.274 806.358 614.98L807.47 616.202C797.956 624.862 788.647 625.992 781.605 624.761C778.101 624.148 775.175 622.955 773.076 621.84C772.026 621.283 771.177 620.743 770.56 620.299C770.253 620.078 769.997 619.876 769.801 619.705Z" fill="#E9ECE0" fill-opacity="0.33"/>
<path fill-rule="evenodd" clip-rule="evenodd" d="M763.869 626.345C764.949 625.577 776.703 607.385 758.809 589.661L763.869 626.345Z" fill="#E9ECE0" fill-opacity="0.33"/>
<path fill-rule="evenodd" clip-rule="evenodd" d="M765.568 627.088C765.43 627.263 765.183 627.568 764.885 627.779L762.85 624.914C762.759 624.979 762.71 625.03 762.71 625.03C762.71 625.03 762.74 624.998 762.803 624.918C762.903 624.791 763.044 624.594 763.217 624.326C763.562 623.791 764.001 623.018 764.457 622.041C765.368 620.086 766.317 617.365 766.709 614.15C767.485 607.794 766.107 599.365 757.571 590.911L760.044 588.414C769.403 597.684 771.096 607.213 770.198 614.576C769.753 618.221 768.679 621.3 767.642 623.526C767.123 624.639 766.607 625.552 766.172 626.228C765.955 626.565 765.75 626.855 765.568 627.088Z" fill="#E9ECE0" fill-opacity="0.33"/>
<path fill-rule="evenodd" clip-rule="evenodd" d="M770.243 616.549C772.27 616.63 773.12 611.483 789.835 582.199L770.243 616.549Z" fill="#E9ECE0" fill-opacity="0.33"/>
<path fill-rule="evenodd" clip-rule="evenodd" d="M773.472 616.453C772.817 617.425 771.828 618.616 770.165 618.55L770.324 614.548C770.008 614.535 769.817 614.666 769.773 614.701C769.807 614.669 769.93 614.542 770.15 614.214C770.696 613.405 771.453 611.979 772.755 609.465C772.925 609.135 773.105 608.788 773.292 608.425C775.919 603.341 780.279 594.905 788.098 581.206L791.577 583.192C783.799 596.819 779.468 605.199 776.85 610.265C776.662 610.629 776.483 610.976 776.312 611.306C775.058 613.729 774.178 615.405 773.472 616.453ZM769.764 614.709C769.764 614.709 769.767 614.706 769.773 614.701C769.767 614.707 769.764 614.71 769.764 614.709Z" fill="#E9ECE0" fill-opacity="0.33"/>
<path fill-rule="evenodd" clip-rule="evenodd" d="M770.019 618.751C770.728 619.87 775.455 618.278 806.914 615.594L770.019 618.751Z" fill="#E9ECE0" fill-opacity="0.33"/>
<path fill-rule="evenodd" clip-rule="evenodd" d="M770.335 619.852C769.951 619.765 769.567 619.582 769.321 619.193L770.716 618.308C770.674 618.242 770.627 618.22 770.627 618.22C770.628 618.22 770.647 618.229 770.699 618.24C770.851 618.275 771.131 618.297 771.632 618.281C772.625 618.249 774.225 618.076 776.841 617.778C777.189 617.738 777.554 617.696 777.937 617.652C783.286 617.04 792.154 616.024 806.844 614.77L806.985 616.417C792.318 617.668 783.468 618.682 778.124 619.294C777.741 619.338 777.376 619.379 777.029 619.419C774.442 619.714 772.762 619.897 771.686 619.932C771.152 619.95 770.7 619.934 770.335 619.852Z" fill="#E9ECE0" fill-opacity="0.33"/>
<path fill-rule="evenodd" clip-rule="evenodd" d="M763.868 626.342C764.949 625.575 763.116 620.937 758.808 589.658L763.868 626.342Z" fill="#E9ECE0" fill-opacity="0.33"/>
<path fill-rule="evenodd" clip-rule="evenodd" d="M765.869 626.128C765.778 626.658 765.531 627.318 764.885 627.777L762.851 624.911C762.475 625.178 762.407 625.525 762.406 625.533C762.406 625.534 762.408 625.52 762.41 625.489C762.412 625.457 762.414 625.412 762.414 625.352C762.415 625.229 762.407 625.061 762.388 624.835C762.308 623.892 762.062 622.347 761.625 619.733C761.568 619.388 761.507 619.026 761.444 618.645C760.555 613.332 759.08 604.519 757.067 589.9L760.549 589.42C762.555 603.99 764.023 612.765 764.91 618.067C764.973 618.447 765.034 618.809 765.092 619.155C765.517 621.705 765.795 623.419 765.89 624.539C765.936 625.089 765.953 625.638 765.869 626.128Z" fill="#E9ECE0" fill-opacity="0.33"/>
<path fill-rule="evenodd" clip-rule="evenodd" d="M770.243 616.549C791.376 599.383 785.695 600.29 789.835 582.199L770.243 616.549Z" fill="#E9ECE0" fill-opacity="0.33"/>
<path fill-rule="evenodd" clip-rule="evenodd" d="M788.262 600.49C786.298 605.212 782.005 609.576 771.507 618.103L768.981 614.994C779.617 606.355 783.05 602.589 784.563 598.951C785.322 597.129 785.635 595.25 786.017 592.508C786.049 592.273 786.083 592.033 786.116 591.788C786.474 589.193 786.918 585.973 787.884 581.752L791.789 582.646C790.864 586.69 790.441 589.754 790.084 592.342C790.05 592.585 790.017 592.825 789.984 593.06C789.607 595.772 789.243 598.132 788.262 600.49Z" fill="#E9ECE0" fill-opacity="0.33"/>
<path fill-rule="evenodd" clip-rule="evenodd" d="M770.243 616.549C779.35 604.885 767.333 595.545 789.835 582.199L770.243 616.549Z" fill="#E9ECE0" fill-opacity="0.33"/>
<path fill-rule="evenodd" clip-rule="evenodd" d="M776.566 603.811C776.151 608.006 775.673 612.851 771.821 617.783L768.664 615.318C771.739 611.38 772.082 608.002 772.485 604.044C772.625 602.669 772.772 601.225 773.042 599.664C773.555 596.708 774.542 593.61 776.954 590.363C779.341 587.15 783.042 583.901 788.814 580.478L790.857 583.923C785.378 587.173 782.143 590.096 780.169 592.752C778.221 595.375 777.424 597.843 776.989 600.348C776.8 601.439 776.686 602.598 776.566 603.811Z" fill="#E9ECE0" fill-opacity="0.33"/>
<path fill-rule="evenodd" clip-rule="evenodd" d="M770.243 616.549C772.27 616.63 761.325 584.025 789.835 582.199L770.243 616.549Z" fill="#E9ECE0" fill-opacity="0.33"/>
<path fill-rule="evenodd" clip-rule="evenodd" d="M772.064 617.575C771.714 618.099 771.054 618.586 770.165 618.551L770.324 614.548C769.562 614.518 769.002 614.946 768.732 615.351C768.622 615.516 768.569 615.657 768.545 615.731C768.52 615.809 768.511 615.862 768.508 615.875C768.508 615.879 768.507 615.881 768.507 615.881C768.507 615.881 768.512 615.84 768.513 615.742C768.514 615.63 768.51 615.479 768.499 615.283C768.468 614.729 768.396 614.025 768.306 613.144C768.261 612.698 768.21 612.206 768.158 611.665C767.86 608.559 767.553 604.249 768.123 599.833C768.694 595.418 770.161 590.725 773.552 587C776.982 583.232 782.169 580.684 789.709 580.201L789.965 584.198C783.25 584.628 779.114 586.84 776.514 589.696C773.876 592.595 772.607 596.391 772.096 600.346C771.586 604.298 771.853 608.239 772.146 611.281C772.189 611.735 772.235 612.18 772.278 612.607C772.375 613.556 772.463 614.411 772.499 615.06C772.524 615.512 772.538 616.05 772.462 616.518C772.427 616.735 772.341 617.16 772.064 617.575Z" fill="#E9ECE0" fill-opacity="0.33"/>
<path fill-rule="evenodd" clip-rule="evenodd" d="M770.019 618.752C770.728 619.872 794.401 601.039 806.915 615.595L770.019 618.752Z" fill="#E9ECE0" fill-opacity="0.33"/>
<path fill-rule="evenodd" clip-rule="evenodd" d="M770.181 619.623C770.021 619.629 769.584 619.607 769.321 619.192L770.716 618.307C770.497 617.962 770.149 617.971 770.121 617.972C770.096 617.973 770.082 617.976 770.082 617.975C770.082 617.975 770.102 617.971 770.147 617.956C770.3 617.904 770.55 617.791 770.917 617.603C771.406 617.352 772.022 617.011 772.761 616.601C773.12 616.402 773.508 616.186 773.925 615.957C776.449 614.571 779.911 612.752 783.758 611.355C791.395 608.583 800.923 607.356 807.541 615.054L806.288 616.131C800.392 609.272 791.827 610.184 784.322 612.908C780.598 614.261 777.226 616.03 774.721 617.405C774.326 617.622 773.949 617.831 773.595 618.027C772.839 618.447 772.184 618.81 771.671 619.073C771.298 619.265 770.955 619.427 770.677 619.521C770.545 619.566 770.367 619.616 770.181 619.623Z" fill="#E9ECE0" fill-opacity="0.33"/>
<path fill-rule="evenodd" clip-rule="evenodd" d="M763.867 626.344C764.948 625.577 744.917 602.91 758.807 589.661L763.867 626.344Z" fill="#E9ECE0" fill-opacity="0.33"/>
<path fill-rule="evenodd" clip-rule="evenodd" d="M765.657 626.057C765.68 626.321 765.696 627.202 764.883 627.779L762.849 624.913C762.103 625.443 762.145 626.232 762.156 626.365C762.167 626.485 762.191 626.571 762.202 626.603C762.202 626.602 762.201 626.602 762.201 626.602C762.169 626.521 762.074 626.328 761.869 625.975C761.601 625.513 761.241 624.936 760.799 624.228C760.58 623.878 760.341 623.495 760.083 623.078C758.563 620.619 756.536 617.207 754.914 613.369C751.719 605.813 749.796 595.827 757.593 588.391L760.018 590.934C753.925 596.746 755.072 604.719 758.151 612.001C759.665 615.582 761.575 618.809 763.072 621.23C763.302 621.601 763.525 621.959 763.738 622.299C764.202 623.042 764.611 623.699 764.909 624.211C765.121 624.578 765.332 624.963 765.467 625.305C765.53 625.462 765.629 625.736 765.657 626.057ZM762.207 626.616C762.206 626.616 762.205 626.612 762.202 626.603C762.205 626.612 762.207 626.617 762.207 626.616Z" fill="#E9ECE0" fill-opacity="0.33"/>
<path fill-rule="evenodd" clip-rule="evenodd" d="M731.019 758.809C731.028 760.152 736.249 643.894 769.26 628.309L731.019 758.809Z" fill="#E9ECE0" fill-opacity="0.33"/>
<path fill-rule="evenodd" clip-rule="evenodd" d="M728.016 758.918L728.015 758.832L734.024 758.792L734.022 758.719C734.021 758.68 734.012 758.557 734.004 758.475C733.962 758.213 732.331 756.12 729.921 756.027C728.826 756.771 728.107 758.086 728.069 758.26C728.057 758.326 728.042 758.425 728.038 758.458L728.031 758.521L728.029 758.548L728.028 758.557C728.028 758.557 728.029 758.547 728.03 758.519L728.037 758.415L728.088 757.559C728.135 756.773 728.208 755.577 728.313 754.027C728.522 750.926 728.858 746.41 729.364 740.905C730.375 729.9 732.069 714.919 734.804 699.389C737.535 683.883 741.325 667.708 746.562 654.368C751.723 641.224 758.593 630.025 767.977 625.595L770.542 631.029C763.421 634.391 757.259 643.569 752.156 656.565C747.13 669.365 743.424 685.092 740.722 700.431C738.025 715.746 736.349 730.551 735.348 741.454C734.847 746.903 734.515 751.37 734.309 754.432C734.205 755.962 734.133 757.142 734.087 757.918L734.035 758.785C734.03 758.871 734.024 758.959 734.019 759.022L734.012 759.101L734.004 759.178C733.999 759.214 733.984 759.316 733.972 759.384C733.933 759.56 733.214 760.876 732.118 761.62C729.708 761.527 728.078 759.433 728.035 759.17C728.031 759.135 728.028 759.092 728.025 759.051C728.021 758.995 728.017 758.942 728.016 758.918Z" fill="#E9ECE0" fill-opacity="0.33"/>
<path fill-rule="evenodd" clip-rule="evenodd" d="M731.018 758.813C731.027 760.156 738.977 672.696 721.102 655.761L731.018 758.813Z" fill="#E9ECE0" fill-opacity="0.33"/>
<path fill-rule="evenodd" clip-rule="evenodd" d="M728.031 759.146C728.014 758.986 728.013 758.857 728.013 758.832L734.022 758.793L734.022 758.791C734.022 758.769 734.022 758.651 734.005 758.502C733.993 758.4 733.932 758.093 733.874 757.893C733.64 757.359 731.914 755.96 730.244 755.925C729.304 756.361 728.397 757.361 728.257 757.647C728.205 757.776 728.138 757.98 728.117 758.052C728.086 758.169 728.07 758.261 728.066 758.281L728.066 758.283C728.059 758.323 728.054 758.354 728.053 758.367C728.053 758.361 728.055 758.351 728.056 758.335C728.067 758.241 728.086 758.058 728.113 757.778C728.166 757.226 728.241 756.363 728.332 755.225C728.514 752.952 728.754 749.603 728.986 745.489C729.451 737.258 729.884 725.992 729.762 714.172C729.64 702.332 728.962 690.03 727.23 679.692C726.365 674.523 725.249 669.924 723.845 666.155C722.427 662.348 720.798 659.611 719.036 657.942L723.169 653.58C725.876 656.144 727.908 659.845 729.476 664.057C731.059 668.307 732.255 673.309 733.157 678.7C734.962 689.481 735.647 702.135 735.771 714.11C735.895 726.103 735.455 737.509 734.986 745.828C734.751 749.989 734.507 753.385 734.322 755.704C734.23 756.862 734.151 757.757 734.095 758.347C734.068 758.638 734.044 758.872 734.025 759.031L734.025 759.033C734.019 759.087 734.004 759.216 733.982 759.339L733.982 759.339C733.976 759.368 733.958 759.47 733.925 759.594C733.904 759.67 733.836 759.876 733.784 760.006C733.642 760.293 732.735 761.294 731.794 761.731C730.124 761.696 728.397 760.296 728.163 759.761C728.105 759.559 728.044 759.251 728.031 759.146Z" fill="#E9ECE0" fill-opacity="0.33"/>
<path fill-rule="evenodd" clip-rule="evenodd" d="M830.686 601.997C830.694 603.339 834.65 520.781 811.019 499.009L830.686 601.997Z" fill="#E9ECE0" fill-opacity="0.33"/>
<path fill-rule="evenodd" clip-rule="evenodd" d="M827.685 602.18C827.681 602.1 827.68 602.036 827.68 602.018L833.689 601.978L833.689 601.977C833.689 601.967 833.689 601.911 833.685 601.84C833.682 601.794 833.669 601.66 833.657 601.573C833.617 601.356 833.047 600.157 832.211 599.425C829.971 599.096 827.944 600.784 827.803 601.168C827.77 601.291 827.73 601.475 827.72 601.535C827.706 601.621 827.699 601.689 827.698 601.7L827.698 601.701C827.695 601.729 827.694 601.748 827.694 601.746C827.694 601.744 827.695 601.731 827.697 601.703C827.702 601.608 827.712 601.431 827.723 601.169C827.746 600.65 827.777 599.837 827.808 598.764C827.87 596.619 827.932 593.448 827.934 589.533C827.937 581.699 827.695 570.913 826.722 559.426C825.748 547.921 824.048 535.803 821.163 525.269C818.251 514.635 814.251 506.074 808.982 501.22L813.054 496.8C819.6 502.832 823.967 512.756 826.959 523.682C829.979 534.71 831.72 547.23 832.71 558.919C833.701 570.624 833.946 581.587 833.943 589.535C833.942 593.512 833.878 596.74 833.815 598.938C833.783 600.037 833.751 600.881 833.726 601.434C833.714 601.709 833.704 601.921 833.695 602.062C833.692 602.113 833.686 602.211 833.677 602.299L833.677 602.3C833.675 602.319 833.668 602.395 833.653 602.487C833.643 602.549 833.603 602.735 833.569 602.859C833.427 603.244 831.4 604.933 829.16 604.603C828.324 603.871 827.754 602.671 827.713 602.453C827.701 602.365 827.688 602.229 827.685 602.18Z" fill="#E9ECE0" fill-opacity="0.33"/>
<path fill-rule="evenodd" clip-rule="evenodd" d="M651.928 824.233C651.937 825.575 665.225 807.415 678.802 771.18L651.928 824.233Z" fill="#E9ECE0" fill-opacity="0.33"/>
<path fill-rule="evenodd" clip-rule="evenodd" d="M649.33 825.777C648.958 825.128 648.924 824.521 648.922 824.253L654.931 824.214C654.93 823.988 654.902 823.413 654.543 822.788C654.099 822.012 653.319 821.468 652.415 821.332C651.686 821.221 651.128 821.414 650.913 821.499C650.658 821.599 650.481 821.712 650.402 821.765C650.284 821.845 650.208 821.912 650.183 821.935C650.197 821.921 650.23 821.887 650.283 821.828C650.559 821.517 651.055 820.887 651.76 819.881C653.15 817.9 655.184 814.71 657.658 810.323C662.601 801.557 669.252 788.1 675.986 770.126L681.614 772.235C674.771 790.497 667.989 804.237 662.892 813.275C660.347 817.789 658.208 821.152 656.68 823.332C655.927 824.405 655.276 825.256 654.771 825.823C654.568 826.051 654.202 826.451 653.759 826.749C653.63 826.836 653.409 826.974 653.116 827.089C652.862 827.19 652.272 827.387 651.517 827.273C650.588 827.133 649.788 826.575 649.33 825.777ZM650.174 821.944C650.174 821.944 650.177 821.941 650.183 821.935C650.177 821.941 650.174 821.944 650.174 821.944Z" fill="#E9ECE0" fill-opacity="0.33"/>
<path fill-rule="evenodd" clip-rule="evenodd" d="M860.015 313.431C803.883 136.341 637.639 8.52932 442.129 9.80325C201.702 11.3698 8.06904 207.543 9.63564 447.969C11.2022 688.395 207.375 882.029 447.802 880.462C490.734 880.182 532.169 873.697 571.266 861.866L573.006 867.618C533.364 879.613 491.356 886.187 447.841 886.471C204.096 888.059 5.21483 691.753 3.62661 448.008C2.03839 204.264 198.344 5.3824 442.089 3.79418C640.308 2.50261 808.838 132.087 865.743 311.615L860.015 313.431Z" fill="#E9ECE0" fill-opacity="0.33"/>
</svg>
