<svg width="231" height="428" viewBox="0 0 231 428" fill="none" xmlns="http://www.w3.org/2000/svg">
<path fill-rule="evenodd" clip-rule="evenodd" d="M254.161 57.5063C245.481 291.599 125.192 419.27 6.32806 492.061L3.19833 486.915C120.759 414.923 239.569 288.91 248.158 57.2824L254.161 57.5063Z" fill="#E9ECE0" fill-opacity="0.4"/>
<path fill-rule="evenodd" clip-rule="evenodd" d="M242.511 64.9234C246.596 64.26 249.805 66.0813 250.404 66.4521L248.576 69.4219C248.235 69.2106 245.919 67.9057 243.067 68.3689C240.388 68.8039 236.614 70.9143 233.468 78.7646L230.24 77.4627C233.678 68.884 238.252 65.615 242.511 64.9234Z" fill="#E9ECE0" fill-opacity="0.4"/>
<path fill-rule="evenodd" clip-rule="evenodd" d="M249.489 67.9399C248.549 67.3578 246.77 69.578 231.012 79.0264Z" fill="#E9ECE0" fill-opacity="0.4"/>
<path fill-rule="evenodd" clip-rule="evenodd" d="M247.643 66.5364C248.229 66.242 249.314 65.7792 250.403 66.4537L248.576 69.424C248.957 69.66 249.297 69.5978 249.384 69.5742C249.355 69.5849 249.296 69.6094 249.201 69.6573C248.768 69.875 248.064 70.3245 246.761 71.1807C246.592 71.2919 246.414 71.4089 246.227 71.5316C243.62 73.247 239.288 76.0972 231.905 80.5238L230.12 77.5279C237.441 73.1381 241.727 70.3184 244.321 68.6118C244.507 68.4891 244.685 68.3721 244.855 68.2608C246.084 67.4535 246.986 66.8665 247.643 66.5364ZM249.406 69.5672C249.406 69.5677 249.398 69.5705 249.384 69.5742C249.399 69.5687 249.406 69.5668 249.406 69.5672Z" fill="#E9ECE0" fill-opacity="0.4"/>
<path fill-rule="evenodd" clip-rule="evenodd" d="M249.489 67.9383C248.549 67.3561 246.877 82.8538 229.642 79.0334Z" fill="#E9ECE0" fill-opacity="0.4"/>
<path fill-rule="evenodd" clip-rule="evenodd" d="M248.771 66.3015C249.308 66.0932 249.909 66.1459 250.404 66.4526L248.576 69.4224C249.012 69.6927 249.553 69.7405 250.027 69.5564C250.39 69.4154 250.585 69.1883 250.629 69.1363C250.68 69.0763 250.705 69.0331 250.705 69.0332C250.705 69.0332 250.686 69.0656 250.648 69.1474C250.56 69.334 250.471 69.5511 250.352 69.8408C250.262 70.0616 250.154 70.3245 250.016 70.6481C249.435 72.0138 248.524 73.9508 247.028 75.7996C245.521 77.6622 243.412 79.4445 240.455 80.4775C237.5 81.5098 233.829 81.7484 229.268 80.7373L230.019 77.3292C234.075 78.2284 237.076 77.9624 239.311 77.1815C241.544 76.4013 243.144 75.0618 244.326 73.6001C245.52 72.1245 246.281 70.5349 246.816 69.2777C246.903 69.0725 246.993 68.8543 247.082 68.6408C247.235 68.2681 247.383 67.9098 247.5 67.6603C247.587 67.4761 247.744 67.1531 247.974 66.8801C248.086 66.7474 248.346 66.4668 248.771 66.3015Z" fill="#E9ECE0" fill-opacity="0.4"/>
<path fill-rule="evenodd" clip-rule="evenodd" d="M178.767 372.554C180.975 374.483 220.503 392.546 231.86 351.566Z" fill="#E9ECE0" fill-opacity="0.4"/>
<path fill-rule="evenodd" clip-rule="evenodd" d="M178.851 374.453C178.432 374.222 178.019 373.97 177.744 373.73L179.787 371.378C179.784 371.376 179.783 371.375 179.783 371.375C179.783 371.374 179.82 371.404 179.916 371.465C180.02 371.532 180.164 371.618 180.35 371.72C180.722 371.925 181.229 372.181 181.858 372.467C183.115 373.04 184.826 373.721 186.863 374.364C190.946 375.654 196.269 376.768 201.832 376.593C207.385 376.417 213.125 374.96 218.146 371.161C223.159 367.367 227.594 361.133 230.361 351.149L233.356 351.984C230.445 362.49 225.68 369.365 220.018 373.65C214.364 377.929 207.955 379.52 201.93 379.71C195.916 379.9 190.233 378.698 185.929 377.339C183.772 376.658 181.944 375.932 180.572 375.307C179.887 374.995 179.307 374.704 178.851 374.453Z" fill="#E9ECE0" fill-opacity="0.4"/>
<path fill-rule="evenodd" clip-rule="evenodd" d="M250.406 68.4157C250.767 66.5317 244.846 35.7437 208.506 35.1465Z" fill="#E9ECE0" fill-opacity="0.4"/>
<path fill-rule="evenodd" clip-rule="evenodd" d="M251.024 67.6738C251.056 68.001 251.069 68.3153 251.028 68.5335L249.784 68.2941C249.784 68.295 249.784 68.2947 249.784 68.2931C249.785 68.2853 249.789 68.2465 249.787 68.1641C249.786 68.0731 249.779 67.9515 249.764 67.7988C249.734 67.4939 249.674 67.0865 249.578 66.5892C249.385 65.5956 249.049 64.2639 248.522 62.7094C247.467 59.6 245.653 55.6184 242.712 51.6777C236.843 43.8173 226.457 36.0754 208.495 35.7802L208.516 34.51C226.895 34.812 237.638 42.7625 243.725 50.9161C246.761 54.9825 248.631 59.0884 249.721 62.3001C250.265 63.9062 250.617 65.2936 250.821 66.3466C250.923 66.8726 250.989 67.3204 251.024 67.6738Z" fill="#E9ECE0" fill-opacity="0.4"/>
<path fill-rule="evenodd" clip-rule="evenodd" d="M198.062 148.891C195.201 148.265 157.178 127.211 183.192 93.6167Z" fill="#E9ECE0" fill-opacity="0.4"/>
<path fill-rule="evenodd" clip-rule="evenodd" d="M198.465 146.99C198.484 146.997 198.488 146.998 198.476 146.996L197.651 150.788C197.252 150.7 196.772 150.502 196.336 150.302C195.852 150.08 195.265 149.782 194.6 149.412C193.269 148.673 191.585 147.626 189.741 146.287C186.064 143.615 181.679 139.727 178.213 134.725C174.739 129.713 172.154 123.528 172.206 116.324C172.259 109.109 174.956 101.092 181.666 92.4266L184.72 94.8079C178.423 102.94 176.119 110.152 176.074 116.352C176.028 122.564 178.25 127.981 181.388 132.509C184.534 137.049 188.565 140.641 192.009 143.143C193.726 144.391 195.279 145.354 196.473 146.017C197.071 146.349 197.568 146.6 197.943 146.772C198.249 146.912 198.413 146.971 198.465 146.99Z" fill="#E9ECE0" fill-opacity="0.4"/>
<path fill-rule="evenodd" clip-rule="evenodd" d="M178.767 372.552C180.975 374.482 186.584 369.446 231.861 351.566Z" fill="#E9ECE0" fill-opacity="0.4"/>
<path fill-rule="evenodd" clip-rule="evenodd" d="M182.088 374.089C180.506 374.582 178.975 374.8 177.746 373.726L179.788 371.376C179.785 371.374 179.779 371.371 179.772 371.368C179.771 371.367 179.77 371.367 179.769 371.367C179.768 371.367 179.795 371.376 179.867 371.377C180.065 371.383 180.45 371.334 181.167 371.111C182.604 370.664 184.829 369.702 188.535 368.06C189.025 367.842 189.54 367.614 190.08 367.374C197.624 364.024 210.137 358.467 231.291 350.113L232.43 353.015C211.335 361.345 198.868 366.882 191.337 370.226C190.797 370.466 190.282 370.695 189.792 370.912C186.159 372.523 183.738 373.576 182.088 374.089Z" fill="#E9ECE0" fill-opacity="0.4"/>
<path fill-rule="evenodd" clip-rule="evenodd" d="M59.3755 418.877C61.9303 418.098 61.3861 408.028 73.1106 345.273Z" fill="#E9ECE0" fill-opacity="0.4"/>
<path fill-rule="evenodd" clip-rule="evenodd" d="M61.9433 418.993C61.547 419.735 60.932 420.455 59.945 420.756L58.8079 416.998C58.5579 417.074 58.4498 417.217 58.4488 417.217C58.4485 417.216 58.4647 417.194 58.4953 417.136C58.6259 416.892 58.8137 416.39 59.0504 415.41C59.5186 413.472 60.0431 410.275 60.8732 405.009C60.9836 404.309 61.0991 403.575 61.2203 402.804C62.9111 392.048 65.7142 374.217 71.1896 344.912L75.0355 345.636C69.5703 374.885 66.774 392.674 65.0851 403.417C64.9639 404.188 64.8484 404.923 64.738 405.623C63.9191 410.817 63.3678 414.205 62.8531 416.336C62.5983 417.39 62.3179 418.292 61.9433 418.993Z" fill="#E9ECE0" fill-opacity="0.4"/>
<path fill-rule="evenodd" clip-rule="evenodd" d="M250.405 68.4157C250.766 66.5317 244.225 63.521 208.505 35.1464Z" fill="#E9ECE0" fill-opacity="0.4"/>
<path fill-rule="evenodd" clip-rule="evenodd" d="M250.698 67.2525C250.967 67.6524 251.114 68.0763 251.027 68.5343L249.783 68.295L249.783 68.2939C249.787 68.2779 249.803 68.194 249.648 67.9636C249.481 67.715 249.166 67.3754 248.615 66.8884C247.518 65.919 245.643 64.4976 242.606 62.2231C242.201 61.9199 241.776 61.6018 241.33 61.2681C235.104 56.6093 224.784 48.888 208.112 35.644L208.898 34.648C225.556 47.8807 235.864 55.5936 242.088 60.25C242.534 60.5838 242.959 60.9018 243.364 61.2051C246.382 63.4656 248.307 64.9234 249.452 65.9351C250.021 66.4387 250.437 66.865 250.698 67.2525Z" fill="#E9ECE0" fill-opacity="0.4"/>
<path fill-rule="evenodd" clip-rule="evenodd" d="M198.062 148.893C195.202 148.266 195.886 140.745 183.194 93.6167Z" fill="#E9ECE0" fill-opacity="0.4"/>
<path fill-rule="evenodd" clip-rule="evenodd" d="M198.641 147.068C198.61 147.044 198.555 147.012 198.474 146.994L197.649 150.786C195.843 150.391 195.046 148.838 194.492 147.261C193.91 145.6 193.304 142.996 192.429 139.12C192.31 138.595 192.186 138.043 192.056 137.465C190.241 129.407 187.238 116.07 181.326 94.1212L185.059 93.1083C190.991 115.135 194.008 128.531 195.827 136.607C195.957 137.186 196.081 137.737 196.2 138.262C197.097 142.235 197.65 144.574 198.14 145.972C198.398 146.707 198.574 146.985 198.641 147.068ZM198.67 147.098C198.67 147.1 198.66 147.092 198.641 147.068C198.661 147.083 198.671 147.095 198.67 147.098Z" fill="#E9ECE0" fill-opacity="0.4"/>
<path fill-rule="evenodd" clip-rule="evenodd" d="M178.767 372.552C218.058 372.348 210.847 368.22 231.861 351.566Z" fill="#E9ECE0" fill-opacity="0.4"/>
<path fill-rule="evenodd" clip-rule="evenodd" d="M212.912 369.599C206.776 372.957 198.351 374.012 178.774 374.114L178.758 370.995C198.472 370.893 206.087 369.782 211.422 366.861C214.092 365.4 216.257 363.45 219.158 360.709C219.407 360.474 219.661 360.234 219.921 359.988C222.668 357.386 226.04 354.193 230.896 350.345L232.824 352.792C228.078 356.552 224.795 359.661 222.052 362.259C221.793 362.504 221.54 362.744 221.29 362.98C218.406 365.704 215.977 367.921 212.912 369.599Z" fill="#E9ECE0" fill-opacity="0.4"/>
<path fill-rule="evenodd" clip-rule="evenodd" d="M59.3754 418.877C80.3874 376.888 73.5832 381.203 73.111 345.274Z" fill="#E9ECE0" fill-opacity="0.4"/>
<path fill-rule="evenodd" clip-rule="evenodd" d="M76.2485 380.001C75.3412 389.071 71.6186 398.792 61.1244 419.761L57.6276 417.998C68.1474 396.978 71.5293 387.862 72.355 379.609C72.7693 375.468 72.5459 371.483 72.1691 366.169C72.1368 365.712 72.1033 365.246 72.0692 364.771C71.7072 359.729 71.2651 353.57 71.1564 345.302L75.0692 345.25C75.1763 353.399 75.611 359.455 75.9725 364.492C76.0065 364.967 76.04 365.433 76.0724 365.89C76.4477 371.184 76.7007 375.482 76.2485 380.001Z" fill="#E9ECE0" fill-opacity="0.4"/>
<path fill-rule="evenodd" clip-rule="evenodd" d="M198.062 148.893C174.798 117.132 182.399 120.475 183.193 93.6167Z" fill="#E9ECE0" fill-opacity="0.4"/>
<path fill-rule="evenodd" clip-rule="evenodd" d="M183.52 119.145C184.35 125.073 187.937 131.792 199.621 147.741L196.505 150.04C184.922 134.229 180.678 126.739 179.691 119.685C179.197 116.161 179.53 112.837 179.989 108.892C180.029 108.55 180.07 108.202 180.112 107.848C180.554 104.09 181.082 99.6057 181.26 93.5581L185.126 93.673C184.942 99.8968 184.396 104.532 183.953 108.297C183.911 108.653 183.87 109.001 183.83 109.342C183.368 113.316 183.105 116.177 183.52 119.145Z" fill="#E9ECE0" fill-opacity="0.4"/>
<path fill-rule="evenodd" clip-rule="evenodd" d="M178.767 372.551C199.557 367.649 194.485 346.217 231.861 351.565Z" fill="#E9ECE0" fill-opacity="0.4"/>
<path fill-rule="evenodd" clip-rule="evenodd" d="M196.295 363.116C192.066 367.434 187.499 372.097 179.124 374.072L178.413 371.036C185.834 369.286 189.606 365.446 193.713 361.266C195.079 359.876 196.482 358.448 198.068 357.047C201.202 354.278 204.933 351.802 210.33 350.392C215.696 348.99 222.607 348.668 232.082 350.023L231.642 353.111C222.429 351.792 215.958 352.144 211.113 353.41C206.3 354.667 202.991 356.853 200.123 359.387C198.814 360.543 197.57 361.814 196.295 363.116Z" fill="#E9ECE0" fill-opacity="0.4"/>
<path fill-rule="evenodd" clip-rule="evenodd" d="M247.306 57.4168C245.147 36.1003 223.308 38.3775 233.424 1.88351Z" fill="#E9ECE0" fill-opacity="0.4"/>
<path fill-rule="evenodd" clip-rule="evenodd" d="M240.173 38.8362C243.892 43.598 247.887 48.714 248.753 57.2688L245.863 57.5637C245.089 49.9224 241.759 45.6449 238.153 41.0132C236.957 39.478 235.732 37.9038 234.559 36.1553C232.233 32.6887 230.276 28.6724 229.582 23.1405C228.892 17.6383 229.464 10.735 232.026 1.4924L234.825 2.2737C232.329 11.2781 231.837 17.7753 232.465 22.7762C233.088 27.7474 234.829 31.3367 236.969 34.5271C237.949 35.9879 239.048 37.3958 240.173 38.8362Z" fill="#E9ECE0" fill-opacity="0.4"/>
<path fill-rule="evenodd" clip-rule="evenodd" d="M59.3755 418.877C67.1008 392.757 49.2008 380.704 73.1106 345.273Z" fill="#E9ECE0" fill-opacity="0.4"/>
<path fill-rule="evenodd" clip-rule="evenodd" d="M62.7182 392.749C63.4925 400.733 64.3055 409.115 61.2524 419.437L57.5013 418.319C60.3174 408.798 59.6045 401.391 58.8511 393.563C58.6048 391.004 58.3542 388.401 58.2211 385.663C57.6801 374.538 59.2961 362.246 71.4934 344.174L74.733 346.377C63.0182 363.734 61.6291 375.183 62.1294 385.472C62.247 387.89 62.4808 390.301 62.7182 392.749Z" fill="#E9ECE0" fill-opacity="0.4"/>
<path fill-rule="evenodd" clip-rule="evenodd" d="M198.062 148.893C189.588 129.227 209.758 120.523 183.194 93.6167Z" fill="#E9ECE0" fill-opacity="0.4"/>
<path fill-rule="evenodd" clip-rule="evenodd" d="M198.552 130.241C197.661 136.013 196.86 141.207 199.839 148.119L196.29 149.66C192.828 141.626 193.859 135.025 194.796 129.028C195.075 127.241 195.346 125.508 195.487 123.806C195.8 120.029 195.578 116.122 193.742 111.564C191.89 106.969 188.348 101.59 181.822 94.98L184.569 92.2483C191.326 99.0917 195.224 104.89 197.327 110.109C199.444 115.365 199.69 119.908 199.341 124.128C199.161 126.29 198.852 128.298 198.552 130.241Z" fill="#E9ECE0" fill-opacity="0.4"/>
<path fill-rule="evenodd" clip-rule="evenodd" d="M178.768 372.551C180.976 374.481 198.143 327.769 231.861 351.564Z" fill="#E9ECE0" fill-opacity="0.4"/>
<path fill-rule="evenodd" clip-rule="evenodd" d="M179.486 374.081C178.974 374.243 178.299 374.211 177.746 373.728L179.789 371.376C179.374 371.014 178.866 371.007 178.551 371.107C178.42 371.148 178.337 371.201 178.307 371.223C178.31 371.22 178.313 371.217 178.317 371.213C178.436 371.106 178.666 370.838 179.036 370.32C179.52 369.642 180.102 368.741 180.811 367.644C181.16 367.104 181.54 366.516 181.954 365.884C184.414 362.127 187.898 357.091 192.421 352.733C196.942 348.377 202.596 344.605 209.41 343.535C216.268 342.457 224.063 344.154 232.755 350.288L230.966 352.839C222.799 347.075 215.804 345.687 209.891 346.616C203.934 347.552 198.836 350.876 194.575 354.983C190.314 359.088 186.985 363.881 184.552 367.596C184.176 368.171 183.816 368.728 183.475 369.255C182.738 370.397 182.091 371.397 181.564 372.136C181.187 372.664 180.789 373.178 180.397 373.532C180.211 373.7 179.9 373.95 179.486 374.081ZM178.294 371.233C178.294 371.233 178.298 371.229 178.307 371.223C178.298 371.23 178.294 371.234 178.294 371.233Z" fill="#E9ECE0" fill-opacity="0.4"/>
<path fill-rule="evenodd" clip-rule="evenodd" d="M247.304 57.4161C249.497 55.4687 205.546 32.3554 233.421 1.88406Z" fill="#E9ECE0" fill-opacity="0.4"/>
<path fill-rule="evenodd" clip-rule="evenodd" d="M248.811 56.9163C248.9 57.4184 248.787 58.0476 248.27 58.5069L246.344 56.3236C245.964 56.6612 245.898 57.1273 245.95 57.426C245.971 57.5437 246.006 57.6213 246.021 57.6504C246.018 57.6457 246.015 57.6396 246.009 57.6322C245.912 57.4905 245.67 57.2203 245.205 56.7857C244.595 56.2143 243.777 55.5163 242.783 54.6678C242.295 54.2513 241.764 53.7985 241.195 53.3067C237.8 50.3745 233.28 46.2636 229.565 41.2113C225.851 36.1603 222.865 30.0677 222.689 23.1787C222.511 16.2478 225.181 8.73669 232.353 0.897008L234.493 2.86868C227.727 10.2648 225.438 17.0697 225.593 23.1036C225.749 29.1793 228.388 34.7002 231.903 39.4799C235.417 44.2583 239.732 48.1954 243.09 51.097C243.611 51.547 244.116 51.9778 244.593 52.3851C245.625 53.2654 246.528 54.0359 247.188 54.6539C247.661 55.0971 248.111 55.553 248.403 55.9787C248.541 56.1807 248.739 56.5083 248.811 56.9163ZM246.029 57.6632C246.029 57.6632 246.026 57.6588 246.021 57.6504C246.027 57.6591 246.029 57.6633 246.029 57.6632Z" fill="#E9ECE0" fill-opacity="0.4"/>
<path fill-rule="evenodd" clip-rule="evenodd" d="M59.3744 418.88C61.9289 418.1 40.4311 360.664 75.4316 344.146L59.3744 418.88ZM59.3744 418.88C61.9289 418.1 95.8458 389.044 72.9544 343.591Z" fill="#E9ECE0" fill-opacity="0.4"/>
<path fill-rule="evenodd" clip-rule="evenodd" d="M61.3416 420.053C60.9696 420.311 60.4536 420.647 59.9577 420.799L56.7005 421.792L57.5673 417.758C57.538 417.442 57.4801 417.01 57.3874 416.445C57.2055 415.335 56.927 413.922 56.5911 412.218C56.4305 411.403 56.2568 410.522 56.0742 409.575C54.96 403.798 53.5824 395.91 53.236 387.494C52.5494 370.815 55.904 351.138 74.5808 342.324L78.2432 340.596L76.8367 347.142C86.1145 368.466 83.2968 386.149 77.5292 398.819C74.4616 405.558 70.5745 410.852 67.2818 414.52C65.635 416.355 64.1257 417.795 62.9251 418.815C62.3263 419.324 61.7904 419.74 61.3416 420.053ZM72.5497 348.028C59.4343 356.476 56.6185 372.297 57.2372 387.328C57.5468 394.848 58.7141 401.975 59.7631 407.539L72.5497 348.028ZM75.3109 354.243C81.4238 371.938 78.7326 386.504 73.8866 397.15C71.017 403.454 67.3764 408.411 64.3065 411.83C63.6871 412.52 63.0926 413.146 62.5347 413.705L75.3109 354.243Z" fill="#E9ECE0" fill-opacity="0.4"/>
<path fill-rule="evenodd" clip-rule="evenodd" d="M250.407 68.4154C250.767 66.5315 207.264 62.9073 208.506 35.1464Z" fill="#E9ECE0" fill-opacity="0.4"/>
<path fill-rule="evenodd" clip-rule="evenodd" d="M250.731 67.7565C250.857 67.8668 251.104 68.1382 251.028 68.5366L249.785 68.2973C249.76 68.4278 249.789 68.5411 249.827 68.616C249.86 68.6804 249.896 68.7111 249.897 68.7125L249.897 68.7125C249.898 68.7128 249.898 68.713 249.898 68.713C249.898 68.713 249.886 68.7035 249.856 68.6859C249.824 68.667 249.779 68.6434 249.718 68.6156C249.466 68.4998 249.057 68.3615 248.483 68.1955C247.712 67.9724 246.713 67.7182 245.524 67.4154C244.951 67.2697 244.335 67.1128 243.678 66.9428C239.662 65.9023 234.259 64.3954 228.875 62.0697C218.151 57.4368 207.234 49.425 207.874 35.1197L209.139 35.1766C208.537 48.632 218.75 56.3126 229.376 60.9029C234.668 63.1888 239.995 64.6763 243.995 65.7127C244.633 65.8779 245.239 66.0322 245.807 66.1769C247.011 66.4833 248.043 66.746 248.834 66.9748C249.413 67.1424 249.9 67.3022 250.245 67.46C250.412 67.5367 250.59 67.6325 250.731 67.7565Z" fill="#E9ECE0" fill-opacity="0.4"/>
<path fill-rule="evenodd" clip-rule="evenodd" d="M198.065 148.89C195.204 148.263 222.338 106.571 183.195 93.6147Z" fill="#E9ECE0" fill-opacity="0.4"/>
<path fill-rule="evenodd" clip-rule="evenodd" d="M199.709 148.076C199.566 147.662 199.167 147.144 198.477 146.993L197.653 150.785C196.784 150.595 196.265 149.957 196.055 149.348C195.886 148.859 195.906 148.395 195.931 148.126C195.985 147.555 196.171 146.893 196.369 146.273C196.648 145.399 197.068 144.267 197.544 142.987C197.761 142.4 197.991 141.782 198.223 141.144C199.742 136.974 201.58 131.467 202.318 125.631C203.056 119.793 202.673 113.793 199.918 108.532C197.189 103.32 191.996 98.5711 182.589 95.4576L183.801 91.772C193.966 95.1365 200.059 100.457 203.342 106.726C206.598 112.946 206.949 119.837 206.154 126.12C205.359 132.405 203.396 138.248 201.855 142.476C201.594 143.195 201.348 143.855 201.124 144.46C200.671 145.679 200.303 146.671 200.051 147.458C199.86 148.056 199.794 148.367 199.782 148.485C199.783 148.432 199.778 148.277 199.709 148.076ZM199.782 148.488C199.782 148.487 199.782 148.486 199.782 148.485Z" fill="#E9ECE0" fill-opacity="0.4"/>
<path fill-rule="evenodd" clip-rule="evenodd" d="M179.911 317.39C179.921 318.737 236.157 286.551 252.478 255.945Z" fill="#E9ECE0" fill-opacity="0.4"/>
<path fill-rule="evenodd" clip-rule="evenodd" d="M177.871 319.621C177.193 318.986 176.911 318.154 176.906 317.413L182.913 317.371C182.908 316.65 182.633 315.835 181.968 315.213C181.393 314.675 180.773 314.516 180.471 314.463C179.93 314.367 179.514 314.459 179.465 314.47L179.461 314.471C179.365 314.491 179.308 314.51 179.307 314.51C179.306 314.51 179.341 314.499 179.419 314.467C179.708 314.35 180.224 314.108 180.986 313.715C182.482 312.942 184.686 311.709 187.419 310.075C192.876 306.811 200.341 302.007 208.313 296.211C224.391 284.524 242.019 269.168 249.827 254.525L255.124 257.367C246.612 273.33 227.961 289.37 211.838 301.091C203.71 306.999 196.095 311.902 190.495 315.251C187.699 316.923 185.38 318.223 183.735 319.072C182.927 319.49 182.218 319.831 181.674 320.052C181.435 320.149 181.069 320.29 180.683 320.37L180.679 320.371C180.542 320.4 180.039 320.505 179.43 320.398C179.101 320.34 178.46 320.171 177.871 319.621Z" fill="#E9ECE0" fill-opacity="0.4"/>
<path fill-rule="evenodd" clip-rule="evenodd" d="M179.911 317.39C179.921 318.737 236.157 286.551 252.478 255.945Z" fill="#E9ECE0" fill-opacity="0.4"/>
<path fill-rule="evenodd" clip-rule="evenodd" d="M177.871 319.621C177.193 318.986 176.911 318.154 176.906 317.413L182.913 317.371C182.908 316.65 182.633 315.835 181.968 315.213C181.393 314.675 180.773 314.516 180.471 314.463C179.93 314.367 179.514 314.459 179.465 314.47L179.461 314.471C179.365 314.491 179.308 314.51 179.307 314.51C179.306 314.51 179.341 314.499 179.419 314.467C179.708 314.35 180.224 314.108 180.986 313.715C182.482 312.942 184.686 311.709 187.419 310.075C192.876 306.811 200.341 302.007 208.313 296.211C224.391 284.524 242.019 269.168 249.827 254.525L255.124 257.367C246.612 273.33 227.961 289.37 211.838 301.091C203.71 306.999 196.095 311.902 190.495 315.251C187.699 316.923 185.38 318.223 183.735 319.072C182.927 319.49 182.218 319.831 181.674 320.052C181.435 320.149 181.069 320.29 180.683 320.37L180.679 320.371C180.542 320.4 180.039 320.505 179.43 320.398C179.101 320.34 178.46 320.171 177.871 319.621Z" fill="#E9ECE0" fill-opacity="0.4"/>
<path fill-rule="evenodd" clip-rule="evenodd" d="M114.229 404.212C114.238 405.559 147.239 388.911 180.247 373.273Z" fill="#E9ECE0" fill-opacity="0.4"/>
<path fill-rule="evenodd" clip-rule="evenodd" d="M112.432 406.659C111.653 406.064 111.231 405.158 111.225 404.233L117.233 404.193C117.228 403.31 116.822 402.437 116.075 401.866C115.48 401.411 114.892 401.319 114.677 401.294C114.417 401.263 114.224 401.279 114.151 401.286C114.064 401.295 114.01 401.306 114.003 401.308C114 401.308 114 401.308 114.003 401.308C114.013 401.305 114.066 401.292 114.174 401.258C114.3 401.218 114.466 401.161 114.678 401.083C115.545 400.763 116.886 400.197 118.682 399.394C122.251 397.797 127.375 395.37 133.565 392.395C137.673 390.42 142.246 388.207 147.126 385.845C156.916 381.107 167.946 375.768 178.963 370.548L181.53 375.998C170.532 381.208 159.55 386.524 149.774 391.256C144.885 393.622 140.298 395.842 136.161 397.83C129.974 400.804 124.783 403.263 121.13 404.898C119.316 405.71 117.82 406.346 116.751 406.74C116.245 406.927 115.698 407.111 115.216 407.211C115.03 407.249 114.541 407.347 113.974 407.28C113.696 407.247 113.059 407.139 112.432 406.659Z" fill="#E9ECE0" fill-opacity="0.4"/>
<path fill-rule="evenodd" clip-rule="evenodd" d="M155.053 266.031C154.149 266.542 145.271 273.417 155.745 286.319Z" fill="#E9ECE0" fill-opacity="0.4"/>
<path fill-rule="evenodd" clip-rule="evenodd" d="M149.497 271.033C150.675 267.124 153.47 264.959 154.215 264.538L155.894 267.527C155.896 267.526 155.895 267.527 155.889 267.531C155.86 267.55 155.721 267.643 155.499 267.832C155.251 268.042 154.934 268.342 154.598 268.73C153.923 269.508 153.197 270.61 152.77 272.026C151.95 274.747 152.1 279.112 157.072 285.236L154.421 287.404C148.918 280.626 148.27 275.103 149.497 271.033Z" fill="#E9ECE0" fill-opacity="0.4"/>
<path fill-rule="evenodd" clip-rule="evenodd" d="M144.473 269.902C144.282 269.158 141.077 261.511 129.931 266.563Z" fill="#E9ECE0" fill-opacity="0.4"/>
<path fill-rule="evenodd" clip-rule="evenodd" d="M144.158 268.04C144.688 268.825 144.956 269.501 145.024 269.763L143.921 270.049C143.893 269.94 143.689 269.382 143.215 268.681C142.748 267.99 142.036 267.185 141.01 266.55C138.991 265.299 135.61 264.62 130.164 267.088L129.695 266.047C135.396 263.463 139.191 264.081 141.608 265.578C142.8 266.316 143.622 267.246 144.158 268.04Z" fill="#E9ECE0" fill-opacity="0.4"/>
<path fill-rule="evenodd" clip-rule="evenodd" d="M106.633 303.214C107.652 301.763 114.62 283.635 89.0811 271.471Z" fill="#E9ECE0" fill-opacity="0.4"/>
<path fill-rule="evenodd" clip-rule="evenodd" d="M108.247 302.311C108 302.993 107.74 303.547 107.527 303.851L105.734 302.583L105.734 302.583C105.734 302.583 105.738 302.577 105.746 302.564C105.755 302.55 105.767 302.529 105.781 302.503C105.81 302.45 105.847 302.378 105.889 302.288C105.974 302.106 106.076 301.862 106.186 301.56C106.404 300.956 106.645 300.138 106.832 299.15C107.207 297.173 107.367 294.541 106.741 291.592C105.502 285.752 101.128 278.431 88.6084 272.467L89.5491 270.479C102.568 276.681 107.48 284.506 108.887 291.134C109.584 294.418 109.406 297.351 108.987 299.562C108.777 300.667 108.505 301.598 108.247 302.311Z" fill="#E9ECE0" fill-opacity="0.4"/>
<path fill-rule="evenodd" clip-rule="evenodd" d="M155.054 266.031C154.152 266.542 155.162 269.02 155.745 286.319Z" fill="#E9ECE0" fill-opacity="0.4"/>
<path fill-rule="evenodd" clip-rule="evenodd" d="M152.99 266.915C153.015 266.296 153.128 265.15 154.214 264.536L155.892 267.526C156.287 267.302 156.398 266.968 156.419 266.876C156.415 266.905 156.409 266.962 156.406 267.053C156.387 267.505 156.436 268.285 156.545 269.751C156.56 269.941 156.575 270.14 156.59 270.349C156.812 273.281 157.18 278.153 157.453 286.261L154.037 286.377C153.765 278.341 153.402 273.523 153.181 270.607C153.166 270.398 153.151 270.198 153.136 270.008C153.033 268.629 152.962 267.612 152.99 266.915ZM156.424 266.852C156.424 266.853 156.423 266.861 156.419 266.876C156.422 266.859 156.424 266.852 156.424 266.852Z" fill="#E9ECE0" fill-opacity="0.4"/>
<path fill-rule="evenodd" clip-rule="evenodd" d="M144.473 269.903C144.282 269.16 142.33 269.415 129.93 266.566Z" fill="#E9ECE0" fill-opacity="0.4"/>
<path fill-rule="evenodd" clip-rule="evenodd" d="M144.031 268.925C144.449 269.055 144.893 269.257 145.024 269.762L143.921 270.048C143.932 270.09 143.952 270.114 143.963 270.124C143.943 270.11 143.873 270.071 143.695 270.016C143.33 269.903 142.72 269.783 141.675 269.587C141.536 269.561 141.391 269.534 141.239 269.506C139.118 269.111 135.598 268.456 129.802 267.123L130.057 266.01C135.83 267.337 139.331 267.989 141.448 268.383C141.6 268.412 141.745 268.439 141.883 268.465C142.9 268.655 143.588 268.788 144.031 268.925ZM143.969 270.129C143.969 270.129 143.966 270.128 143.963 270.124C143.968 270.128 143.969 270.129 143.969 270.129Z" fill="#E9ECE0" fill-opacity="0.4"/>
<path fill-rule="evenodd" clip-rule="evenodd" d="M106.63 303.215C107.65 301.764 104.285 298.694 90.7677 272.497Z" fill="#E9ECE0" fill-opacity="0.4"/>
<path fill-rule="evenodd" clip-rule="evenodd" d="M107.493 301.054C107.888 301.982 108.148 302.966 107.528 303.848L105.736 302.58C105.718 302.605 105.709 302.628 105.705 302.644C105.702 302.577 105.67 302.374 105.476 301.918C105.124 301.089 104.415 299.816 103.2 297.68C103.039 297.398 102.87 297.102 102.693 296.791C100.218 292.448 96.1125 285.244 89.7952 273.002L91.7429 271.99C98.0394 284.192 102.128 291.365 104.598 295.699C104.775 296.01 104.944 296.306 105.104 296.589C106.292 298.676 107.079 300.08 107.493 301.054ZM105.702 302.672C105.701 302.671 105.7 302.661 105.705 302.644C105.705 302.665 105.703 302.673 105.702 302.672Z" fill="#E9ECE0" fill-opacity="0.4"/>
<path fill-rule="evenodd" clip-rule="evenodd" d="M104.041 296.941C96.2337 293.894 93.4283 293.303 91.8899 292.671Z" fill="#E9ECE0" fill-opacity="0.4"/>
<path fill-rule="evenodd" clip-rule="evenodd" d="M95.953 292.853C97.8417 293.467 100.515 294.383 104.439 295.915L103.643 297.966C99.7603 296.45 97.127 295.547 95.2766 294.946C94.6998 294.758 94.1866 294.596 93.7286 294.452C92.7558 294.145 92.0316 293.916 91.4743 293.687L92.306 291.651C92.7764 291.845 93.3635 292.03 94.2562 292.311C94.7274 292.46 95.2837 292.635 95.953 292.853Z" fill="#E9ECE0" fill-opacity="0.4"/>
<path fill-rule="evenodd" clip-rule="evenodd" d="M100.183 290.642C93.4992 288.057 91.072 287.622 89.7569 287.081Z" fill="#E9ECE0" fill-opacity="0.4"/>
<path fill-rule="evenodd" clip-rule="evenodd" d="M93.2647 287.095C94.8926 287.601 97.1926 288.364 100.557 289.665L99.8076 291.615C96.4886 290.332 94.2331 289.584 92.6477 289.091C92.1634 288.941 91.7281 288.81 91.3367 288.693C90.4906 288.439 89.8493 288.247 89.3613 288.046L90.1515 286.112C90.5428 286.273 91.0308 286.419 91.7875 286.646C92.1936 286.768 92.6771 286.912 93.2647 287.095Z" fill="#E9ECE0" fill-opacity="0.4"/>
<path fill-rule="evenodd" clip-rule="evenodd" d="M96.7552 283.794C91.9055 281.963 90.0959 281.782 89.1448 281.391Z" fill="#E9ECE0" fill-opacity="0.4"/>
<path fill-rule="evenodd" clip-rule="evenodd" d="M91.7431 281.112C92.9481 281.442 94.6416 281.955 97.096 282.881L96.4123 284.704C94.0171 283.8 92.381 283.306 91.2309 282.99C90.846 282.884 90.5237 282.801 90.2348 282.726C90.0834 282.687 89.9412 282.65 89.804 282.613C89.4254 282.513 89.0784 282.414 88.7757 282.29L89.5121 280.488C89.6848 280.559 89.9207 280.63 90.3005 280.731C90.419 280.762 90.5521 280.797 90.6984 280.835C90.9955 280.912 91.3473 281.003 91.7431 281.112Z" fill="#E9ECE0" fill-opacity="0.4"/>
<path fill-rule="evenodd" clip-rule="evenodd" d="M155.055 266.034C154.151 266.546 166.709 273.836 155.747 286.322Z" fill="#E9ECE0" fill-opacity="0.4"/>
<path fill-rule="evenodd" clip-rule="evenodd" d="M153.309 265.921C153.375 265.295 153.747 264.805 154.216 264.54L155.895 267.529C156.307 267.296 156.649 266.851 156.709 266.283C156.755 265.853 156.614 265.548 156.582 265.479C156.54 265.389 156.501 265.336 156.501 265.336C156.501 265.336 156.519 265.361 156.567 265.417C156.686 265.554 156.823 265.698 157.006 265.891C157.159 266.051 157.344 266.245 157.577 266.497C158.497 267.492 159.775 268.989 160.714 270.942C161.663 272.917 162.269 275.366 161.827 278.219C161.388 281.063 159.933 284.151 157.031 287.456L154.465 285.188C157.045 282.25 158.131 279.745 158.448 277.693C158.764 275.652 158.342 273.906 157.634 272.433C156.916 270.939 155.909 269.738 155.071 268.832C154.932 268.682 154.779 268.52 154.628 268.361C154.381 268.101 154.141 267.847 153.983 267.665C153.866 267.529 153.638 267.261 153.488 266.94C153.416 266.786 153.257 266.41 153.309 265.921Z" fill="#E9ECE0" fill-opacity="0.4"/>
<path fill-rule="evenodd" clip-rule="evenodd" d="M144.473 269.904C144.281 269.161 136.727 276.764 129.93 266.566Z" fill="#E9ECE0" fill-opacity="0.4"/>
<path fill-rule="evenodd" clip-rule="evenodd" d="M144.636 269.327C144.843 269.406 144.975 269.576 145.023 269.763L143.921 270.049C143.957 270.189 144.063 270.33 144.229 270.393C144.35 270.44 144.443 270.422 144.454 270.42C144.454 270.42 144.454 270.42 144.454 270.42C144.457 270.419 144.459 270.419 144.459 270.419C144.459 270.42 144.421 270.432 144.321 270.48C144.191 270.544 144.039 270.628 143.85 270.732C143.705 270.812 143.538 270.904 143.342 271.009C142.483 271.468 141.249 272.061 139.785 272.343C138.314 272.627 136.606 272.598 134.814 271.81C133.025 271.024 131.201 269.502 129.456 266.885L130.403 266.25C132.057 268.732 133.726 270.085 135.271 270.764C136.813 271.442 138.28 271.471 139.57 271.222C140.868 270.971 141.984 270.44 142.807 270.001C142.963 269.918 143.116 269.833 143.261 269.754C143.477 269.635 143.673 269.527 143.821 269.454C143.94 269.396 144.097 269.324 144.25 269.296C144.324 269.283 144.473 269.264 144.636 269.327Z" fill="#E9ECE0" fill-opacity="0.4"/>
<path fill-rule="evenodd" clip-rule="evenodd" d="M106.63 303.218C107.649 301.766 82.5622 300.705 90.334 273.432Z" fill="#E9ECE0" fill-opacity="0.4"/>
<path fill-rule="evenodd" clip-rule="evenodd" d="M107.677 302.684C107.84 303.112 107.745 303.539 107.528 303.847L105.735 302.579C105.582 302.798 105.5 303.135 105.629 303.471C105.679 303.602 105.745 303.69 105.788 303.738C105.83 303.787 105.865 303.813 105.876 303.822C105.877 303.823 105.876 303.822 105.872 303.82C105.851 303.808 105.753 303.756 105.512 303.663C105.199 303.542 104.816 303.414 104.345 303.257C103.975 303.134 103.551 302.992 103.062 302.822C100.939 302.079 98.0175 300.914 95.2977 298.887C92.5648 296.85 90.0266 293.935 88.7008 289.715C87.3775 285.502 87.2955 280.095 89.2815 273.126L91.3903 273.731C89.4904 280.398 89.6298 285.351 90.7927 289.053C91.9531 292.747 94.1658 295.302 96.6058 297.121C99.0589 298.949 101.733 300.026 103.784 300.743C104.186 300.884 104.584 301.017 104.955 301.141C105.483 301.318 105.954 301.475 106.299 301.608C106.583 301.718 106.927 301.863 107.187 302.057C107.311 302.15 107.549 302.35 107.677 302.684Z" fill="#E9ECE0" fill-opacity="0.4"/>
<path fill-rule="evenodd" clip-rule="evenodd" d="M153.454 261.481C155.481 261.561 184.643 254.099 173.039 227.018Z" fill="#E9ECE0" fill-opacity="0.4"/>
<path fill-rule="evenodd" clip-rule="evenodd" d="M154.483 263.385C154.153 263.443 153.736 263.504 153.376 263.49L153.534 259.474C153.501 259.473 153.483 259.473 153.483 259.473C153.483 259.471 153.573 259.465 153.79 259.427C154.051 259.381 154.411 259.303 154.857 259.189C155.747 258.96 156.93 258.594 158.274 258.068C160.973 257.011 164.23 255.341 167.056 252.911C169.872 250.489 172.21 247.358 173.219 243.349C174.225 239.352 173.964 234.262 171.201 227.813L174.88 226.226C177.919 233.317 178.364 239.316 177.102 244.332C175.843 249.336 172.94 253.143 169.663 255.962C166.396 258.772 162.707 260.645 159.73 261.811C158.236 262.396 156.899 262.812 155.852 263.081C155.329 263.216 154.866 263.317 154.483 263.385Z" fill="#E9ECE0" fill-opacity="0.4"/>
<path fill-rule="evenodd" clip-rule="evenodd" d="M153.226 263.694C153.936 264.817 171.498 277.526 190.12 260.523Z" fill="#E9ECE0" fill-opacity="0.4"/>
<path fill-rule="evenodd" clip-rule="evenodd" d="M153.009 264.654C152.838 264.505 152.643 264.32 152.527 264.137L153.923 263.25C153.916 263.24 153.913 263.235 153.913 263.235C153.915 263.234 153.96 263.288 154.095 263.405C154.243 263.535 154.456 263.705 154.733 263.904C155.285 264.303 156.07 264.805 157.058 265.331C159.033 266.381 161.794 267.51 165.097 268.089C171.67 269.24 180.453 268.228 189.563 259.91L190.676 261.135C181.163 269.82 171.855 270.954 164.813 269.721C161.309 269.107 158.383 267.911 156.283 266.794C155.233 266.236 154.384 265.694 153.768 265.249C153.46 265.027 153.205 264.825 153.009 264.654Z" fill="#E9ECE0" fill-opacity="0.4"/>
<path fill-rule="evenodd" clip-rule="evenodd" d="M147.078 271.309C148.158 270.539 159.905 252.285 142.015 234.506Z" fill="#E9ECE0" fill-opacity="0.4"/>
<path fill-rule="evenodd" clip-rule="evenodd" d="M148.776 272.055C148.638 272.231 148.391 272.536 148.093 272.749L146.06 269.874C145.968 269.939 145.919 269.991 145.919 269.991C145.919 269.991 145.949 269.959 146.013 269.878C146.112 269.751 146.253 269.554 146.426 269.284C146.77 268.747 147.21 267.972 147.665 266.992C148.576 265.03 149.524 262.3 149.916 259.075C150.69 252.697 149.312 244.242 140.778 235.761L143.25 233.256C152.606 242.554 154.3 252.115 153.403 259.501C152.959 263.159 151.886 266.247 150.849 268.481C150.331 269.598 149.815 270.514 149.38 271.192C149.163 271.53 148.959 271.821 148.776 272.055Z" fill="#E9ECE0" fill-opacity="0.4"/>
<path fill-rule="evenodd" clip-rule="evenodd" d="M153.453 261.483C155.481 261.563 156.33 256.4 173.038 227.02Z" fill="#E9ECE0" fill-opacity="0.4"/>
<path fill-rule="evenodd" clip-rule="evenodd" d="M156.682 261.386C156.027 262.361 155.038 263.556 153.377 263.49L153.535 259.474C153.219 259.462 153.028 259.593 152.984 259.628C153.018 259.596 153.14 259.469 153.361 259.14C153.906 258.328 154.663 256.897 155.964 254.375C156.135 254.044 156.314 253.696 156.502 253.331C159.127 248.231 163.485 239.767 171.301 226.023L174.78 228.015C167.005 241.687 162.676 250.094 160.059 255.178C159.871 255.543 159.692 255.89 159.521 256.222C158.268 258.653 157.388 260.334 156.682 261.386ZM152.974 259.637C152.974 259.636 152.978 259.633 152.984 259.628C152.978 259.634 152.974 259.637 152.974 259.637Z" fill="#E9ECE0" fill-opacity="0.4"/>
<path fill-rule="evenodd" clip-rule="evenodd" d="M153.226 263.691C153.936 264.812 158.662 263.217 190.121 260.523Z" fill="#E9ECE0" fill-opacity="0.4"/>
<path fill-rule="evenodd" clip-rule="evenodd" d="M153.543 264.795C153.159 264.708 152.775 264.524 152.528 264.134L153.923 263.247C153.881 263.181 153.835 263.159 153.835 263.159C153.835 263.159 153.854 263.168 153.906 263.179C154.058 263.214 154.338 263.237 154.839 263.22C155.832 263.188 157.432 263.014 160.049 262.715C160.396 262.675 160.761 262.633 161.144 262.589C166.492 261.974 175.36 260.955 190.05 259.696L190.191 261.346C175.524 262.603 166.675 263.62 161.331 264.234C160.948 264.278 160.584 264.32 160.236 264.36C157.65 264.656 155.969 264.84 154.893 264.875C154.36 264.893 153.908 264.877 153.543 264.795Z" fill="#E9ECE0" fill-opacity="0.4"/>
<path fill-rule="evenodd" clip-rule="evenodd" d="M147.075 271.307C148.155 270.537 146.323 265.884 142.015 234.503Z" fill="#E9ECE0" fill-opacity="0.4"/>
<path fill-rule="evenodd" clip-rule="evenodd" d="M149.076 271.091C148.985 271.623 148.738 272.285 148.092 272.745L146.059 269.871C145.683 270.138 145.616 270.487 145.614 270.494C145.614 270.495 145.616 270.482 145.619 270.45C145.621 270.419 145.623 270.374 145.623 270.313C145.623 270.189 145.616 270.021 145.596 269.794C145.517 268.848 145.27 267.299 144.833 264.676C144.776 264.33 144.715 263.966 144.652 263.585C143.763 258.255 142.288 249.413 140.274 234.746L143.754 234.265C145.761 248.881 147.229 257.685 148.116 263.004C148.18 263.385 148.24 263.749 148.298 264.095C148.724 266.654 149.002 268.373 149.096 269.497C149.143 270.049 149.16 270.599 149.076 271.091Z" fill="#E9ECE0" fill-opacity="0.4"/>
<path fill-rule="evenodd" clip-rule="evenodd" d="M153.453 261.483C174.581 244.258 168.901 245.169 173.038 227.02Z" fill="#E9ECE0" fill-opacity="0.4"/>
<path fill-rule="evenodd" clip-rule="evenodd" d="M171.468 245.366C169.504 250.104 165.213 254.483 154.717 263.039L152.192 259.92C162.824 251.252 166.257 247.474 167.769 243.824C168.527 241.995 168.84 240.11 169.222 237.359C169.254 237.124 169.287 236.884 169.321 236.638C169.679 234.034 170.122 230.804 171.088 226.569L174.992 227.465C174.067 231.522 173.645 234.596 173.288 237.192C173.254 237.436 173.221 237.677 173.189 237.913C172.811 240.634 172.448 243.001 171.468 245.366Z" fill="#E9ECE0" fill-opacity="0.4"/>
<path fill-rule="evenodd" clip-rule="evenodd" d="M153.453 261.483C162.558 249.779 150.542 240.412 173.038 227.02Z" fill="#E9ECE0" fill-opacity="0.4"/>
<path fill-rule="evenodd" clip-rule="evenodd" d="M159.774 248.701C159.36 252.91 158.882 257.77 155.032 262.719L151.875 260.246C154.948 256.295 155.292 252.906 155.694 248.935C155.833 247.556 155.98 246.108 156.251 244.541C156.763 241.575 157.749 238.467 160.16 235.21C162.546 231.986 166.247 228.726 172.017 225.291L174.06 228.747C168.582 232.008 165.348 234.941 163.375 237.606C161.427 240.238 160.631 242.714 160.197 245.227C160.008 246.321 159.894 247.484 159.774 248.701Z" fill="#E9ECE0" fill-opacity="0.4"/>
<path fill-rule="evenodd" clip-rule="evenodd" d="M153.453 261.482C155.481 261.563 144.534 228.856 173.038 227.02Z" fill="#E9ECE0" fill-opacity="0.4"/>
<path fill-rule="evenodd" clip-rule="evenodd" d="M155.274 262.51C154.925 263.036 154.264 263.525 153.376 263.49L153.534 259.474C152.772 259.444 152.213 259.874 151.943 260.28C151.833 260.445 151.78 260.587 151.756 260.661C151.73 260.74 151.721 260.793 151.719 260.806C151.719 260.81 151.718 260.812 151.718 260.812C151.718 260.812 151.723 260.771 151.724 260.672C151.725 260.559 151.721 260.408 151.71 260.212C151.679 259.655 151.607 258.95 151.517 258.066C151.471 257.618 151.421 257.125 151.369 256.582C151.07 253.466 150.763 249.143 151.332 244.712C151.902 240.283 153.368 235.575 156.758 231.837C160.187 228.056 165.373 225.499 172.912 225.013L173.168 229.024C166.455 229.456 162.32 231.676 159.721 234.542C157.083 237.45 155.815 241.258 155.305 245.226C154.795 249.191 155.062 253.145 155.355 256.196C155.399 256.652 155.444 257.098 155.488 257.526C155.585 258.478 155.672 259.337 155.709 259.987C155.734 260.441 155.748 260.98 155.672 261.45C155.637 261.668 155.551 262.094 155.274 262.51Z" fill="#E9ECE0" fill-opacity="0.4"/>
<path fill-rule="evenodd" clip-rule="evenodd" d="M153.226 263.691C153.936 264.814 177.606 245.927 190.121 260.52Z" fill="#E9ECE0" fill-opacity="0.4"/>
<path fill-rule="evenodd" clip-rule="evenodd" d="M153.389 264.567C153.229 264.573 152.791 264.551 152.528 264.135L153.924 263.247C153.705 262.902 153.357 262.911 153.329 262.912C153.304 262.912 153.29 262.915 153.29 262.915C153.29 262.915 153.31 262.911 153.355 262.896C153.508 262.844 153.758 262.73 154.125 262.542C154.614 262.29 155.229 261.948 155.969 261.536C156.328 261.336 156.716 261.121 157.133 260.891C159.656 259.501 163.118 257.676 166.965 256.275C174.601 253.494 184.129 252.263 190.747 259.98L189.494 261.06C183.598 254.184 175.033 255.099 167.528 257.832C163.805 259.189 160.433 260.963 157.928 262.343C157.533 262.56 157.157 262.769 156.803 262.966C156.047 263.387 155.392 263.751 154.879 264.015C154.506 264.207 154.163 264.37 153.885 264.465C153.753 264.509 153.575 264.56 153.389 264.567Z" fill="#E9ECE0" fill-opacity="0.4"/>
<path fill-rule="evenodd" clip-rule="evenodd" d="M147.074 271.308C148.155 270.538 128.129 247.8 142.012 234.505Z" fill="#E9ECE0" fill-opacity="0.4"/>
<path fill-rule="evenodd" clip-rule="evenodd" d="M148.864 271.019C148.887 271.284 148.903 272.167 148.09 272.746L146.056 269.872C145.311 270.403 145.353 271.195 145.364 271.328C145.375 271.449 145.399 271.535 145.409 271.567C145.409 271.566 145.409 271.566 145.409 271.566C145.377 271.484 145.282 271.291 145.077 270.937C144.809 270.473 144.449 269.895 144.007 269.185C143.788 268.833 143.549 268.449 143.291 268.031C141.771 265.564 139.745 262.141 138.122 258.291C134.928 250.711 133.005 240.694 140.798 233.232L143.223 235.783C137.132 241.615 138.28 249.613 141.358 256.918C142.872 260.511 144.782 263.748 146.279 266.176C146.508 266.548 146.732 266.908 146.945 267.249C147.408 267.994 147.818 268.653 148.115 269.167C148.328 269.535 148.538 269.921 148.674 270.264C148.736 270.421 148.836 270.697 148.864 271.019ZM145.415 271.58C145.414 271.58 145.412 271.576 145.409 271.567C145.413 271.576 145.415 271.581 145.415 271.58Z" fill="#E9ECE0" fill-opacity="0.4"/>
<path fill-rule="evenodd" clip-rule="evenodd" d="M114.241 404.212C114.25 405.559 119.455 288.923 152.452 273.281Z" fill="#E9ECE0" fill-opacity="0.4"/>
<path fill-rule="evenodd" clip-rule="evenodd" d="M111.238 404.317L111.237 404.231L117.243 404.191L117.242 404.117C117.24 404.078 117.232 403.955 117.224 403.872C117.181 403.609 115.552 401.51 113.142 401.417C112.047 402.163 111.329 403.483 111.29 403.658C111.279 403.723 111.264 403.823 111.26 403.856L111.253 403.92L111.251 403.946L111.25 403.955C111.25 403.956 111.251 403.945 111.252 403.917L111.259 403.813L111.31 402.955C111.357 402.166 111.43 400.966 111.534 399.411C111.743 396.3 112.078 391.769 112.583 386.246C113.593 375.206 115.284 360.176 118.017 344.595C120.745 329.038 124.531 312.81 129.766 299.426C134.923 286.239 141.789 275.002 151.169 270.556L153.734 276.007C146.615 279.382 140.457 288.59 135.357 301.629C130.335 314.471 126.632 330.25 123.933 345.639C121.239 361.004 119.565 375.858 118.565 386.796C118.065 392.263 117.734 396.745 117.528 399.816C117.425 401.351 117.353 402.535 117.306 403.314L117.255 404.183C117.249 404.269 117.244 404.357 117.239 404.421L117.232 404.5L117.224 404.578C117.219 404.614 117.204 404.716 117.192 404.784C117.153 404.961 116.434 406.281 115.339 407.028C112.93 406.934 111.3 404.834 111.257 404.57C111.253 404.535 111.25 404.492 111.247 404.451C111.242 404.395 111.239 404.342 111.238 404.317Z" fill="#E9ECE0" fill-opacity="0.4"/>
<path fill-rule="evenodd" clip-rule="evenodd" d="M114.227 404.213C114.235 405.56 122.169 317.813 104.309 300.826Z" fill="#E9ECE0" fill-opacity="0.4"/>
<path fill-rule="evenodd" clip-rule="evenodd" d="M111.243 404.544C111.226 404.383 111.225 404.254 111.225 404.228L117.23 404.188L117.23 404.186C117.23 404.164 117.229 404.046 117.213 403.896C117.2 403.794 117.14 403.487 117.082 403.285C116.848 402.75 115.123 401.346 113.455 401.311C112.515 401.749 111.609 402.753 111.469 403.039C111.417 403.168 111.349 403.373 111.329 403.446C111.298 403.563 111.282 403.655 111.278 403.676L111.278 403.678C111.271 403.718 111.266 403.749 111.265 403.762C111.265 403.756 111.267 403.746 111.268 403.73C111.279 403.635 111.298 403.452 111.325 403.171C111.377 402.617 111.453 401.751 111.544 400.61C111.725 398.329 111.964 394.969 112.196 390.842C112.66 382.583 113.091 371.281 112.968 359.422C112.844 347.543 112.165 335.201 110.434 324.83C109.569 319.644 108.453 315.03 107.05 311.249C105.633 307.43 104.004 304.684 102.243 303.01L106.372 298.633C109.078 301.205 111.109 304.917 112.677 309.144C114.259 313.407 115.454 318.425 116.357 323.833C118.162 334.65 118.848 347.345 118.972 359.359C119.097 371.391 118.66 382.835 118.191 391.181C117.957 395.356 117.714 398.763 117.53 401.089C117.437 402.251 117.359 403.149 117.303 403.741C117.275 404.033 117.252 404.267 117.233 404.427L117.233 404.429C117.226 404.484 117.211 404.613 117.19 404.736L117.189 404.737C117.184 404.765 117.166 404.867 117.133 404.992C117.112 405.068 117.044 405.275 116.992 405.405C116.851 405.694 115.944 406.698 115.004 407.136C113.335 407.101 111.609 405.697 111.375 405.16C111.317 404.958 111.256 404.648 111.243 404.544Z" fill="#E9ECE0" fill-opacity="0.4"/>
<path fill-rule="evenodd" clip-rule="evenodd" d="M213.892 246.88C213.901 248.227 217.845 165.399 194.226 143.559Z" fill="#E9ECE0" fill-opacity="0.4"/>
<path fill-rule="evenodd" clip-rule="evenodd" d="M210.895 247.064C210.89 246.984 210.89 246.92 210.89 246.901L216.896 246.861L216.896 246.86C216.896 246.849 216.895 246.794 216.891 246.721C216.888 246.675 216.876 246.541 216.864 246.454C216.824 246.236 216.254 245.033 215.418 244.3C213.179 243.969 211.154 245.664 211.012 246.048C210.979 246.172 210.94 246.357 210.929 246.417C210.916 246.503 210.909 246.571 210.908 246.582L210.908 246.583C210.905 246.612 210.904 246.63 210.904 246.628C210.904 246.626 210.905 246.614 210.906 246.586C210.912 246.49 210.921 246.313 210.933 246.05C210.955 245.529 210.986 244.713 211.017 243.637C211.079 241.485 211.141 238.303 211.142 234.376C211.144 226.516 210.901 215.695 209.927 204.17C208.952 192.629 207.252 180.471 204.367 169.904C201.456 159.235 197.457 150.647 192.189 145.777L196.259 141.343C202.802 147.393 207.168 157.349 210.16 168.31C213.18 179.373 214.922 191.934 215.912 203.661C216.904 215.404 217.15 226.403 217.148 234.377C217.147 238.366 217.084 241.605 217.021 243.81C216.989 244.912 216.957 245.759 216.933 246.315C216.921 246.59 216.91 246.803 216.902 246.944C216.899 246.996 216.893 247.094 216.884 247.182L216.884 247.184C216.882 247.203 216.875 247.278 216.86 247.371C216.849 247.433 216.809 247.62 216.776 247.744C216.634 248.13 214.609 249.825 212.369 249.494C211.533 248.761 210.963 247.557 210.923 247.338C210.911 247.249 210.898 247.113 210.895 247.064Z" fill="#E9ECE0" fill-opacity="0.4"/>
<path fill-rule="evenodd" clip-rule="evenodd" d="M35.1412 469.849C35.1501 471.196 48.4325 452.975 62.0022 416.621Z" fill="#E9ECE0" fill-opacity="0.4"/>
<path fill-rule="evenodd" clip-rule="evenodd" d="M32.5435 471.398C32.1716 470.748 32.137 470.138 32.1353 469.869L38.1431 469.829C38.1416 469.603 38.1138 469.026 37.755 468.398C37.3103 467.62 36.5305 467.075 35.6274 466.938C34.8984 466.827 34.3407 467.02 34.1249 467.106C33.8702 467.207 33.6933 467.32 33.6147 467.373C33.4964 467.453 33.4202 467.521 33.3956 467.544C33.41 467.529 33.4427 467.496 33.4954 467.436C33.7716 467.125 34.2668 466.492 34.9724 465.482C36.3614 463.495 38.3946 460.295 40.8678 455.893C45.8091 447.099 52.4568 433.597 59.1877 415.565L64.814 417.679C57.9749 436.001 51.1962 449.786 46.1014 458.853C43.5566 463.383 41.4193 466.757 39.8912 468.944C39.1383 470.021 38.4883 470.875 37.9834 471.444C37.7806 471.672 37.4148 472.073 36.9718 472.373C36.8427 472.46 36.6213 472.598 36.3283 472.714C36.0742 472.815 35.4845 473.013 34.7296 472.899C33.8007 472.758 33.0014 472.199 32.5435 471.398ZM33.3869 467.552C33.3869 467.552 33.3899 467.549 33.3956 467.544C33.3897 467.55 33.3869 467.552 33.3869 467.552Z" fill="#E9ECE0" fill-opacity="0.4"/>
</svg>
