<svg width="303" height="150" viewBox="0 0 303 150" fill="none" xmlns="http://www.w3.org/2000/svg">
<path fill-rule="evenodd" clip-rule="evenodd" d="M48.5432 91.5797C57.2232 -142.513 177.512 -270.184 296.377 -342.975L299.506 -337.829C181.946 -265.837 63.1357 -139.824 54.547 91.8035L48.5432 91.5797Z" fill="#E9ECE0" fill-opacity="0.4"/>
<path fill-rule="evenodd" clip-rule="evenodd" d="M62.4593 -5.92836C62.4504 -7.27505 20.0927 21.5754 8.02222 55.3984Z" fill="#E9ECE0" fill-opacity="0.4"/>
<path fill-rule="evenodd" clip-rule="evenodd" d="M64.8396 -7.78532C65.3186 -7.15514 65.4594 -6.47207 65.4628 -5.95161L59.4545 -5.91136C59.4578 -5.41194 59.5932 -4.74623 60.0618 -4.12974C60.5232 -3.52279 61.1067 -3.22788 61.5372 -3.09389C62.2405 -2.87497 62.8144 -2.99199 62.9146 -3.0124L62.9221 -3.01393C63.0852 -3.04648 63.2043 -3.08801 63.2551 -3.10784C63.2506 -3.10579 63.2455 -3.10344 63.2397 -3.10077C63.0863 -3.02955 62.7427 -2.84483 62.18 -2.49937C61.0889 -1.8295 59.4568 -0.73089 57.4164 0.761717C53.3452 3.73988 47.7648 8.20173 41.8073 13.7519C29.8209 24.9188 16.6398 40.1867 10.8497 56.4114L5.19286 54.3797C11.4733 36.7811 25.5064 20.7122 37.7189 9.33469C43.8608 3.61271 49.6259 -0.999523 53.8766 -4.10904C55.9971 -5.66028 57.7699 -6.85892 59.0441 -7.64116C59.664 -8.02177 60.2432 -8.35182 60.7171 -8.57178C60.9084 -8.66057 61.2991 -8.83619 61.7498 -8.92615L61.7532 -8.92683C61.9142 -8.95899 62.5584 -9.08767 63.3178 -8.85129C63.7688 -8.71091 64.3678 -8.40596 64.8396 -7.78532ZM63.2825 -3.11937C63.2823 -3.11899 63.2728 -3.11472 63.2551 -3.10784C63.2739 -3.11631 63.2827 -3.11974 63.2825 -3.11937Z" fill="#E9ECE0" fill-opacity="0.4"/>
<path fill-rule="evenodd" clip-rule="evenodd" d="M8.99538 52.8109C6.84082 52.7358 -16.3083 55.2921 -11.6312 89.5314Z" fill="#E9ECE0" fill-opacity="0.4"/>
<path fill-rule="evenodd" clip-rule="evenodd" d="M3.60021 51.7831C6.16928 50.9652 8.25119 50.7709 9.06495 50.7992L8.92575 54.8155C8.66221 54.8063 7.0425 54.9033 4.81126 55.6136C2.61792 56.3118 -0.0642987 57.5717 -2.54511 59.7975C-7.40405 64.1571 -11.9191 72.6245 -9.64736 89.2549L-13.6153 89.8008C-16.0208 72.1919 -11.2997 62.2615 -5.21469 56.8019C-2.22351 54.1181 0.993252 52.613 3.60021 51.7831Z" fill="#E9ECE0" fill-opacity="0.4"/>
<path fill-rule="evenodd" clip-rule="evenodd" d="M49.1977 88.5288C49.6321 87.0901 52.0459 71.032 28.2882 68.0854Z" fill="#E9ECE0" fill-opacity="0.4"/>
<path fill-rule="evenodd" clip-rule="evenodd" d="M49.9672 85.1166C50.0532 86.9159 49.8177 88.2499 49.6886 88.6774L48.7058 88.3788C48.7939 88.0869 49.023 86.8742 48.9414 85.166C48.8602 83.4679 48.473 81.3083 47.3568 79.1054C45.1404 74.7314 39.9783 70.054 28.2247 68.5963L28.3507 67.5738C40.3548 69.0626 45.8647 73.8873 48.2722 78.6385C49.468 80.9983 49.8807 83.307 49.9672 85.1166Z" fill="#E9ECE0" fill-opacity="0.4"/>
<path fill-rule="evenodd" clip-rule="evenodd" d="M53.2153 81.1505C54.1552 81.7326 64.2663 87.4029 70.8513 70.9736Z" fill="#E9ECE0" fill-opacity="0.4"/>
<path fill-rule="evenodd" clip-rule="evenodd" d="M60.194 84.1625C56.1092 84.8259 52.8996 83.0047 52.3009 82.6338L54.129 79.664C54.4702 79.8754 56.7862 81.1803 59.6381 80.7171C62.3166 80.2821 66.0903 78.1717 69.2368 70.3214L72.465 71.6233C69.0266 80.2019 64.4523 83.4709 60.194 84.1625Z" fill="#E9ECE0" fill-opacity="0.4"/>
<path fill-rule="evenodd" clip-rule="evenodd" d="M8.99537 52.8102C6.84081 52.7351 5.96637 58.2254 -11.6311 89.5312Z" fill="#E9ECE0" fill-opacity="0.4"/>
<path fill-rule="evenodd" clip-rule="evenodd" d="M5.67158 52.9978C6.36052 51.9609 7.37052 50.7416 9.06459 50.8006L8.92539 54.8168C9.208 54.8267 9.38059 54.7142 9.42395 54.6808C9.3864 54.7155 9.25038 54.8559 9.004 55.2268C8.42388 56.0999 7.62305 57.6318 6.25595 60.3156C6.07615 60.6686 5.88767 61.0392 5.68986 61.4282C2.92738 66.8601 -1.65715 75.8748 -9.88737 90.5158L-13.3758 88.5416C-5.18609 73.9728 -0.63059 65.0151 2.12342 59.5998C2.32126 59.2108 2.5098 58.8401 2.68972 58.4869C4.01024 55.8945 4.93185 54.1112 5.67158 52.9978ZM9.43478 54.6716C9.43475 54.6719 9.43112 54.6753 9.42395 54.6808C9.43123 54.6741 9.4348 54.6713 9.43478 54.6716Z" fill="#E9ECE0" fill-opacity="0.4"/>
<path fill-rule="evenodd" clip-rule="evenodd" d="M49.1977 88.5288C49.6321 87.0901 46.1119 85.5227 28.2882 68.0857Z" fill="#E9ECE0" fill-opacity="0.4"/>
<path fill-rule="evenodd" clip-rule="evenodd" d="M49.0055 86.836C49.5618 87.4678 49.884 88.0311 49.6895 88.6755L48.7066 88.3768C48.7292 88.3018 48.7744 88.1297 48.2358 87.5181C47.7128 86.9241 46.7836 86.0717 45.247 84.6873C45.0426 84.5032 44.8281 84.3102 44.6029 84.1075C41.4613 81.2809 36.2531 76.5946 27.93 68.4523L28.647 67.7146C36.9549 75.8421 42.151 80.5174 45.289 83.3409C45.5142 83.5435 45.7288 83.7366 45.9332 83.9207C47.4503 85.2876 48.4336 86.1865 49.0055 86.836Z" fill="#E9ECE0" fill-opacity="0.4"/>
<path fill-rule="evenodd" clip-rule="evenodd" d="M53.2155 81.146C54.1558 81.7282 55.9346 79.5079 71.6928 70.0596Z" fill="#E9ECE0" fill-opacity="0.4"/>
<path fill-rule="evenodd" clip-rule="evenodd" d="M55.0617 82.5495C54.4757 82.8439 53.3906 83.3068 52.3011 82.6322L54.1286 79.662C53.7474 79.4259 53.4075 79.4882 53.3202 79.5117C53.3492 79.501 53.4083 79.4766 53.5036 79.4287C53.9371 79.2109 54.6405 78.7614 55.9437 77.9052C56.113 77.794 56.2907 77.6771 56.4773 77.5544C59.0847 75.8389 63.4169 72.9888 70.7995 68.5621L72.5845 71.5581C65.2635 75.9479 60.9777 78.7675 58.3837 80.4741C58.1972 80.5968 58.0194 80.7138 57.8499 80.8252C56.6211 81.6324 55.7186 82.2194 55.0617 82.5495ZM53.2986 79.5187C53.2988 79.5182 53.3063 79.5155 53.3202 79.5117C53.3052 79.5173 53.2983 79.5191 53.2986 79.5187Z" fill="#E9ECE0" fill-opacity="0.4"/>
<path fill-rule="evenodd" clip-rule="evenodd" d="M8.99559 52.81C6.84101 52.7349 21.2603 79.2846 -11.6311 89.5312Z" fill="#E9ECE0" fill-opacity="0.4"/>
<path fill-rule="evenodd" clip-rule="evenodd" d="M7.24999 51.6593C7.7133 51.0525 8.40547 50.7805 9.06465 50.8035L8.92545 54.8196C9.44997 54.8378 10.0398 54.6131 10.4293 54.103C10.7166 53.7267 10.7546 53.3712 10.7604 53.3168L10.7606 53.3148C10.7644 53.2802 10.7649 53.2602 10.7658 53.2602C10.7677 53.2602 10.7712 53.3586 10.814 53.6142C10.8806 54.0113 10.9811 54.4733 11.1083 55.0581C11.2074 55.5136 11.3227 56.0437 11.4509 56.6758C11.9998 59.3835 12.618 63.2462 12.2009 67.4973C11.7811 71.7758 10.311 76.4601 6.69416 80.7565C3.08516 85.0435 -2.54182 88.8026 -11.038 91.4492L-12.2254 87.6115C-4.27582 85.1351 0.62909 81.7336 3.63453 78.1635C6.63211 74.6028 7.85896 70.7337 8.2151 67.1038C8.57393 63.4466 8.04699 60.0459 7.52616 57.4769C7.43042 57.0047 7.32716 56.5268 7.2293 56.074C7.07961 55.3813 6.94256 54.7471 6.8644 54.2808C6.8027 53.9128 6.7252 53.3802 6.77875 52.8831C6.80461 52.6431 6.88517 52.1372 7.24999 51.6593Z" fill="#E9ECE0" fill-opacity="0.4"/>
<path fill-rule="evenodd" clip-rule="evenodd" d="M49.1977 88.5288C49.6321 87.0901 29.2866 92.0797 28.2882 68.086Z" fill="#E9ECE0" fill-opacity="0.4"/>
<path fill-rule="evenodd" clip-rule="evenodd" d="M49.5858 88.0957C49.7215 88.272 49.7474 88.4864 49.6898 88.6772L48.7069 88.3785C48.6765 88.4793 48.6889 88.6164 48.7731 88.7257C48.821 88.7879 48.8686 88.8091 48.8692 88.8088C48.8693 88.8088 48.8671 88.8076 48.8619 88.8056C48.8095 88.7854 48.6768 88.7575 48.4181 88.7334C48.1255 88.7062 47.7622 88.6899 47.3229 88.6701C46.999 88.6555 46.6337 88.6391 46.2248 88.6151C44.3448 88.5046 41.7511 88.2397 39.1012 87.2471C36.4448 86.252 33.7288 84.5242 31.6173 81.4941C29.5076 78.4665 28.0284 74.1778 27.7758 68.1056L28.8018 68.0625C29.0484 73.9877 30.4867 78.0733 32.459 80.9037C34.4295 83.7315 36.9601 85.3452 39.4605 86.2818C41.9675 87.2209 44.4411 87.4781 46.2849 87.5865C46.6522 87.6081 47.0038 87.6241 47.327 87.6388C47.7945 87.66 48.2026 87.6786 48.513 87.7075C48.771 87.7315 49.0319 87.7674 49.2303 87.8439C49.3274 87.8813 49.4754 87.9525 49.5858 88.0957Z" fill="#E9ECE0" fill-opacity="0.4"/>
<path fill-rule="evenodd" clip-rule="evenodd" d="M53.2155 81.1477C54.1554 81.7298 55.8274 66.2321 73.0626 70.0526Z" fill="#E9ECE0" fill-opacity="0.4"/>
<path fill-rule="evenodd" clip-rule="evenodd" d="M53.9334 82.7844C53.3969 82.9927 52.7959 82.94 52.3007 82.6333L54.1288 79.6635C53.6923 79.3932 53.1515 79.3455 52.6775 79.5295C52.3142 79.6706 52.1198 79.8976 52.0759 79.9497C52.0252 80.0097 51.9995 80.0529 51.9994 80.0528C51.9992 80.0527 52.0182 80.0203 52.0566 79.9385C52.1442 79.7519 52.2334 79.5348 52.3523 79.2451C52.443 79.0244 52.5509 78.7614 52.6887 78.4378C53.27 77.0721 54.1809 75.1351 55.6768 73.2864C57.1839 71.4238 59.2924 69.6415 62.2496 68.6084C65.2044 67.5761 68.8758 67.3375 73.4371 68.3487L72.6862 71.7567C68.63 70.8575 65.6292 71.1235 63.3938 71.9045C61.1607 72.6846 59.561 74.0242 58.3782 75.4859C57.1843 76.9614 56.4237 78.5511 55.8886 79.8083C55.8013 80.0134 55.7113 80.2316 55.6232 80.4451C55.4694 80.8178 55.3215 81.1762 55.2043 81.4257C55.1179 81.6098 54.9611 81.9328 54.7305 82.2059C54.6184 82.3385 54.3592 82.6191 53.9334 82.7844Z" fill="#E9ECE0" fill-opacity="0.4"/>
<path fill-rule="evenodd" clip-rule="evenodd" d="M55.3966 91.6687C53.204 93.6161 30.2433 130.609 69.2801 147.202Z" fill="#E9ECE0" fill-opacity="0.4"/>
<path fill-rule="evenodd" clip-rule="evenodd" d="M53.5893 91.5684C53.8718 91.1818 54.1685 90.8108 54.4324 90.5764L56.358 92.7597C56.3606 92.7574 56.3606 92.7575 56.3577 92.7604C56.3487 92.7697 56.3122 92.8073 56.2448 92.8879C56.1636 92.9852 56.0589 93.1193 55.9325 93.2924C55.6799 93.638 55.3607 94.1113 54.9952 94.7019C54.2648 95.8821 53.3684 97.4998 52.4675 99.4471C50.6622 103.35 48.8683 108.513 48.3216 114.085C47.7758 119.648 48.4759 125.569 51.5954 131.077C54.7104 136.578 60.3188 141.809 69.8455 145.859L68.7121 148.543C58.7202 144.296 52.5598 138.681 49.0693 132.518C45.5832 126.362 44.8411 119.803 45.43 113.8C46.018 107.807 47.9356 102.319 49.8322 98.2195C50.7823 96.1656 51.7345 94.4441 52.527 93.1637C52.9229 92.524 53.2837 91.9866 53.5893 91.5684Z" fill="#E9ECE0" fill-opacity="0.4"/>
<path fill-rule="evenodd" clip-rule="evenodd" d="M53.4309 89.1372C51.574 88.679 20.4274 93.9388 17.9536 130.316Z" fill="#E9ECE0" fill-opacity="0.4"/>
<path fill-rule="evenodd" clip-rule="evenodd" d="M52.6312 87.2813C52.9518 87.2598 53.446 87.2383 53.8719 87.3434L52.9914 90.9349C53.0809 90.957 53.1362 90.9616 53.1361 90.9624C53.1361 90.9634 53.061 90.9592 52.8776 90.9716C52.6204 90.9889 52.2501 91.0311 51.7753 91.1096C50.8289 91.2661 49.5317 91.556 47.9964 92.0315C44.9246 92.9827 40.9583 94.6582 36.9759 97.434C29.0675 102.946 20.9888 112.862 19.7932 130.444L16.1154 130.193C17.3935 111.397 26.1251 100.494 34.8727 94.3966C39.2184 91.3676 43.5415 89.5404 46.9093 88.4975C48.5937 87.9759 50.0538 87.6459 51.1759 87.4603C51.7353 87.3678 52.227 87.3085 52.6312 87.2813Z" fill="#E9ECE0" fill-opacity="0.4"/>
<path fill-rule="evenodd" clip-rule="evenodd" d="M52.2986 80.6703C51.9382 82.5542 57.8586 113.342 94.1988 113.939Z" fill="#E9ECE0" fill-opacity="0.4"/>
<path fill-rule="evenodd" clip-rule="evenodd" d="M51.6807 81.4122C51.6484 81.085 51.6353 80.7706 51.677 80.5524L52.9207 80.7918C52.9209 80.7909 52.9208 80.7912 52.9207 80.7928C52.9199 80.8007 52.9161 80.8394 52.9173 80.9218C52.9187 81.0129 52.9259 81.1345 52.9409 81.2871C52.971 81.592 53.0304 81.9995 53.1268 82.4968C53.3194 83.4904 53.6555 84.822 54.1828 86.3765C55.2377 89.486 57.0512 93.4675 59.9931 97.4082C65.8612 105.269 76.248 113.011 94.2094 113.306L94.1886 114.576C75.8099 114.274 65.0664 106.323 58.9794 98.1698C55.9437 94.1035 54.0735 89.9976 52.984 86.7858C52.4391 85.1797 52.0879 83.7924 51.8837 82.7393C51.7818 82.2133 51.7155 81.7656 51.6807 81.4122Z" fill="#E9ECE0" fill-opacity="0.4"/>
<path fill-rule="evenodd" clip-rule="evenodd" d="M104.643 0.194488C107.503 0.821055 145.527 21.8751 119.513 55.4692Z" fill="#E9ECE0" fill-opacity="0.4"/>
<path fill-rule="evenodd" clip-rule="evenodd" d="M104.24 2.09582C104.22 2.08871 104.217 2.08752 104.228 2.09003L105.053 -1.70165C105.452 -1.61424 105.933 -1.4158 106.369 -1.21585C106.852 -0.99412 107.44 -0.695756 108.105 -0.326515C109.436 0.412785 111.12 1.45993 112.964 2.79922C116.641 5.47088 121.026 9.35935 124.492 14.3608C127.965 19.373 130.551 25.5584 130.498 32.7618C130.446 39.977 127.748 47.9943 121.038 56.6593L117.984 54.2781C124.282 46.146 126.586 38.9339 126.631 32.7336C126.676 26.5215 124.455 21.1054 121.316 16.5766C118.171 12.0369 114.139 8.44478 110.695 5.9428C108.978 4.69526 107.426 3.73232 106.232 3.06908C105.634 2.73705 105.136 2.48602 104.761 2.31411C104.456 2.17388 104.291 2.11448 104.24 2.09582Z" fill="#E9ECE0" fill-opacity="0.4"/>
<path fill-rule="evenodd" clip-rule="evenodd" d="M55.3982 91.6677C53.2059 93.6152 57.4578 99.8457 69.2794 147.203Z" fill="#E9ECE0" fill-opacity="0.4"/>
<path fill-rule="evenodd" clip-rule="evenodd" d="M53.5479 94.7573C53.2664 93.1219 53.259 91.6227 54.435 90.5781L56.3604 92.7614L56.3497 92.7716L56.3472 92.7744C56.3474 92.7741 56.3473 92.7741 56.3471 92.7746M53.5479 94.7573C53.8408 96.4584 54.567 98.9961 55.6899 102.821ZM55.6899 102.821C55.8416 103.337 56.0012 103.88 56.1687 104.449ZM56.1687 104.449C58.5013 112.374 62.3626 125.494 67.8707 147.558ZM67.8707 147.558L70.6888 146.849ZM70.6888 146.849C65.1661 124.727 61.2918 111.563 58.9554 103.624ZM58.9554 103.624C58.7879 103.055 58.6283 102.513 58.4766 101.996ZM58.4766 101.996C57.3327 98.1003 56.668 95.7555 56.4107 94.2608ZM56.4107 94.2608C56.2823 93.5145 56.2813 93.1127 56.3148 92.8994ZM56.3148 92.8994C56.3293 92.8069 56.3468 92.7751 56.3469 92.775ZM56.3469 92.775C56.3469 92.7748 56.347 92.7747 56.3471 92.7746Z" fill="#E9ECE0" fill-opacity="0.4"/>
<path fill-rule="evenodd" clip-rule="evenodd" d="M53.4311 89.1372C51.5742 88.6791 48.2388 95.077 18.146 129.398Z" fill="#E9ECE0" fill-opacity="0.4"/>
<path fill-rule="evenodd" clip-rule="evenodd" d="M51.6639 87.7455C52.237 87.399 53 87.1281 53.8705 87.3429L52.99 90.9344C53.3442 91.0218 53.5816 90.9029 53.5821 90.904C53.5822 90.9041 53.5771 90.9068 53.5666 90.9132C53.4471 90.9855 53.1802 91.1925 52.6835 91.7023C51.7045 92.7073 50.2296 94.466 47.7942 97.4085C47.4713 97.7985 47.1327 98.208 46.7773 98.6378C41.8151 104.638 33.5865 114.589 19.5292 130.622L16.7613 128.179C30.7839 112.186 38.9864 102.267 43.9411 96.2753C44.2965 95.8455 44.6352 95.4359 44.9582 95.0457C47.3503 92.1556 48.9383 90.2556 50.0473 89.1172C50.5946 88.5553 51.128 88.0695 51.6639 87.7455Z" fill="#E9ECE0" fill-opacity="0.4"/>
<path fill-rule="evenodd" clip-rule="evenodd" d="M52.2992 80.6703C51.9389 82.5542 58.48 85.565 94.1994 113.939Z" fill="#E9ECE0" fill-opacity="0.4"/>
<path fill-rule="evenodd" clip-rule="evenodd" d="M52.0066 81.8335C51.7374 81.4336 51.59 81.0096 51.6776 80.5516L52.9213 80.7909L52.9211 80.792C52.9179 80.8081 52.901 80.892 53.0561 81.1223C53.2235 81.371 53.5389 81.7106 54.0899 82.1976C55.1866 83.1669 57.0615 84.5883 60.0985 86.8628C60.5034 87.166 60.9284 87.4841 61.3745 87.8179C67.6008 92.4766 77.9203 100.198 94.5928 113.442L93.8066 114.438C77.1483 101.205 66.8401 93.4923 60.617 88.836C60.1709 88.5022 59.7458 88.1841 59.3408 87.8808C56.3226 85.6203 54.3973 84.1625 53.2527 83.1508C52.683 82.6473 52.2675 82.2209 52.0066 81.8335Z" fill="#E9ECE0" fill-opacity="0.4"/>
<path fill-rule="evenodd" clip-rule="evenodd" d="M104.642 0.192864C107.503 0.819452 106.818 8.34044 119.51 55.4692Z" fill="#E9ECE0" fill-opacity="0.4"/>
<path fill-rule="evenodd" clip-rule="evenodd" d="M104.064 2.0181C104.094 2.04174 104.149 2.07358 104.231 2.09146L105.056 -1.70029C106.861 -1.30477 107.659 0.247669 108.212 1.82505C108.795 3.48612 109.4 6.08981 110.276 9.96621C110.395 10.4914 110.519 11.0425 110.649 11.6208C112.464 19.6792 115.467 33.0155 121.378 54.9647L117.645 55.9776C111.713 33.9512 108.696 20.5546 106.878 12.4786C106.747 11.9003 106.623 11.3493 106.505 10.8244C105.607 6.85124 105.055 4.51171 104.564 3.11363C104.307 2.37889 104.13 2.10126 104.064 2.0181ZM104.034 1.98838C104.034 1.98626 104.044 1.99406 104.064 2.0181C104.043 2.00251 104.034 1.99049 104.034 1.98838Z" fill="#E9ECE0" fill-opacity="0.4"/>
<path fill-rule="evenodd" clip-rule="evenodd" d="M55.3981 91.6672C50.5235 130.784 55.5345 124.143 69.2798 147.201Z" fill="#E9ECE0" fill-opacity="0.4"/>
<path fill-rule="evenodd" clip-rule="evenodd" d="M54.0006 125.984C51.4849 119.474 51.5257 110.981 53.9551 91.487L56.8379 91.8487C54.3926 111.471 54.5016 119.216 56.7093 124.929C57.8141 127.788 59.4695 130.203 61.8026 133.443C62.0029 133.722 62.2078 134.005 62.4171 134.295C64.6336 137.365 67.3514 141.128 70.5255 146.453L68.0324 147.95C64.926 142.739 62.2751 139.068 60.0619 136.002C59.8533 135.714 59.6486 135.43 59.4478 135.151C57.1276 131.929 55.2575 129.236 54.0006 125.984Z" fill="#E9ECE0" fill-opacity="0.4"/>
<path fill-rule="evenodd" clip-rule="evenodd" d="M104.642 0.193317C127.907 31.9542 120.305 28.6107 119.511 55.4692Z" fill="#E9ECE0" fill-opacity="0.4"/>
<path fill-rule="evenodd" clip-rule="evenodd" d="M119.184 29.9412C118.355 24.013 114.767 17.2939 103.084 1.34472L106.2 -0.954121C117.782 14.8571 122.027 22.3465 123.014 29.4013C123.507 32.9252 123.175 36.2492 122.715 40.1942C122.676 40.5361 122.635 40.8838 122.593 41.2379C122.151 44.9962 121.623 49.4802 121.444 55.5278L117.579 55.4129C117.763 49.1892 118.308 44.5542 118.752 40.7885C118.794 40.4329 118.835 40.0849 118.874 39.7442C119.337 35.7697 119.6 32.9087 119.184 29.9412Z" fill="#E9ECE0" fill-opacity="0.4"/>
<path fill-rule="evenodd" clip-rule="evenodd" d="M55.3991 91.6692C57.5571 112.986 79.3962 110.708 69.281 147.202Z" fill="#E9ECE0" fill-opacity="0.4"/>
<path fill-rule="evenodd" clip-rule="evenodd" d="M62.5315 110.25C58.8129 105.488 54.8176 100.372 53.9515 91.8171L56.8419 91.5222C57.6156 99.1635 60.946 103.441 64.5521 108.073C65.7474 109.608 66.973 111.182 68.1459 112.931C70.4712 116.397 72.4287 120.414 73.1226 125.945C73.8128 131.448 73.2409 138.351 70.679 147.594L67.8799 146.812C70.3758 137.808 70.8673 131.311 70.24 126.31C69.6165 121.339 67.8757 117.749 65.7357 114.559C64.7558 113.098 63.6563 111.69 62.5315 110.25Z" fill="#E9ECE0" fill-opacity="0.4"/>
<path fill-rule="evenodd" clip-rule="evenodd" d="M104.642 0.192864C113.117 19.8588 92.9466 28.5625 119.51 55.4692Z" fill="#E9ECE0" fill-opacity="0.4"/>
<path fill-rule="evenodd" clip-rule="evenodd" d="M104.153 18.8447C105.043 13.0725 105.844 7.87844 102.866 0.966814L106.415 -0.573956C109.877 7.4595 108.846 14.061 107.909 20.0579C107.63 21.8449 107.359 23.5781 107.218 25.2796C106.905 29.0573 107.126 32.9636 108.963 37.5219C110.815 42.1171 114.357 47.4962 120.883 54.1059L118.136 56.8377C111.379 49.9943 107.481 44.1956 105.378 38.9769C103.26 33.7213 103.014 29.1777 103.364 24.9581C103.543 22.7964 103.853 20.7878 104.153 18.8447Z" fill="#E9ECE0" fill-opacity="0.4"/>
<path fill-rule="evenodd" clip-rule="evenodd" d="M55.4004 91.6698C53.2077 93.6172 97.1587 116.73 69.2839 147.202Z" fill="#E9ECE0" fill-opacity="0.4"/>
<path fill-rule="evenodd" clip-rule="evenodd" d="M53.8932 92.1697C53.8044 91.6675 53.9176 91.0383 54.4348 90.579L56.3604 92.7623C56.7406 92.4247 56.8069 91.9586 56.754 91.66C56.7332 91.5422 56.6982 91.4646 56.683 91.4355C56.686 91.4403 56.6899 91.4463 56.695 91.4537C56.7923 91.5954 57.0349 91.8656 57.4991 92.3003C58.1093 92.8716 58.9273 93.5696 59.9217 94.4182C60.4098 94.8347 60.9403 95.2874 61.5097 95.7793C64.904 98.7114 69.424 102.822 73.1395 107.875C76.8539 112.926 79.8393 119.018 80.016 125.907C80.1937 132.838 77.5234 140.349 70.3516 148.189L68.2112 146.217C74.9772 138.821 77.2661 132.016 77.1113 125.982C76.9555 119.907 74.3165 114.386 70.8015 109.606C67.2875 104.828 62.9729 100.891 59.614 97.989C59.093 97.5389 58.5882 97.1081 58.111 96.7008C57.0795 95.8205 56.1768 95.0501 55.5168 94.432C55.0434 93.9888 54.5939 93.533 54.3018 93.1073C54.1632 92.9052 53.9654 92.5777 53.8932 92.1697ZM56.6755 91.4227C56.6758 91.4228 56.6786 91.4271 56.683 91.4355C56.6775 91.4269 56.6753 91.4227 56.6755 91.4227Z" fill="#E9ECE0" fill-opacity="0.4"/>
<path fill-rule="evenodd" clip-rule="evenodd" d="M53.4325 89.1376C51.5756 88.6794 43.621 131.808 16.0516 129.129Z" fill="#E9ECE0" fill-opacity="0.4"/>
<path fill-rule="evenodd" clip-rule="evenodd" d="M51.9611 87.8915C52.1647 87.6945 52.8647 87.0958 53.8734 87.3447L52.9929 90.9362C53.8855 91.1564 54.4576 90.6142 54.5204 90.5534C54.5801 90.4956 54.6157 90.4494 54.6286 90.4314C54.624 90.4385 54.6165 90.4506 54.6063 90.4684C54.5111 90.6338 54.3581 90.9649 54.1368 91.5219C53.8418 92.2643 53.4956 93.2245 53.0753 94.3905C52.8736 94.9497 52.655 95.5562 52.4167 96.2087C50.971 100.168 48.9033 105.537 46.0019 110.857C40.2653 121.375 30.843 132.428 15.8748 130.973L16.2303 127.292C28.8313 128.516 37.1709 119.344 42.768 109.082C45.5335 104.011 47.5257 98.8516 48.9553 94.9366C49.1747 94.3358 49.3833 93.757 49.5807 93.2098C50.0153 92.0043 50.3949 90.9517 50.7124 90.1525C50.9402 89.5792 51.1754 89.0333 51.4141 88.6186C51.5263 88.4238 51.7051 88.1393 51.9611 87.8915ZM54.634 90.4233C54.634 90.4234 54.6322 90.4263 54.6286 90.4314C54.6322 90.4257 54.634 90.4231 54.634 90.4233Z" fill="#E9ECE0" fill-opacity="0.4"/>
<path fill-rule="evenodd" clip-rule="evenodd" d="M52.2981 80.6705C51.9378 82.5545 95.4402 86.1786 94.1983 113.94Z" fill="#E9ECE0" fill-opacity="0.4"/>
<path fill-rule="evenodd" clip-rule="evenodd" d="M51.9733 81.3294C51.8477 81.2191 51.6003 80.9477 51.6765 80.5493L52.9202 80.7887C52.9451 80.6582 52.9153 80.5448 52.8772 80.4699C52.8445 80.4055 52.8091 80.3749 52.8074 80.3734L52.8074 80.3734C52.8071 80.3731 52.8069 80.373 52.8069 80.373C52.8069 80.3729 52.8185 80.3824 52.8484 80.4C52.8806 80.419 52.9256 80.4425 52.9863 80.4703C53.2389 80.5861 53.6481 80.7244 54.2218 80.8905C54.9923 81.1135 55.9914 81.3678 57.1808 81.6705C57.7533 81.8162 58.3698 81.9731 59.0262 82.1432C63.0424 83.1837 68.4458 84.6905 73.8295 87.0162C84.5541 91.6491 95.4711 99.6609 94.8311 113.966L93.566 113.909C94.168 100.454 83.9546 92.7734 73.3286 88.183C68.0369 85.8971 62.7099 84.4096 58.7095 83.3732C58.072 83.2081 57.4655 83.0537 56.8972 82.9091C55.6934 82.6027 54.6613 82.34 53.8706 82.1111C53.2917 81.9435 52.8044 81.7837 52.46 81.6259C52.2927 81.5492 52.1146 81.4534 51.9733 81.3294Z" fill="#E9ECE0" fill-opacity="0.4"/>
<path fill-rule="evenodd" clip-rule="evenodd" d="M104.64 0.196293C107.5 0.822862 80.3662 42.5152 119.509 55.4712Z" fill="#E9ECE0" fill-opacity="0.4"/>
<path fill-rule="evenodd" clip-rule="evenodd" d="M102.996 1.00974C103.139 1.42355 103.537 1.94169 104.227 2.09276L105.052 -1.6989C105.921 -1.50868 106.439 -0.871175 106.65 -0.262052C106.819 0.22671 106.798 0.691369 106.773 0.95965C106.72 1.53106 106.534 2.19262 106.336 2.8132C106.056 3.68673 105.636 4.8188 105.161 6.09924C104.943 6.68594 104.714 7.3038 104.481 7.9422C102.962 12.112 101.125 17.6193 100.387 23.4548C99.6484 29.2926 100.032 35.2933 102.787 40.5543C105.515 45.766 110.709 50.5149 120.115 53.6283L118.904 57.314C108.739 53.9495 102.645 48.6285 99.363 42.3595C96.1065 36.1399 95.7555 29.2493 96.5502 22.9663C97.3452 16.6811 99.3086 10.8382 100.849 6.60967C101.111 5.8912 101.356 5.23095 101.581 4.6264C102.033 3.40715 102.402 2.41448 102.653 1.62777C102.844 1.02975 102.911 0.718923 102.922 0.601413C102.921 0.654414 102.926 0.808568 102.996 1.00974ZM102.923 0.597547C102.923 0.598811 102.923 0.600101 102.922 0.601413Z" fill="#E9ECE0" fill-opacity="0.4"/>
<path fill-rule="evenodd" clip-rule="evenodd" d="M88.812 -97.7941C88.8031 -99.1409 84.8596 -16.3131 108.479 5.52676Z" fill="#E9ECE0" fill-opacity="0.4"/>
<path fill-rule="evenodd" clip-rule="evenodd" d="M91.8098 -97.9779C91.8143 -97.8982 91.8148 -97.8337 91.8149 -97.8149L85.8088 -97.7747L85.8088 -97.7738C85.8089 -97.7628 85.8092 -97.7076 85.8133 -97.6355C85.8163 -97.5894 85.829 -97.455 85.8406 -97.368C85.881 -97.1502 86.4507 -95.9472 87.2867 -95.2137C89.5255 -94.8834 91.5509 -96.5777 91.6923 -96.9625C91.7255 -97.0859 91.765 -97.271 91.7752 -97.3307C91.789 -97.4173 91.7957 -97.4851 91.7968 -97.4964L91.7969 -97.4975C91.7997 -97.5258 91.801 -97.5441 91.8009 -97.5421C91.8008 -97.5405 91.7999 -97.5278 91.7982 -97.4996C91.7926 -97.4045 91.7835 -97.2267 91.772 -96.9638C91.7491 -96.4434 91.7184 -95.6275 91.6874 -94.551C91.6256 -92.3989 91.5636 -89.2174 91.5627 -85.2898C91.5608 -77.4298 91.8036 -66.6094 92.7772 -55.0843C93.7522 -43.5426 95.4528 -31.3855 98.3371 -20.8177C101.249 -10.1489 105.248 -1.56125 110.515 3.30864L106.446 7.74302C99.9023 1.69302 95.5362 -8.26267 92.5443 -19.2245C89.5249 -30.2872 87.783 -42.8478 86.7924 -54.5747C85.8004 -66.318 85.5545 -77.3171 85.5564 -85.291C85.5574 -89.2803 85.6204 -92.5194 85.6837 -94.7244C85.7153 -95.8265 85.7472 -96.6733 85.7715 -97.2289C85.7836 -97.504 85.7943 -97.7175 85.8026 -97.8582C85.8057 -97.91 85.8116 -98.0078 85.8204 -98.0962L85.8205 -98.0976C85.8225 -98.1169 85.8299 -98.1924 85.8447 -98.2847C85.8552 -98.3468 85.8951 -98.5336 85.9286 -98.6581C86.0704 -99.0441 88.0961 -100.739 90.3351 -100.408C91.1715 -99.6747 91.7414 -98.4709 91.782 -98.2517C91.7937 -98.1632 91.8067 -98.0268 91.8098 -97.9779Z" fill="#E9ECE0" fill-opacity="0.4"/>
</svg>
