<svg width="449" height="372" viewBox="0 0 449 372" fill="none" xmlns="http://www.w3.org/2000/svg">
<g filter="url(#filter0_d_85_6855)">
<path fill-rule="evenodd" clip-rule="evenodd" d="M61.0759 291.703C291.661 279.987 416.658 141.218 487.591 4.49738L482.5 0.950958C412.345 136.172 288.973 273.234 60.8157 284.827L61.0759 291.703Z" fill="white" fill-opacity="0.17"/>
<path fill-rule="evenodd" clip-rule="evenodd" d="M157.048 274.974C158.375 274.974 130.227 323.714 96.9806 337.797L157.048 274.974Z" fill="white" fill-opacity="0.17"/>
<path fill-rule="evenodd" clip-rule="evenodd" d="M158.859 272.231C158.235 271.687 157.561 271.531 157.048 271.531V278.414C156.556 278.414 155.899 278.264 155.288 277.731C154.687 277.208 154.393 276.541 154.258 276.049C154.038 275.245 154.149 274.587 154.169 274.472L154.17 274.463C154.201 274.276 154.241 274.14 154.26 274.081C154.258 274.086 154.256 274.092 154.254 274.099C154.184 274.275 154.005 274.67 153.668 275.317C153.015 276.572 151.943 278.45 150.486 280.799C147.579 285.485 143.219 291.911 137.79 298.778C126.866 312.593 111.909 327.807 95.9611 334.563L98.0003 341.027C115.299 333.7 131.039 317.503 142.169 303.427C147.767 296.349 152.273 289.71 155.309 284.817C156.823 282.376 157.993 280.336 158.755 278.871C159.126 278.158 159.447 277.492 159.661 276.947C159.747 276.727 159.917 276.278 160.003 275.762L160.004 275.758C160.034 275.573 160.157 274.834 159.919 273.966C159.778 273.45 159.473 272.767 158.859 272.231ZM154.272 274.05C154.271 274.05 154.267 274.061 154.26 274.081C154.269 274.06 154.272 274.05 154.272 274.05Z" fill="white" fill-opacity="0.17"/>
<path fill-rule="evenodd" clip-rule="evenodd" d="M99.5234 336.654C99.6116 339.122 97.2458 365.661 63.4802 360.562L99.5234 336.654Z" fill="white" fill-opacity="0.17"/>
<path fill-rule="evenodd" clip-rule="evenodd" d="M100.568 342.823C101.357 339.874 101.535 337.487 101.502 336.555L97.5455 336.745C97.5563 337.047 97.4714 338.903 96.7863 341.465C96.1128 343.983 94.8892 347.065 92.7126 349.924C88.4494 355.523 80.1365 360.76 63.7363 358.283L63.2246 362.833C80.5898 365.455 90.3427 359.972 95.6817 352.959C98.3061 349.512 99.7678 345.816 100.568 342.823Z" fill="white" fill-opacity="0.17"/>
<path fill-rule="evenodd" clip-rule="evenodd" d="M64.0736 290.871C65.4883 290.363 81.2946 287.476 84.3546 314.668L64.0736 290.871Z" fill="white" fill-opacity="0.17"/>
<path fill-rule="evenodd" clip-rule="evenodd" d="M67.429 289.969C65.6556 289.884 64.3426 290.164 63.9222 290.315L64.223 291.439C64.51 291.336 65.7034 291.064 67.3871 291.145C69.0608 291.225 71.1913 291.652 73.3692 292.914C77.6936 295.42 82.3365 301.297 83.8504 314.75L84.8571 314.598C83.3109 300.859 78.5206 294.584 73.8232 291.862C71.4901 290.51 69.2126 290.055 67.429 289.969Z" fill="white" fill-opacity="0.17"/>
<path fill-rule="evenodd" clip-rule="evenodd" d="M71.3214 286.219C70.7415 285.147 65.0874 273.608 81.2332 265.94L71.3214 286.219Z" fill="white" fill-opacity="0.17"/>
<path fill-rule="evenodd" clip-rule="evenodd" d="M68.3057 278.248C67.6789 282.932 69.4948 286.594 69.8642 287.277L72.7786 285.161C72.5681 284.772 71.267 282.129 71.7046 278.858C72.1156 275.787 74.1703 271.448 81.8854 267.785L80.5812 264.097C72.1503 268.1 68.9591 273.365 68.3057 278.248Z" fill="white" fill-opacity="0.17"/>
<path fill-rule="evenodd" clip-rule="evenodd" d="M99.5234 336.655C99.6116 339.123 94.208 340.166 63.4802 360.562L99.5234 336.655Z" fill="white" fill-opacity="0.17"/>
<path fill-rule="evenodd" clip-rule="evenodd" d="M99.3589 340.461C100.376 339.664 101.571 338.498 101.501 336.557L97.5453 336.747C97.5337 336.424 97.6434 336.225 97.676 336.175C97.6421 336.218 97.5046 336.375 97.1408 336.66C96.2843 337.332 94.7804 338.261 92.145 339.847C91.7984 340.056 91.4345 340.274 91.0526 340.504C85.7189 343.71 76.8672 349.03 62.4961 358.569L64.4642 362.551C78.7645 353.058 87.5602 347.772 92.8776 344.576C93.2596 344.346 93.6236 344.127 93.9704 343.919C96.5159 342.386 98.2668 341.317 99.3589 340.461ZM97.685 336.163C97.6847 336.163 97.6814 336.167 97.676 336.175C97.6826 336.167 97.6853 336.163 97.685 336.163Z" fill="white" fill-opacity="0.17"/>
<path fill-rule="evenodd" clip-rule="evenodd" d="M64.0736 290.871C65.4883 290.363 67.056 294.383 84.3546 314.668L64.0736 290.871Z" fill="white" fill-opacity="0.17"/>
<path fill-rule="evenodd" clip-rule="evenodd" d="M65.7393 291.08C65.1131 290.447 64.5559 290.082 63.9222 290.31L64.223 291.434C64.2968 291.407 64.466 291.354 65.0722 291.966C65.6609 292.561 66.507 293.619 67.8813 295.369C68.064 295.601 68.2557 295.846 68.4568 296.102C71.2628 299.679 75.9147 305.61 83.9926 315.082L84.7147 314.255C76.6516 304.8 72.0105 298.883 69.2077 295.31C69.0065 295.054 68.8149 294.81 68.6321 294.577C67.2753 292.849 66.383 291.73 65.7393 291.08Z" fill="white" fill-opacity="0.17"/>
<path fill-rule="evenodd" clip-rule="evenodd" d="M71.3209 286.219C70.7411 285.146 72.9173 283.092 82.124 264.97L71.3209 286.219Z" fill="white" fill-opacity="0.17"/>
<path fill-rule="evenodd" clip-rule="evenodd" d="M69.9271 284.115C69.6409 284.788 69.1919 286.035 69.8638 287.277L72.7786 285.162C73.0137 285.596 72.9546 285.986 72.932 286.086C72.9423 286.053 72.966 285.985 73.0126 285.876C73.2243 285.378 73.6626 284.568 74.4977 283.069C74.6062 282.874 74.7202 282.67 74.8399 282.455C76.5131 279.456 79.293 274.472 83.6062 265.982L80.6422 263.96C76.3649 272.379 73.6148 277.309 71.9503 280.294C71.8306 280.508 71.7165 280.713 71.6078 280.908C70.8205 282.321 70.248 283.36 69.9271 284.115ZM72.9252 286.111C72.9257 286.111 72.9284 286.102 72.932 286.086C72.9266 286.104 72.9248 286.112 72.9252 286.111Z" fill="white" fill-opacity="0.17"/>
<path fill-rule="evenodd" clip-rule="evenodd" d="M99.5235 336.655C99.6117 339.122 73.3585 322.805 63.4802 360.562L99.5235 336.655Z" fill="white" fill-opacity="0.17"/>
<path fill-rule="evenodd" clip-rule="evenodd" d="M100.67 338.64C101.265 338.105 101.528 337.31 101.501 336.555L97.5452 336.744C97.5237 336.144 97.7412 335.466 98.2413 335.016C98.6101 334.684 98.9602 334.638 99.0138 334.631L99.0157 334.631C99.0498 334.626 99.0695 334.625 99.0695 334.624C99.0695 334.622 98.9725 334.619 98.7204 334.572C98.3286 334.499 97.8728 334.387 97.2957 334.246C96.8462 334.136 96.3232 334.007 95.6996 333.865C93.0279 333.257 89.218 332.578 85.0321 333.088C80.8192 333.601 76.2134 335.321 72.0041 339.497C67.8039 343.664 64.1371 350.138 61.5854 359.891L65.3747 361.223C67.7622 352.097 71.0814 346.452 74.5791 342.982C78.0678 339.521 81.8719 338.087 85.4461 337.651C89.0472 337.212 92.4014 337.79 94.9361 338.368C95.4021 338.474 95.8735 338.588 96.3204 338.697C97.0039 338.863 97.6297 339.015 98.0896 339.101C98.4527 339.169 98.9779 339.254 99.4673 339.189C99.7037 339.158 100.202 339.061 100.67 338.64Z" fill="white" fill-opacity="0.17"/>
<path fill-rule="evenodd" clip-rule="evenodd" d="M64.0736 290.871C65.4883 290.363 60.7062 313.706 84.3546 314.668L64.0736 290.871Z" fill="white" fill-opacity="0.17"/>
<path fill-rule="evenodd" clip-rule="evenodd" d="M64.4967 290.426C64.3222 290.272 64.1107 290.244 63.9231 290.311L64.2239 291.435C64.1248 291.471 63.9896 291.457 63.8814 291.362C63.8197 291.307 63.7986 291.253 63.7988 291.252C63.7989 291.252 63.8 291.255 63.802 291.261C63.8223 291.321 63.8507 291.472 63.8761 291.768C63.9049 292.103 63.9234 292.519 63.9457 293.022C63.9622 293.393 63.9808 293.812 64.0072 294.28C64.1285 296.433 64.4066 299.402 65.4021 302.43C66.4001 305.465 68.1204 308.563 71.1199 310.959C74.1168 313.352 78.3522 315.014 84.3368 315.258L84.3724 314.082C78.5328 313.845 74.4978 312.228 71.696 309.99C68.8968 307.754 67.2901 304.868 66.3508 302.011C65.4089 299.146 65.1392 296.315 65.0203 294.203C64.9966 293.783 64.9785 293.38 64.9619 293.01C64.9378 292.475 64.9169 292.007 64.8863 291.652C64.8609 291.357 64.8239 291.058 64.7472 290.831C64.7097 290.72 64.6386 290.551 64.4967 290.426Z" fill="white" fill-opacity="0.17"/>
<path fill-rule="evenodd" clip-rule="evenodd" d="M71.3214 286.219C70.7416 285.147 86.0032 283.114 82.1244 263.401L71.3214 286.219Z" fill="white" fill-opacity="0.17"/>
<path fill-rule="evenodd" clip-rule="evenodd" d="M69.7043 285.407C69.5026 286.023 69.5584 286.711 69.864 287.276L72.7784 285.159C73.0477 285.657 73.0983 286.276 72.9201 286.821C72.7835 287.238 72.561 287.462 72.51 287.513C72.4512 287.572 72.4088 287.601 72.4089 287.602C72.409 287.602 72.4408 287.58 72.5211 287.535C72.7044 287.433 72.9178 287.33 73.2024 287.191C73.4194 287.086 73.6778 286.96 73.9958 286.8C75.3377 286.124 77.2406 285.066 79.0525 283.338C80.878 281.598 82.6204 279.169 83.6189 275.774C84.6167 272.381 84.8276 268.174 83.801 262.957L80.4476 263.843C81.3604 268.482 81.1181 271.922 80.3633 274.488C79.6093 277.052 78.2998 278.894 76.8672 280.26C75.421 281.639 73.8595 282.522 72.6242 283.145C72.4226 283.246 72.2082 283.351 71.9984 283.454C71.6321 283.633 71.28 283.805 71.0349 283.941C70.854 284.041 70.5367 284.223 70.2692 284.489C70.1392 284.619 69.8644 284.918 69.7043 285.407Z" fill="white" fill-opacity="0.17"/>
<path fill-rule="evenodd" clip-rule="evenodd" d="M370.963 202.945C372.879 205.459 390.94 250.599 350.631 263.918L370.963 202.945Z" fill="white" fill-opacity="0.17"/>
<path fill-rule="evenodd" clip-rule="evenodd" d="M372.835 203.027C372.604 202.549 372.354 202.077 372.115 201.764L369.811 204.122C369.809 204.118 369.808 204.117 369.808 204.117C369.807 204.117 369.837 204.16 369.898 204.269C369.964 204.388 370.05 204.552 370.152 204.765C370.357 205.189 370.611 205.767 370.898 206.485C371.47 207.921 372.153 209.875 372.8 212.204C374.098 216.871 375.232 222.96 375.095 229.334C374.959 235.696 373.561 242.282 369.85 248.061C366.144 253.831 360.03 258.959 350.209 262.204L351.052 265.629C361.386 262.214 368.13 256.705 372.316 250.187C376.495 243.678 378.02 236.324 378.168 229.422C378.315 222.532 377.094 216.031 375.726 211.112C375.04 208.646 374.313 206.558 373.688 204.991C373.376 204.209 373.086 203.547 372.835 203.027Z" fill="white" fill-opacity="0.17"/>
<path fill-rule="evenodd" clip-rule="evenodd" d="M60.9458 283.795C59.0416 286.322 22.7471 312.908 6.14136 268.31L60.9458 283.795Z" fill="white" fill-opacity="0.17"/>
<path fill-rule="evenodd" clip-rule="evenodd" d="M61.0561 285.863C61.435 285.537 61.7987 285.194 62.0278 284.89L59.864 282.701C59.8663 282.697 59.8662 282.698 59.8634 282.701C59.8543 282.711 59.8175 282.753 59.7385 282.831C59.6432 282.925 59.5117 283.046 59.3421 283.192C59.0032 283.484 58.539 283.853 57.9595 284.277C56.8016 285.122 55.2137 286.162 53.3011 287.208C49.4681 289.306 44.3932 291.401 38.9065 292.069C33.4295 292.736 27.5911 291.979 22.1437 288.447C16.704 284.92 11.5127 278.534 7.46018 267.65L4.82251 268.969C9.0729 280.384 14.6456 287.4 20.7409 291.352C26.8287 295.299 33.2965 296.1 39.2069 295.38C45.1076 294.661 50.5013 292.422 54.528 290.218C56.5453 289.114 58.235 288.01 59.4913 287.093C60.1189 286.634 60.646 286.217 61.0561 285.863Z" fill="white" fill-opacity="0.17"/>
<path fill-rule="evenodd" clip-rule="evenodd" d="M63.4488 286.025C63.9125 288.149 58.9356 323.867 23.1086 326.977L63.4488 286.025Z" fill="white" fill-opacity="0.17"/>
<path fill-rule="evenodd" clip-rule="evenodd" d="M65.2841 286.928C65.3032 286.56 65.3211 285.994 65.2147 285.507L61.6818 286.543C61.6594 286.44 61.6545 286.377 61.6537 286.377C61.6527 286.377 61.6574 286.463 61.6464 286.673C61.6311 286.968 61.5919 287.393 61.5177 287.937C61.3697 289.022 61.0926 290.511 60.6343 292.273C59.7173 295.799 58.0926 300.355 55.3839 304.938C50.0046 314.039 40.2876 323.368 22.972 324.871L23.2442 329.082C41.7556 327.476 52.4405 317.391 58.3905 307.324C61.3464 302.323 63.1182 297.357 64.1235 293.491C64.6264 291.558 64.9419 289.883 65.1173 288.596C65.2047 287.955 65.26 287.391 65.2841 286.928Z" fill="white" fill-opacity="0.17"/>
<path fill-rule="evenodd" clip-rule="evenodd" d="M71.804 287.262C69.95 287.689 39.5738 281.141 38.7455 239.519L71.804 287.262Z" fill="white" fill-opacity="0.17"/>
<path fill-rule="evenodd" clip-rule="evenodd" d="M71.0797 287.977C71.4023 288.012 71.7122 288.025 71.9269 287.975L71.6828 286.552C71.6837 286.552 71.6834 286.552 71.6818 286.552C71.6741 286.553 71.6359 286.558 71.5547 286.557C71.465 286.556 71.3451 286.549 71.1946 286.533C70.894 286.501 70.4921 286.436 70.0014 286.329C69.0211 286.116 67.7067 285.741 66.1715 285.149C63.1005 283.964 59.1653 281.917 55.2628 278.577C47.4786 271.915 39.7814 260.076 39.372 239.504L38.1205 239.537C38.5394 260.587 46.4445 272.833 54.519 279.744C58.5459 283.19 62.6041 285.302 65.776 286.525C67.3623 287.137 68.7316 287.529 69.7706 287.755C70.2896 287.868 70.7312 287.94 71.0797 287.977Z" fill="white" fill-opacity="0.17"/>
<path fill-rule="evenodd" clip-rule="evenodd" d="M150.746 226.715C150.109 223.442 129.115 180.04 96.189 210.097L150.746 226.715Z" fill="white" fill-opacity="0.17"/>
<path fill-rule="evenodd" clip-rule="evenodd" d="M148.875 227.19C148.882 227.213 148.883 227.217 148.88 227.203L152.611 226.23C152.522 225.773 152.323 225.224 152.123 224.726C151.902 224.174 151.604 223.503 151.236 222.744C150.498 221.225 149.456 219.303 148.124 217.201C145.467 213.009 141.607 208.014 136.657 204.082C131.696 200.14 125.585 197.225 118.488 197.339C111.38 197.454 103.498 200.606 95.0057 208.358L97.3719 211.839C105.342 204.563 112.433 201.868 118.541 201.77C124.661 201.671 130.012 204.175 134.495 207.736C138.988 211.306 142.554 215.897 145.042 219.824C146.282 221.781 147.241 223.553 147.903 224.916C148.234 225.598 148.484 226.166 148.656 226.594C148.796 226.944 148.856 227.131 148.875 227.19Z" fill="white" fill-opacity="0.17"/>
<path fill-rule="evenodd" clip-rule="evenodd" d="M370.963 202.945C372.879 205.459 367.954 211.921 350.631 263.918L370.963 202.945Z" fill="white" fill-opacity="0.17"/>
<path fill-rule="evenodd" clip-rule="evenodd" d="M372.501 206.736C372.975 204.919 373.181 203.164 372.114 201.765L369.811 204.122C369.809 204.118 369.806 204.112 369.803 204.104C369.803 204.102 369.803 204.101 369.802 204.1C369.802 204.099 369.811 204.129 369.813 204.212C369.82 204.439 369.774 204.88 369.559 205.703C369.128 207.353 368.195 209.909 366.601 214.165C366.39 214.729 366.168 215.32 365.935 215.941C362.683 224.608 357.29 238.982 349.196 263.276L352.064 264.559C360.134 240.333 365.508 226.011 368.755 217.359C368.987 216.739 369.209 216.147 369.42 215.584C370.983 211.411 372.006 208.63 372.501 206.736Z" fill="white" fill-opacity="0.17"/>
<path fill-rule="evenodd" clip-rule="evenodd" d="M60.9458 283.799C59.0416 286.326 52.8753 281.501 6.14136 268.314L60.9458 283.799Z" fill="white" fill-opacity="0.17"/>
<path fill-rule="evenodd" clip-rule="evenodd" d="M57.9162 285.942C59.5293 286.252 61.0064 286.249 62.0278 284.894L59.864 282.704L59.854 282.716L59.8514 282.719C59.8517 282.719 59.8517 282.719 59.8511 282.72M57.9162 285.942C56.2383 285.619 53.7334 284.806 49.958 283.549L57.9162 285.942ZM49.958 283.549C49.4477 283.379 48.9123 283.2 48.3506 283.012L49.958 283.549ZM48.3506 283.012C40.5268 280.4 27.5755 276.075 5.80151 269.931L48.3506 283.012ZM5.80151 269.931L6.4812 266.696L5.80151 269.931ZM6.4812 266.696C28.3127 272.857 41.308 277.196 49.1445 279.813L6.4812 266.696ZM49.1445 279.813C49.7063 280.001 50.2416 280.179 50.7517 280.349L49.1445 279.813ZM50.7517 280.349C54.5976 281.631 56.9122 282.374 58.3865 282.658L50.7517 280.349ZM58.3865 282.658C59.1226 282.799 59.5185 282.797 59.7284 282.758L58.3865 282.658ZM59.7284 282.758C59.8194 282.74 59.8507 282.72 59.8508 282.72L59.7284 282.758ZM59.8508 282.72C59.8509 282.72 59.851 282.72 59.8511 282.72L59.8508 282.72Z" fill="white" fill-opacity="0.17"/>
<path fill-rule="evenodd" clip-rule="evenodd" d="M415.833 65.8507C415.083 68.7844 405.158 68.237 343.41 82.1484L415.833 65.8507Z" fill="white" fill-opacity="0.17"/>
<path fill-rule="evenodd" clip-rule="evenodd" d="M415.965 68.7936C416.693 68.3337 417.399 67.6236 417.689 66.4903L413.979 65.2157C414.053 64.9286 414.193 64.8036 414.192 64.8025C414.192 64.8021 414.17 64.8208 414.113 64.8564C413.874 65.0079 413.38 65.227 412.416 65.5056C410.51 66.0568 407.363 66.682 402.181 67.6731C401.493 67.8049 400.769 67.9428 400.011 68.0875C389.425 70.1065 371.876 73.4537 343.041 79.95L343.78 84.3516C372.56 77.8675 390.067 74.5284 400.64 72.5117C401.399 72.367 402.123 72.2291 402.812 72.0973C407.923 71.1196 411.258 70.4622 413.353 69.8562C414.391 69.5562 415.278 69.2281 415.965 68.7936Z" fill="white" fill-opacity="0.17"/>
<path fill-rule="evenodd" clip-rule="evenodd" d="M63.4481 286.026C63.9118 288.149 57.6297 292.018 24.0105 326.75L63.4481 286.026Z" fill="white" fill-opacity="0.17"/>
<path fill-rule="evenodd" clip-rule="evenodd" d="M64.8322 288.036C65.1698 287.377 65.4317 286.501 65.2143 285.506L61.6814 286.541C61.5929 286.136 61.7085 285.864 61.7075 285.863C61.7074 285.863 61.7047 285.869 61.6985 285.881C61.6281 286.018 61.4258 286.326 60.9268 286.898C59.9431 288.027 58.2199 289.73 55.3368 292.542C54.9546 292.915 54.5533 293.306 54.1322 293.717C48.2525 299.446 38.5024 308.948 22.7977 325.172L25.2228 328.324C40.8887 312.14 50.6079 302.669 56.4787 296.948C56.8999 296.537 57.3012 296.146 57.6836 295.773C60.5154 293.011 62.377 291.178 63.4913 289.899C64.0413 289.267 64.5165 288.653 64.8322 288.036Z" fill="white" fill-opacity="0.17"/>
<path fill-rule="evenodd" clip-rule="evenodd" d="M71.804 287.264C69.95 287.691 66.9402 280.222 38.7455 239.521L71.804 287.264Z" fill="white" fill-opacity="0.17"/>
<path fill-rule="evenodd" clip-rule="evenodd" d="M70.6615 287.606C71.0573 287.911 71.476 288.077 71.9268 287.973L71.6827 286.55L71.6816 286.55C71.6658 286.554 71.5833 286.574 71.3553 286.398C71.1092 286.208 70.7724 285.85 70.2889 285.222C69.3265 283.973 67.9135 281.836 65.6523 278.375C65.3508 277.913 65.0345 277.429 64.7027 276.92C60.071 269.824 52.3944 258.062 39.2341 239.064L38.2578 239.972C51.407 258.954 59.0752 270.703 63.7045 277.796C64.0364 278.304 64.3526 278.789 64.6541 279.25C66.9014 282.691 68.3507 284.885 69.3552 286.188C69.8551 286.837 70.2779 287.31 70.6615 287.606Z" fill="white" fill-opacity="0.17"/>
<path fill-rule="evenodd" clip-rule="evenodd" d="M150.746 226.715C150.109 223.442 142.704 224.284 96.189 210.097L150.746 226.715Z" fill="white" fill-opacity="0.17"/>
<path fill-rule="evenodd" clip-rule="evenodd" d="M148.954 227.388C148.931 227.353 148.899 227.291 148.881 227.197L152.611 226.223C152.209 224.158 150.675 223.255 149.117 222.633C147.477 221.979 144.907 221.304 141.082 220.33C140.564 220.198 140.02 220.06 139.45 219.915C131.499 217.897 118.34 214.557 96.6759 207.95L95.7026 212.235C117.443 218.865 130.661 222.22 138.63 224.243C139.2 224.388 139.744 224.526 140.262 224.658C144.182 225.656 146.491 226.272 147.871 226.823C148.597 227.112 148.872 227.312 148.954 227.388ZM148.984 227.422C148.986 227.422 148.978 227.41 148.954 227.388C148.97 227.411 148.981 227.422 148.984 227.422Z" fill="white" fill-opacity="0.17"/>
<path fill-rule="evenodd" clip-rule="evenodd" d="M370.963 202.945C371.021 247.951 366.906 239.722 350.631 263.918L370.963 202.945Z" fill="white" fill-opacity="0.17"/>
<path fill-rule="evenodd" clip-rule="evenodd" d="M368.276 242.077C371.545 235.024 372.529 225.365 372.5 202.941L369.427 202.946C369.456 225.528 368.411 234.258 365.568 240.392C364.146 243.461 362.238 245.955 359.556 249.299C359.326 249.586 359.091 249.879 358.851 250.178C356.305 253.345 353.18 257.231 349.419 262.822L351.843 265.012C355.518 259.548 358.561 255.764 361.103 252.602C361.342 252.304 361.577 252.011 361.808 251.724C364.474 248.399 366.643 245.601 368.276 242.077Z" fill="white" fill-opacity="0.17"/>
<path fill-rule="evenodd" clip-rule="evenodd" d="M60.9458 283.793C22.4396 289.675 28.9492 283.883 6.14136 268.308L60.9458 283.793Z" fill="white" fill-opacity="0.17"/>
<path fill-rule="evenodd" clip-rule="evenodd" d="M27.146 285.652C33.5765 288.485 41.943 288.374 61.1333 285.443L60.7579 282.143C41.4419 285.093 33.8102 285.027 28.1669 282.541C25.3429 281.297 22.9526 279.418 19.745 276.77C19.4696 276.542 19.1888 276.31 18.9018 276.072C15.863 273.556 12.1369 270.47 6.87036 266.874L5.41187 269.742C10.5661 273.261 14.2007 276.271 17.2351 278.783C17.5211 279.02 17.8018 279.252 18.0779 279.48C21.2677 282.114 23.9332 284.237 27.146 285.652Z" fill="white" fill-opacity="0.17"/>
<path fill-rule="evenodd" clip-rule="evenodd" d="M415.833 65.8509C374.604 90.2479 378.81 82.4178 343.41 82.1487L415.833 65.8509Z" fill="white" fill-opacity="0.17"/>
<path fill-rule="evenodd" clip-rule="evenodd" d="M377.642 85.4792C386.571 84.3708 396.124 80.0316 416.713 67.8479L414.954 63.8544C394.314 76.0678 385.355 80.0121 377.23 81.0206C373.152 81.5268 369.225 81.3009 363.987 80.9095C363.537 80.8758 363.078 80.841 362.609 80.8055C357.639 80.4289 351.568 79.9689 343.422 79.907L343.397 84.3909C351.426 84.452 357.396 84.9042 362.36 85.2803C362.828 85.3157 363.287 85.3505 363.738 85.3842C368.957 85.7742 373.192 86.0315 377.642 85.4792Z" fill="white" fill-opacity="0.17"/>
<path fill-rule="evenodd" clip-rule="evenodd" d="M150.746 226.715C119.301 200.299 122.645 208.984 96.189 210.097L150.746 226.715Z" fill="white" fill-opacity="0.17"/>
<path fill-rule="evenodd" clip-rule="evenodd" d="M121.343 210.278C127.189 211.183 133.833 215.243 149.624 228.508L151.868 224.92C136.214 211.77 128.807 206.964 121.85 205.886C118.375 205.348 115.102 205.754 111.219 206.31C110.882 206.358 110.54 206.407 110.191 206.458C106.491 206.993 102.077 207.632 96.1199 207.882L96.2586 212.31C102.389 212.052 106.952 211.392 110.659 210.855C111.009 210.805 111.352 210.755 111.687 210.707C115.6 210.147 118.417 209.824 121.343 210.278Z" fill="white" fill-opacity="0.17"/>
<path fill-rule="evenodd" clip-rule="evenodd" d="M370.963 202.945C366.269 226.795 345.113 221.147 350.63 263.918L370.963 202.945Z" fill="white" fill-opacity="0.17"/>
<path fill-rule="evenodd" clip-rule="evenodd" d="M361.778 223.089C366.006 218.213 370.571 212.947 372.462 203.339L369.465 202.547C367.79 211.061 364.031 215.411 359.938 220.147C358.577 221.721 357.179 223.339 355.808 225.166C353.1 228.778 350.685 233.07 349.331 239.262C347.984 245.419 347.713 253.338 349.111 264.18L352.151 263.653C350.791 253.11 351.095 245.695 352.31 240.137C353.518 234.613 355.65 230.807 358.128 227.503C359.259 225.995 360.503 224.56 361.778 223.089Z" fill="white" fill-opacity="0.17"/>
<path fill-rule="evenodd" clip-rule="evenodd" d="M60.9458 283.801C39.93 281.489 42.0294 256.449 6.14136 268.315L60.9458 283.801Z" fill="white" fill-opacity="0.17"/>
<path fill-rule="evenodd" clip-rule="evenodd" d="M42.5932 275.766C47.3092 279.991 52.3761 284.529 60.8102 285.457L61.0817 282.143C53.5482 281.315 49.3118 277.531 44.7247 273.434C43.2043 272.077 41.6453 270.684 39.9149 269.354C36.4841 266.716 32.5142 264.503 27.0594 263.75C21.634 263.001 14.8363 263.709 5.74719 266.714L6.53543 269.915C15.3904 266.987 21.7884 266.375 26.7196 267.056C31.6214 267.732 35.1692 269.7 38.3266 272.128C39.7723 273.239 41.1667 274.488 42.5932 275.766Z" fill="white" fill-opacity="0.17"/>
<path fill-rule="evenodd" clip-rule="evenodd" d="M415.833 65.8507C390.15 74.9017 378.158 54.4794 343.41 82.1484L415.833 65.8507Z" fill="white" fill-opacity="0.17"/>
<path fill-rule="evenodd" clip-rule="evenodd" d="M390.114 69.8734C397.985 70.7002 406.248 71.5683 416.397 67.9917L415.272 63.7017C405.91 67.0008 398.608 66.24 390.89 65.4358C388.368 65.173 385.801 64.9055 383.104 64.7737C372.139 64.238 360.04 66.1829 342.315 80.2966L344.507 83.9922C361.53 70.4367 372.801 68.7583 382.941 69.2538C385.323 69.3702 387.7 69.6199 390.114 69.8734Z" fill="white" fill-opacity="0.17"/>
<path fill-rule="evenodd" clip-rule="evenodd" d="M150.746 226.715C131.315 217.153 122.873 240.331 96.189 210.097L150.746 226.715Z" fill="white" fill-opacity="0.17"/>
<path fill-rule="evenodd" clip-rule="evenodd" d="M132.376 227.419C138.057 226.355 143.169 225.397 149.998 228.758L151.493 224.679C143.555 220.773 137.058 222.005 131.156 223.124C129.397 223.458 127.692 223.781 126.016 223.955C122.296 224.343 118.446 224.118 113.943 222.048C109.404 219.962 104.081 215.944 97.5256 208.517L94.8523 211.685C101.639 219.375 107.378 223.797 112.533 226.167C117.725 228.554 122.203 228.801 126.358 228.369C128.487 228.147 130.464 227.777 132.376 227.419Z" fill="white" fill-opacity="0.17"/>
<path fill-rule="evenodd" clip-rule="evenodd" d="M370.963 202.945C372.879 205.459 326.96 225.476 350.631 263.918L370.963 202.945Z" fill="white" fill-opacity="0.17"/>
<path fill-rule="evenodd" clip-rule="evenodd" d="M372.475 203.756C372.631 203.169 372.595 202.396 372.115 201.767L369.811 204.124C369.452 203.652 369.441 203.07 369.538 202.708C369.578 202.558 369.629 202.462 369.651 202.427C369.648 202.431 369.645 202.435 369.641 202.44C369.537 202.576 369.274 202.842 368.766 203.269C368.1 203.829 367.217 204.503 366.14 205.323C365.61 205.727 365.034 206.166 364.414 206.645C360.727 209.492 355.788 213.521 351.524 218.734C347.261 223.946 343.581 230.451 342.571 238.264C341.555 246.128 343.278 255.043 349.38 264.953L351.882 262.884C346.148 253.573 344.735 245.571 345.611 238.791C346.494 231.961 349.736 226.097 353.754 221.184C357.772 216.273 362.473 212.424 366.118 209.609C366.682 209.174 367.229 208.757 367.746 208.363C368.865 207.509 369.847 206.761 370.572 206.152C371.09 205.715 371.594 205.256 371.94 204.804C372.104 204.59 372.349 204.232 372.475 203.756ZM369.661 202.412C369.66 202.413 369.657 202.418 369.651 202.427C369.658 202.417 369.661 202.412 369.661 202.412Z" fill="white" fill-opacity="0.17"/>
<path fill-rule="evenodd" clip-rule="evenodd" d="M60.9458 283.794C59.0416 286.321 35.9792 236.142 6.14136 268.308L60.9458 283.794Z" fill="white" fill-opacity="0.17"/>
<path fill-rule="evenodd" clip-rule="evenodd" d="M60.4636 285.522C60.959 285.62 61.5781 285.485 62.0272 284.889L59.8634 282.7C60.1935 282.262 60.6523 282.182 60.9469 282.24C61.063 282.263 61.1398 282.303 61.1685 282.32C61.1638 282.317 61.1578 282.312 61.1505 282.306C61.0102 282.196 60.7425 281.92 60.3111 281.392C59.7442 280.697 59.0511 279.765 58.2085 278.632C57.7949 278.076 57.3454 277.472 56.857 276.823C53.9457 272.957 49.8657 267.809 44.8634 263.591C39.8624 259.374 33.8401 256 27.0515 255.85C20.2218 255.698 12.8391 258.815 5.16248 267.09L7.11918 269.527C14.3615 261.72 21.0508 259.046 26.9967 259.178C32.9837 259.31 38.4406 262.292 43.173 266.283C47.9041 270.272 51.8115 275.186 54.6924 279.012C55.1393 279.605 55.5671 280.18 55.9715 280.724C56.8456 281.899 57.6106 282.927 58.2239 283.679C58.6637 284.218 59.1158 284.729 59.5372 285.061C59.7371 285.218 60.0612 285.442 60.4636 285.522ZM61.1812 282.328C61.1811 282.328 61.1768 282.325 61.1685 282.32C61.1771 282.326 61.1812 282.329 61.1812 282.328Z" fill="white" fill-opacity="0.17"/>
<path fill-rule="evenodd" clip-rule="evenodd" d="M415.835 65.8466C415.084 68.7793 358.354 44.5832 342.311 84.8098L415.835 65.8466ZM415.835 65.8466C415.084 68.7793 386.681 107.859 341.748 81.9758L415.835 65.8466Z" fill="white" fill-opacity="0.17"/>
<path fill-rule="evenodd" clip-rule="evenodd" d="M417.006 68.093C417.259 67.6648 417.587 67.0711 417.732 66.5019L418.69 62.7624L414.721 63.7861C414.409 63.755 413.984 63.692 413.426 63.59C412.331 63.3899 410.937 63.0816 409.256 62.7097C408.452 62.5318 407.583 62.3394 406.649 62.1374C400.949 60.9046 393.169 59.386 384.876 59.0528C368.438 58.3925 349.074 62.3849 340.513 83.8501L338.834 88.0593L345.275 86.3982C366.345 96.8666 383.748 93.5044 396.194 86.8003C402.813 83.2347 408.003 78.7411 411.595 74.9407C413.391 73.0401 414.8 71.2999 415.798 69.9167C416.295 69.2268 416.701 68.6097 417.006 68.093ZM346.119 81.4798C354.356 66.3892 369.925 63.0432 384.738 63.6384C392.149 63.9361 399.178 65.2195 404.667 66.3793L346.119 81.4798ZM352.261 84.5963C369.735 91.466 384.068 88.2724 394.524 82.6396C400.717 79.304 405.576 75.0955 408.925 71.5523C409.601 70.8373 410.213 70.1516 410.761 69.5081L352.261 84.5963Z" fill="white" fill-opacity="0.17"/>
<path fill-rule="evenodd" clip-rule="evenodd" d="M63.448 286.022C63.9117 288.145 21.4686 297.584 24.2902 329.145L63.448 286.022Z" fill="white" fill-opacity="0.17"/>
<path fill-rule="evenodd" clip-rule="evenodd" d="M64.6881 287.7C64.8809 287.465 65.4662 286.659 65.2143 285.505L61.6814 286.541C61.4585 285.52 61.989 284.861 62.0485 284.788C62.105 284.719 62.1504 284.678 62.168 284.663C62.161 284.669 62.1491 284.677 62.1317 284.689C61.9693 284.8 61.6441 284.977 61.0968 285.235C60.3672 285.579 59.4234 285.982 58.2773 286.473C57.7277 286.708 57.1315 286.963 56.4902 287.241C52.5987 288.927 47.3218 291.336 42.0995 294.7C31.7739 301.351 20.9457 312.228 22.4777 329.363L26.1025 328.928C24.8129 314.503 33.7954 304.88 43.87 298.391C48.8478 295.185 53.9184 292.864 57.7664 291.196C58.357 290.941 58.9258 290.697 59.4637 290.467C60.6486 289.96 61.6833 289.517 62.4686 289.147C63.0319 288.882 63.5683 288.609 63.9753 288.332C64.1666 288.202 64.4457 287.995 64.6881 287.7ZM62.1759 284.657C62.1758 284.657 62.173 284.659 62.168 284.663C62.1735 284.659 62.1761 284.657 62.1759 284.657Z" fill="white" fill-opacity="0.17"/>
<path fill-rule="evenodd" clip-rule="evenodd" d="M71.804 287.267C69.95 287.694 66.0918 237.89 38.7455 239.523L71.804 287.267Z" fill="white" fill-opacity="0.17"/>
<path fill-rule="evenodd" clip-rule="evenodd" d="M71.1558 287.644C71.2653 287.788 71.5344 288.069 71.9265 287.979L71.6824 286.556C71.8109 286.526 71.9227 286.559 71.9968 286.603C72.0605 286.64 72.0909 286.68 72.0923 286.682L72.0924 286.682C72.0926 286.682 72.0928 286.682 72.0928 286.682C72.0928 286.682 72.0834 286.669 72.0659 286.635C72.047 286.598 72.0234 286.547 71.9957 286.478C71.8799 286.189 71.7409 285.721 71.5735 285.066C71.3486 284.185 71.0915 283.042 70.7854 281.682C70.638 281.027 70.4793 280.322 70.3074 279.572C69.2557 274.979 67.7352 268.801 65.408 262.652C60.7721 250.402 52.8054 237.958 38.7136 238.799L38.778 240.248C52.0326 239.457 59.6682 251.098 64.2615 263.235C66.5489 269.279 68.0498 275.369 69.0975 279.944C69.2644 280.673 69.4205 281.366 69.5668 282.016C69.8767 283.393 70.1423 284.573 70.373 285.477C70.542 286.139 70.7027 286.696 70.8605 287.089C70.9371 287.28 71.0327 287.484 71.1558 287.644Z" fill="white" fill-opacity="0.17"/>
<path fill-rule="evenodd" clip-rule="evenodd" d="M150.746 226.711C150.109 223.439 109.212 254.842 96.189 210.093L150.746 226.711Z" fill="white" fill-opacity="0.17"/>
<path fill-rule="evenodd" clip-rule="evenodd" d="M149.956 228.604C149.547 228.443 149.034 227.991 148.88 227.201L152.611 226.228C152.418 225.234 151.786 224.645 151.185 224.408C150.702 224.218 150.244 224.245 149.98 224.276C149.417 224.341 148.767 224.559 148.157 224.791C147.298 225.118 146.185 225.608 144.927 226.162C144.35 226.416 143.743 226.683 143.116 226.955C139.017 228.727 133.604 230.873 127.859 231.763C122.112 232.653 116.198 232.259 110.996 229.143C105.843 226.056 101.13 220.142 98.0007 209.389L94.3774 210.805C97.7594 222.425 103.042 229.366 109.24 233.079C115.389 236.763 122.181 237.113 128.366 236.155C134.553 235.197 140.297 232.903 144.453 231.106C145.159 230.8 145.808 230.515 146.402 230.253C147.6 229.725 148.576 229.295 149.349 229.001C149.937 228.778 150.243 228.699 150.358 228.685C150.306 228.687 150.154 228.682 149.956 228.604ZM150.362 228.685C150.361 228.685 150.36 228.685 150.358 228.685L150.362 228.685Z" fill="white" fill-opacity="0.17"/>
<path fill-rule="evenodd" clip-rule="evenodd" d="M259.469 285.883C260.261 289.897 263.358 334.243 206.66 337.801L259.469 285.883Z" fill="white" fill-opacity="0.17"/>
<path fill-rule="evenodd" clip-rule="evenodd" d="M256.293 313.173C262.82 300.535 261.848 287.822 261.366 285.382L257.571 286.388C257.882 287.962 258.854 299.429 252.953 310.857C247.15 322.095 234.426 333.802 206.554 335.55L206.765 340.055C235.592 338.246 249.669 326.001 256.293 313.173Z" fill="white" fill-opacity="0.17"/>
<path fill-rule="evenodd" clip-rule="evenodd" d="M259.469 285.883C260.261 289.897 251.677 293.515 206.66 337.801L259.469 285.883Z" fill="white" fill-opacity="0.17"/>
<path fill-rule="evenodd" clip-rule="evenodd" d="M259.248 291.066C260.681 289.429 261.814 287.652 261.366 285.379L257.571 286.385C257.571 286.38 257.569 286.36 257.572 286.336C257.572 286.33 257.573 286.327 257.573 286.326C257.573 286.325 257.567 286.36 257.534 286.437C257.43 286.677 257.163 287.114 256.515 287.854C255.218 289.336 252.921 291.455 249.045 294.962C248.531 295.426 247.992 295.913 247.426 296.424C239.53 303.558 226.433 315.389 205.4 336.081L207.919 339.52C228.891 318.888 241.939 307.101 249.822 299.98C250.387 299.469 250.926 298.982 251.44 298.517C255.238 295.082 257.752 292.776 259.248 291.066Z" fill="white" fill-opacity="0.17"/>
<path fill-rule="evenodd" clip-rule="evenodd" d="M249.891 297.059C233.069 296.708 227.407 295.501 224.069 295.5L249.891 297.059Z" fill="white" fill-opacity="0.17"/>
<path fill-rule="evenodd" clip-rule="evenodd" d="M231.777 298.4C235.747 298.748 241.406 299.14 249.856 299.316L249.926 294.806C241.554 294.632 235.971 294.244 232.071 293.902C230.848 293.794 229.767 293.688 228.805 293.594C226.772 293.394 225.268 293.247 224.069 293.247L224.069 297.758C225.101 297.758 226.349 297.881 228.234 298.066C229.221 298.163 230.381 298.277 231.777 298.4Z" fill="white" fill-opacity="0.17"/>
<path fill-rule="evenodd" clip-rule="evenodd" d="M237.936 307.172C223.553 306.821 218.713 305.614 215.859 305.613L237.936 307.172Z" fill="white" fill-opacity="0.17"/>
<path fill-rule="evenodd" clip-rule="evenodd" d="M222.403 308.495C225.809 308.845 230.658 309.237 237.895 309.414L237.977 304.93C230.831 304.756 226.069 304.369 222.745 304.027C221.724 303.922 220.812 303.818 219.995 303.724C218.236 303.522 216.91 303.37 215.859 303.37L215.859 307.855C216.716 307.855 217.745 307.974 219.332 308.156C220.178 308.253 221.182 308.369 222.403 308.495Z" fill="white" fill-opacity="0.17"/>
<path fill-rule="evenodd" clip-rule="evenodd" d="M226.365 318.844C215.964 318.493 212.463 317.286 210.399 317.285L226.365 318.844Z" fill="white" fill-opacity="0.17"/>
<path fill-rule="evenodd" clip-rule="evenodd" d="M215.018 320.179C217.508 320.533 221.044 320.928 226.309 321.105L226.422 316.584C221.285 316.411 217.87 316.027 215.493 315.689C214.697 315.576 214.034 315.47 213.439 315.376C213.129 315.327 212.838 315.281 212.556 315.238C211.776 315.119 211.057 315.024 210.4 315.024L210.399 319.547C210.774 319.548 211.266 319.604 212.048 319.723C212.292 319.76 212.564 319.803 212.864 319.851C213.475 319.948 214.199 320.062 215.018 320.179Z" fill="white" fill-opacity="0.17"/>
<path fill-rule="evenodd" clip-rule="evenodd" d="M259.469 285.883C260.261 289.897 212.931 272.41 206.66 337.801L259.469 285.883Z" fill="white" fill-opacity="0.17"/>
<path fill-rule="evenodd" clip-rule="evenodd" d="M260.859 287.699C261.379 287.023 261.52 286.157 261.366 285.381L257.572 286.387C257.468 285.862 257.564 285.205 257.951 284.701C258.102 284.504 258.252 284.393 258.34 284.338C258.429 284.281 258.491 284.258 258.504 284.254C258.522 284.248 258.467 284.268 258.295 284.289C258.133 284.308 257.917 284.323 257.639 284.33C256.954 284.349 256.122 284.326 255.1 284.297C254.332 284.275 253.456 284.251 252.454 284.239C247.962 284.185 241.696 284.417 235.16 286.664C228.598 288.92 221.754 293.211 216.154 301.251C210.562 309.279 206.324 320.885 204.726 337.553L208.594 338.051C210.132 322.023 214.162 311.293 219.183 304.084C224.197 296.886 230.311 293.037 236.267 290.989C242.249 288.932 248.058 288.697 252.414 288.749C253.258 288.759 254.082 288.782 254.847 288.803C255.976 288.833 256.978 288.861 257.731 288.84C258.345 288.823 259.059 288.775 259.647 288.566C259.933 288.464 260.445 288.24 260.859 287.699Z" fill="white" fill-opacity="0.17"/>
<path fill-rule="evenodd" clip-rule="evenodd" d="M316.629 204.646C317.957 204.646 286.619 269.33 256.563 288.27L316.629 204.646Z" fill="white" fill-opacity="0.17"/>
<path fill-rule="evenodd" clip-rule="evenodd" d="M318.813 202.29C318.182 201.518 317.36 201.201 316.629 201.201V208.084C315.919 208.084 315.114 207.775 314.496 207.019C313.962 206.364 313.801 205.655 313.746 205.309C313.649 204.69 313.736 204.212 313.746 204.156L313.747 204.152C313.766 204.042 313.785 203.976 313.785 203.975C313.785 203.974 313.774 204.014 313.744 204.103C313.63 204.435 313.395 205.029 313.012 205.905C312.261 207.626 311.061 210.16 309.469 213.304C306.29 219.582 301.606 228.172 295.948 237.352C284.538 255.864 269.524 276.181 255.144 285.242L257.982 291.289C273.657 281.411 289.34 259.916 300.782 241.352C306.55 231.993 311.329 223.229 314.592 216.787C316.221 213.571 317.486 210.904 318.312 209.013C318.718 208.083 319.05 207.269 319.264 206.644C319.358 206.369 319.494 205.948 319.571 205.505L319.572 205.501C319.599 205.344 319.699 204.766 319.589 204.07C319.53 203.693 319.359 202.961 318.813 202.29Z" fill="white" fill-opacity="0.17"/>
<path fill-rule="evenodd" clip-rule="evenodd" d="M316.629 204.646C317.957 204.646 286.619 269.33 256.563 288.27L316.629 204.646Z" fill="white" fill-opacity="0.17"/>
<path fill-rule="evenodd" clip-rule="evenodd" d="M318.813 202.29C318.182 201.518 317.36 201.201 316.629 201.201V208.084C315.919 208.084 315.114 207.775 314.496 207.019C313.962 206.364 313.801 205.655 313.746 205.309C313.649 204.69 313.736 204.212 313.746 204.156L313.747 204.152C313.766 204.042 313.785 203.976 313.785 203.975C313.785 203.974 313.774 204.014 313.744 204.103C313.63 204.435 313.395 205.029 313.012 205.905C312.261 207.626 311.061 210.16 309.469 213.304C306.29 219.582 301.606 228.172 295.948 237.352C284.538 255.864 269.524 276.181 255.144 285.242L257.982 291.289C273.657 281.411 289.34 259.916 300.782 241.352C306.55 231.993 311.329 223.229 314.592 216.787C316.221 213.571 317.486 210.904 318.312 209.013C318.718 208.083 319.05 207.269 319.264 206.644C319.358 206.369 319.494 205.948 319.571 205.505L319.572 205.501C319.599 205.344 319.699 204.766 319.589 204.07C319.53 203.693 319.359 202.961 318.813 202.29Z" fill="white" fill-opacity="0.17"/>
<path fill-rule="evenodd" clip-rule="evenodd" d="M401.738 128.792C403.066 128.792 386.877 166.718 371.684 204.645L401.738 128.792Z" fill="white" fill-opacity="0.17"/>
<path fill-rule="evenodd" clip-rule="evenodd" d="M404.137 126.711C403.546 125.824 402.65 125.347 401.738 125.347V132.23C400.868 132.23 400.006 131.771 399.438 130.921C398.986 130.243 398.891 129.569 398.865 129.323C398.833 129.026 398.847 128.804 398.854 128.721C398.862 128.621 398.873 128.559 398.874 128.551C398.874 128.548 398.874 128.548 398.874 128.551C398.871 128.563 398.859 128.624 398.826 128.748C398.788 128.892 398.733 129.083 398.657 129.326C398.348 130.321 397.799 131.862 397.019 133.926C395.468 138.026 393.11 143.913 390.219 151.026C388.301 155.746 386.15 161 383.854 166.609C379.25 177.858 374.061 190.533 368.99 203.192L374.378 206.09C379.439 193.454 384.606 180.834 389.204 169.6C391.504 163.982 393.661 158.711 395.593 153.958C398.483 146.849 400.873 140.884 402.459 136.688C403.247 134.603 403.864 132.885 404.245 131.658C404.426 131.076 404.604 130.449 404.699 129.896C404.736 129.683 404.829 129.121 404.759 128.473C404.725 128.154 404.614 127.426 404.137 126.711Z" fill="white" fill-opacity="0.17"/>
<path fill-rule="evenodd" clip-rule="evenodd" d="M265.87 176.579C266.368 175.539 273.082 165.315 285.862 177.219L265.87 176.579Z" fill="white" fill-opacity="0.17"/>
<path fill-rule="evenodd" clip-rule="evenodd" d="M270.76 170.174C266.916 171.554 264.802 174.772 264.391 175.629L267.348 177.53C267.347 177.533 267.348 177.531 267.351 177.525C267.37 177.491 267.461 177.332 267.646 177.075C267.851 176.79 268.144 176.424 268.524 176.036C269.286 175.258 270.367 174.417 271.76 173.917C274.435 172.957 278.736 173.096 284.803 178.746L286.921 175.692C280.207 169.439 274.761 168.738 270.76 170.174Z" fill="white" fill-opacity="0.17"/>
<path fill-rule="evenodd" clip-rule="evenodd" d="M269.618 164.434C268.884 164.22 261.326 160.607 266.232 147.802L269.618 164.434Z" fill="white" fill-opacity="0.17"/>
<path fill-rule="evenodd" clip-rule="evenodd" d="M267.777 164.084C268.554 164.685 269.223 164.987 269.481 165.062L269.756 163.798C269.648 163.766 269.096 163.536 268.402 162.999C267.718 162.47 266.92 161.66 266.287 160.49C265.042 158.186 264.35 154.319 266.747 148.062L265.718 147.533C263.209 154.083 263.843 158.425 265.333 161.182C266.068 162.542 266.991 163.476 267.777 164.084Z" fill="white" fill-opacity="0.17"/>
<path fill-rule="evenodd" clip-rule="evenodd" d="M302.193 120.845C300.77 122.024 282.955 130.143 270.801 100.979L302.193 120.845Z" fill="white" fill-opacity="0.17"/>
<path fill-rule="evenodd" clip-rule="evenodd" d="M301.31 122.702C301.98 122.414 302.524 122.112 302.823 121.865L301.562 119.821L301.562 119.821C301.562 119.821 301.556 119.825 301.543 119.835C301.529 119.845 301.509 119.859 301.483 119.875C301.431 119.909 301.361 119.951 301.271 120.001C301.093 120.099 300.854 120.218 300.557 120.346C299.963 120.601 299.158 120.882 298.186 121.105C296.241 121.55 293.649 121.753 290.739 121.058C284.977 119.682 277.735 114.727 271.777 100.43L269.824 101.523C276.02 116.391 283.762 121.958 290.302 123.519C293.543 124.293 296.431 124.068 298.606 123.57C299.694 123.321 300.61 123.003 301.31 122.702Z" fill="white" fill-opacity="0.17"/>
<path fill-rule="evenodd" clip-rule="evenodd" d="M265.87 176.579C266.368 175.539 268.815 176.68 285.862 177.219L265.87 176.579Z" fill="white" fill-opacity="0.17"/>
<path fill-rule="evenodd" clip-rule="evenodd" d="M266.727 174.211C266.117 174.244 264.989 174.383 264.391 175.632L267.348 177.532C267.13 177.987 266.801 178.116 266.711 178.141C266.74 178.136 266.795 178.129 266.886 178.124C267.33 178.1 268.099 178.149 269.544 178.264C269.732 178.279 269.928 178.295 270.134 178.311C273.024 178.543 277.827 178.927 285.816 179.18L285.908 175.263C277.988 175.013 273.24 174.633 270.366 174.402C270.159 174.386 269.963 174.37 269.775 174.355C268.416 174.247 267.414 174.173 266.727 174.211ZM266.688 178.147C266.688 178.147 266.697 178.146 266.711 178.141C266.695 178.144 266.687 178.146 266.688 178.147Z" fill="white" fill-opacity="0.17"/>
<path fill-rule="evenodd" clip-rule="evenodd" d="M269.618 164.434C268.884 164.22 269.123 161.982 266.232 147.802L269.618 164.434Z" fill="white" fill-opacity="0.17"/>
<path fill-rule="evenodd" clip-rule="evenodd" d="M268.65 163.932C268.78 164.41 268.983 164.917 269.481 165.062L269.756 163.798C269.797 163.81 269.822 163.832 269.831 163.844C269.818 163.821 269.779 163.742 269.723 163.538C269.609 163.122 269.487 162.423 269.287 161.228C269.261 161.07 269.233 160.904 269.204 160.73C268.801 158.302 268.132 154.276 266.78 147.648L265.685 147.948C267.031 154.55 267.697 158.556 268.099 160.977C268.128 161.151 268.156 161.317 268.182 161.475C268.376 162.638 268.512 163.426 268.65 163.932ZM269.837 163.852C269.837 163.851 269.835 163.849 269.831 163.844C269.835 163.85 269.837 163.852 269.837 163.852Z" fill="white" fill-opacity="0.17"/>
<path fill-rule="evenodd" clip-rule="evenodd" d="M302.193 120.84C300.77 122.019 297.723 118.188 271.823 102.9L302.193 120.84Z" fill="white" fill-opacity="0.17"/>
<path fill-rule="evenodd" clip-rule="evenodd" d="M300.07 121.848C300.987 122.293 301.958 122.584 302.823 121.867L301.562 119.823C301.587 119.803 301.609 119.792 301.625 119.787C301.558 119.785 301.358 119.749 300.908 119.531C300.089 119.133 298.83 118.332 296.718 116.955C296.438 116.773 296.145 116.582 295.838 116.381C291.543 113.579 284.418 108.93 272.315 101.786L271.33 104.025C283.394 111.146 290.489 115.775 294.775 118.571C295.082 118.772 295.376 118.963 295.655 119.145C297.719 120.49 299.108 121.381 300.07 121.848ZM301.652 119.784C301.651 119.782 301.641 119.782 301.625 119.787C301.646 119.788 301.654 119.785 301.652 119.784Z" fill="white" fill-opacity="0.17"/>
<path fill-rule="evenodd" clip-rule="evenodd" d="M295.995 117.926C292.94 109.006 292.339 105.797 291.706 104.04L295.995 117.926Z" fill="white" fill-opacity="0.17"/>
<path fill-rule="evenodd" clip-rule="evenodd" d="M291.914 108.69C292.531 110.849 293.452 113.903 294.988 118.387L297.003 117.46C295.484 113.024 294.577 110.014 293.972 107.899C293.783 107.24 293.62 106.653 293.475 106.13C293.166 105.018 292.936 104.19 292.707 103.554L290.706 104.522C290.899 105.059 291.086 105.73 291.369 106.75C291.518 107.289 291.695 107.925 291.914 108.69Z" fill="white" fill-opacity="0.17"/>
<path fill-rule="evenodd" clip-rule="evenodd" d="M289.763 113.551C287.171 105.915 286.726 103.138 286.185 101.635L289.763 113.551Z" fill="white" fill-opacity="0.17"/>
<path fill-rule="evenodd" clip-rule="evenodd" d="M286.223 105.655C286.733 107.515 287.5 110.144 288.805 113.988L290.721 113.115C289.434 109.323 288.683 106.745 288.187 104.933C288.035 104.379 287.904 103.882 287.785 103.434C287.53 102.467 287.336 101.734 287.135 101.176L285.235 102.096C285.396 102.543 285.543 103.101 285.771 103.966C285.894 104.43 286.04 104.983 286.223 105.655Z" fill="white" fill-opacity="0.17"/>
<path fill-rule="evenodd" clip-rule="evenodd" d="M282.994 109.676C281.158 104.135 280.967 102.063 280.575 100.977L282.994 109.676Z" fill="white" fill-opacity="0.17"/>
<path fill-rule="evenodd" clip-rule="evenodd" d="M280.319 103.956C280.653 105.334 281.169 107.27 282.098 110.074L283.89 109.277C282.983 106.541 282.485 104.67 282.167 103.355C282.06 102.915 281.975 102.547 281.9 102.216C281.86 102.043 281.823 101.881 281.786 101.724C281.684 101.291 281.585 100.894 281.46 100.548L279.69 101.406C279.761 101.603 279.833 101.873 279.934 102.307C279.966 102.442 280.001 102.594 280.039 102.762C280.117 103.101 280.21 103.504 280.319 103.956Z" fill="white" fill-opacity="0.17"/>
<path fill-rule="evenodd" clip-rule="evenodd" d="M265.87 176.583C266.368 175.543 273.633 189.878 285.862 177.222L265.87 176.583Z" fill="white" fill-opacity="0.17"/>
<path fill-rule="evenodd" clip-rule="evenodd" d="M265.746 174.58C265.13 174.661 264.65 175.091 264.391 175.63L267.348 177.531C267.121 178.005 266.685 178.4 266.126 178.473C265.703 178.529 265.401 178.37 265.332 178.333C265.243 178.286 265.191 178.242 265.191 178.242C265.191 178.242 265.216 178.262 265.271 178.317C265.407 178.452 265.55 178.608 265.741 178.817C265.9 178.991 266.092 179.201 266.342 179.466C267.328 180.513 268.812 181.966 270.742 183.026C272.694 184.098 275.111 184.774 277.919 184.247C280.717 183.722 283.75 182.032 286.988 178.681L284.736 175.759C281.859 178.737 279.397 180.001 277.379 180.379C275.37 180.756 273.646 180.286 272.191 179.486C270.714 178.675 269.524 177.53 268.626 176.577C268.477 176.419 268.317 176.245 268.159 176.074C267.901 175.792 267.65 175.519 267.469 175.34C267.335 175.207 267.069 174.948 266.752 174.778C266.6 174.696 266.227 174.518 265.746 174.58Z" fill="white" fill-opacity="0.17"/>
<path fill-rule="evenodd" clip-rule="evenodd" d="M269.618 164.434C268.884 164.22 276.328 155.51 266.232 147.802L269.618 164.434Z" fill="white" fill-opacity="0.17"/>
<path fill-rule="evenodd" clip-rule="evenodd" d="M269.048 164.623C269.128 164.858 269.296 165.009 269.481 165.062L269.755 163.798C269.894 163.838 270.033 163.958 270.097 164.148C270.143 164.286 270.126 164.393 270.124 164.405C270.124 164.405 270.124 164.405 270.124 164.405C270.124 164.409 270.123 164.411 270.124 164.411C270.124 164.411 270.136 164.367 270.183 164.253C270.245 164.103 270.327 163.929 270.428 163.711C270.506 163.545 270.596 163.353 270.698 163.127C271.144 162.14 271.72 160.722 271.989 159.043C272.259 157.355 272.219 155.399 271.431 153.353C270.644 151.31 269.133 149.232 266.541 147.253L265.922 148.343C268.379 150.218 269.723 152.12 270.403 153.884C271.081 155.645 271.119 157.325 270.882 158.805C270.644 160.294 270.128 161.576 269.7 162.522C269.62 162.701 269.537 162.878 269.46 163.043C269.344 163.293 269.239 163.517 269.169 163.687C269.112 163.824 269.042 164.005 269.016 164.18C269.003 164.265 268.985 164.436 269.048 164.623Z" fill="white" fill-opacity="0.17"/>
<path fill-rule="evenodd" clip-rule="evenodd" d="M302.193 120.844C300.77 122.022 299.559 93.2913 272.74 102.401L302.193 120.844Z" fill="white" fill-opacity="0.17"/>
<path fill-rule="evenodd" clip-rule="evenodd" d="M301.678 122.046C302.1 122.229 302.52 122.117 302.823 121.867L301.562 119.823C301.776 119.645 302.108 119.549 302.44 119.693C302.569 119.75 302.657 119.826 302.704 119.874C302.752 119.922 302.779 119.962 302.787 119.974C302.788 119.976 302.787 119.974 302.785 119.97C302.774 119.946 302.721 119.834 302.628 119.558C302.507 119.2 302.378 118.763 302.221 118.225C302.097 117.802 301.954 117.317 301.783 116.758C301.037 114.331 299.871 110.994 297.855 107.893C295.83 104.778 292.941 101.893 288.774 100.406C284.615 98.9218 279.287 98.8688 272.434 101.197L273.044 103.608C279.6 101.381 284.481 101.503 288.136 102.807C291.783 104.109 294.315 106.624 296.123 109.405C297.941 112.202 299.02 115.256 299.74 117.601C299.881 118.061 300.015 118.516 300.14 118.939C300.317 119.543 300.476 120.081 300.609 120.476C300.719 120.8 300.864 121.193 301.057 121.489C301.15 121.631 301.348 121.902 301.678 122.046Z" fill="white" fill-opacity="0.17"/>
<path fill-rule="evenodd" clip-rule="evenodd" d="M261.377 174.781C261.47 177.102 254.31 210.566 227.551 197.478L261.377 174.781Z" fill="white" fill-opacity="0.17"/>
<path fill-rule="evenodd" clip-rule="evenodd" d="M263.259 175.943C263.314 175.564 263.371 175.085 263.355 174.673L259.4 174.885C259.398 174.847 259.398 174.826 259.398 174.826C259.396 174.826 259.391 174.929 259.354 175.178C259.311 175.478 259.237 175.891 259.127 176.403C258.907 177.424 258.554 178.782 258.045 180.326C257.021 183.425 255.398 187.169 253.022 190.425C250.654 193.669 247.584 196.372 243.641 197.557C239.71 198.74 234.694 198.48 228.321 195.363L226.781 199.59C233.788 203.017 239.702 203.482 244.636 201.999C249.558 200.519 253.29 197.164 256.045 193.388C258.792 189.624 260.614 185.384 261.743 181.965C262.31 180.249 262.71 178.714 262.969 177.513C263.098 176.913 263.195 176.382 263.259 175.943Z" fill="white" fill-opacity="0.17"/>
<path fill-rule="evenodd" clip-rule="evenodd" d="M263.551 174.506C264.662 175.311 277.307 195.33 260.668 216.789L263.551 174.506Z" fill="white" fill-opacity="0.17"/>
<path fill-rule="evenodd" clip-rule="evenodd" d="M264.497 174.252C264.349 174.058 264.165 173.835 263.984 173.704L263.118 175.309C263.109 175.302 263.104 175.298 263.104 175.299C263.102 175.3 263.156 175.352 263.273 175.505C263.402 175.674 263.57 175.916 263.769 176.232C264.166 176.862 264.666 177.757 265.191 178.884C266.239 181.139 267.37 184.293 267.963 188.072C269.141 195.591 268.201 205.66 260.061 216.157L261.276 217.422C269.775 206.461 270.832 195.79 269.569 187.734C268.941 183.725 267.743 180.382 266.628 177.986C266.071 176.788 265.531 175.819 265.088 175.117C264.867 174.766 264.667 174.475 264.497 174.252Z" fill="white" fill-opacity="0.17"/>
<path fill-rule="evenodd" clip-rule="evenodd" d="M271.019 167.405C270.267 168.648 252.361 182.247 234.727 161.883L271.019 167.405Z" fill="white" fill-opacity="0.17"/>
<path fill-rule="evenodd" clip-rule="evenodd" d="M271.762 169.346C271.935 169.186 272.234 168.901 272.441 168.558L269.596 166.25C269.659 166.145 269.71 166.088 269.71 166.088C269.71 166.088 269.679 166.123 269.599 166.196C269.475 166.311 269.281 166.474 269.017 166.674C268.49 167.073 267.729 167.582 266.767 168.111C264.84 169.169 262.157 170.277 258.982 170.75C252.704 171.685 244.364 170.17 235.953 160.457L233.501 163.308C242.723 173.958 252.154 175.826 259.425 174.742C263.025 174.206 266.061 172.953 268.255 171.748C269.352 171.145 270.251 170.548 270.916 170.044C271.248 169.793 271.533 169.557 271.762 169.346Z" fill="white" fill-opacity="0.17"/>
<path fill-rule="evenodd" clip-rule="evenodd" d="M261.377 174.775C261.47 177.097 256.388 178.109 227.551 197.473L261.377 174.775Z" fill="white" fill-opacity="0.17"/>
<path fill-rule="evenodd" clip-rule="evenodd" d="M261.303 178.476C262.26 177.718 263.431 176.576 263.355 174.673L259.4 174.885C259.385 174.523 259.513 174.303 259.547 174.253C259.516 174.292 259.391 174.433 259.069 174.688C258.272 175.319 256.868 176.197 254.391 177.706C254.066 177.904 253.725 178.112 253.367 178.33C248.359 181.376 240.048 186.433 226.559 195.491L228.544 199.461C241.963 190.45 250.218 185.428 255.209 182.391C255.567 182.173 255.909 181.965 256.234 181.767C258.621 180.313 260.272 179.292 261.303 178.476ZM259.556 174.241C259.555 174.241 259.552 174.245 259.547 174.253C259.553 174.245 259.556 174.241 259.556 174.241Z" fill="white" fill-opacity="0.17"/>
<path fill-rule="evenodd" clip-rule="evenodd" d="M263.551 174.506C264.662 175.311 263.119 180.736 260.668 216.789L263.551 174.506Z" fill="white" fill-opacity="0.17"/>
<path fill-rule="evenodd" clip-rule="evenodd" d="M264.642 174.861C264.554 174.422 264.37 173.983 263.984 173.704L263.118 175.308C263.052 175.261 263.031 175.208 263.03 175.208C263.03 175.208 263.039 175.23 263.051 175.289C263.086 175.464 263.111 175.784 263.098 176.358C263.072 177.495 262.912 179.329 262.633 182.328C262.596 182.727 262.558 183.145 262.517 183.584C261.946 189.715 260.999 199.879 259.854 216.715L261.482 216.863C262.625 200.055 263.57 189.911 264.14 183.786C264.181 183.347 264.22 182.929 264.257 182.531C264.532 179.566 264.702 177.64 264.73 176.407C264.744 175.796 264.726 175.278 264.642 174.861Z" fill="white" fill-opacity="0.17"/>
<path fill-rule="evenodd" clip-rule="evenodd" d="M271.019 167.403C270.267 168.646 265.671 166.581 234.727 161.881L271.019 167.403Z" fill="white" fill-opacity="0.17"/>
<path fill-rule="evenodd" clip-rule="evenodd" d="M270.817 169.699C271.341 169.591 271.992 169.303 272.441 168.56L269.595 166.251C269.857 165.819 270.199 165.739 270.207 165.737C270.208 165.737 270.195 165.74 270.163 165.742C270.132 165.745 270.088 165.748 270.028 165.748C269.906 165.749 269.741 165.742 269.517 165.722C268.584 165.638 267.056 165.367 264.469 164.886C264.128 164.823 263.769 164.756 263.393 164.686C258.136 163.708 249.415 162.085 234.952 159.888L234.501 163.879C248.914 166.069 257.597 167.684 262.844 168.661C263.22 168.731 263.578 168.798 263.92 168.861C266.444 169.329 268.14 169.635 269.247 169.735C269.791 169.784 270.334 169.8 270.817 169.699Z" fill="white" fill-opacity="0.17"/>
<path fill-rule="evenodd" clip-rule="evenodd" d="M261.377 174.775C244.546 199.109 245.406 192.595 227.551 197.473L261.377 174.775Z" fill="white" fill-opacity="0.17"/>
<path fill-rule="evenodd" clip-rule="evenodd" d="M245.62 195.538C250.275 193.252 254.561 188.303 262.922 176.215L259.832 173.346C251.362 185.592 247.662 189.552 244.075 191.313C242.279 192.195 240.424 192.568 237.716 193.026C237.484 193.065 237.248 193.104 237.005 193.145C234.442 193.574 231.263 194.107 227.097 195.245L228.005 199.711C231.997 198.621 235.022 198.113 237.578 197.685C237.819 197.645 238.055 197.605 238.288 197.566C240.966 197.113 243.296 196.679 245.62 195.538Z" fill="white" fill-opacity="0.17"/>
<path fill-rule="evenodd" clip-rule="evenodd" d="M261.377 174.775C249.906 185.294 240.597 171.6 227.551 197.473L261.377 174.775Z" fill="white" fill-opacity="0.17"/>
<path fill-rule="evenodd" clip-rule="evenodd" d="M248.826 182.12C252.97 181.613 257.755 181.029 262.606 176.581L260.149 172.983C256.276 176.534 252.939 176.953 249.029 177.444C247.672 177.614 246.246 177.793 244.704 178.115C241.786 178.724 238.73 179.878 235.536 182.664C232.376 185.422 229.188 189.686 225.842 196.322L229.261 198.637C232.438 192.336 235.306 188.609 237.918 186.33C240.498 184.078 242.933 183.147 245.406 182.631C246.483 182.406 247.628 182.266 248.826 182.12Z" fill="white" fill-opacity="0.17"/>
<path fill-rule="evenodd" clip-rule="evenodd" d="M261.377 174.775C261.47 177.097 229.172 164.804 227.551 197.473L261.377 174.775Z" fill="white" fill-opacity="0.17"/>
<path fill-rule="evenodd" clip-rule="evenodd" d="M262.403 176.853C262.918 176.449 263.395 175.688 263.355 174.671L259.4 174.882C259.365 174.01 259.784 173.366 260.183 173.053C260.345 172.926 260.485 172.864 260.558 172.836C260.635 172.807 260.687 172.796 260.7 172.793C260.704 172.792 260.706 172.792 260.706 172.792C260.706 172.792 260.665 172.798 260.568 172.799C260.457 172.802 260.308 172.798 260.114 172.787C259.566 172.756 258.871 172.679 257.999 172.582C257.557 172.533 257.071 172.479 256.536 172.424C253.464 172.105 249.202 171.786 244.84 172.472C240.481 173.158 235.852 174.874 232.191 178.786C228.489 182.742 226.004 188.702 225.575 197.342L229.528 197.605C229.91 189.911 232.069 185.158 234.876 182.158C237.724 179.115 241.467 177.633 245.373 177.019C249.277 176.404 253.174 176.681 256.182 176.994C256.631 177.04 257.071 177.089 257.493 177.136C258.432 177.239 259.278 177.333 259.919 177.37C260.367 177.395 260.898 177.408 261.361 177.317C261.575 177.275 261.994 177.173 262.403 176.853Z" fill="white" fill-opacity="0.17"/>
<path fill-rule="evenodd" clip-rule="evenodd" d="M263.551 174.506C264.662 175.311 246.199 202.565 260.668 216.789L263.551 174.506Z" fill="white" fill-opacity="0.17"/>
<path fill-rule="evenodd" clip-rule="evenodd" d="M264.415 174.683C264.42 174.5 264.395 173.999 263.983 173.701L263.118 175.306C262.776 175.058 262.782 174.659 262.783 174.627C262.784 174.599 262.786 174.583 262.786 174.583C262.786 174.582 262.782 174.605 262.767 174.657C262.717 174.833 262.607 175.12 262.423 175.541C262.179 176.103 261.845 176.811 261.444 177.661C261.25 178.074 261.04 178.52 260.816 178.999C259.462 181.901 257.686 185.879 256.331 190.296C253.639 199.063 252.488 209.986 260.14 217.508L261.196 216.065C254.379 209.363 255.224 199.546 257.869 190.93C259.182 186.654 260.909 182.779 262.252 179.899C262.464 179.446 262.668 179.013 262.86 178.606C263.27 177.736 263.624 176.984 263.881 176.394C264.068 175.965 264.226 175.571 264.317 175.252C264.361 175.1 264.41 174.896 264.415 174.683Z" fill="white" fill-opacity="0.17"/>
<path fill-rule="evenodd" clip-rule="evenodd" d="M271.019 167.404C270.267 168.647 247.733 145.873 234.727 161.882L271.019 167.404Z" fill="white" fill-opacity="0.17"/>
<path fill-rule="evenodd" clip-rule="evenodd" d="M270.744 169.454C271.005 169.478 271.876 169.49 272.441 168.554L269.596 166.246C270.114 165.388 270.895 165.43 271.026 165.442C271.145 165.453 271.23 165.48 271.261 165.492C271.261 165.492 271.261 165.492 271.26 165.492C271.18 165.455 270.989 165.348 270.638 165.116C270.18 164.812 269.608 164.404 268.906 163.903C268.558 163.655 268.178 163.384 267.764 163.092C265.323 161.369 261.937 159.073 258.134 157.243C250.645 153.641 240.763 151.513 233.462 160.498L235.991 163.258C241.697 156.235 249.585 157.489 256.802 160.961C260.352 162.668 263.554 164.833 265.956 166.529C266.324 166.789 266.68 167.043 267.018 167.284C267.755 167.809 268.407 168.274 268.915 168.61C269.278 168.851 269.661 169.089 270 169.242C270.155 169.312 270.427 169.424 270.744 169.454ZM271.275 165.498C271.275 165.497 271.27 165.495 271.261 165.492C271.271 165.496 271.275 165.498 271.275 165.498Z" fill="white" fill-opacity="0.17"/>
<path fill-rule="evenodd" clip-rule="evenodd" d="M401.739 128.793C403.066 128.793 288.189 135.64 272.996 173.566L401.739 128.793Z" fill="white" fill-opacity="0.17"/>
<path fill-rule="evenodd" clip-rule="evenodd" d="M401.824 125.349L401.739 125.348V132.231L401.667 132.23C401.628 132.228 401.506 132.22 401.425 132.21C401.166 132.164 399.087 130.313 398.979 127.553C399.707 126.293 401.002 125.46 401.175 125.414C401.239 125.4 401.337 125.382 401.369 125.377L401.432 125.369L401.458 125.366L401.467 125.365C401.468 125.365 401.458 125.366 401.43 125.368L401.328 125.377L400.482 125.442C399.705 125.501 398.524 125.594 396.992 125.726C393.929 125.989 389.467 126.406 384.028 127.027C373.158 128.267 358.361 130.319 343.028 133.568C327.72 136.812 311.756 141.273 298.605 147.372C285.646 153.381 274.621 161.333 270.303 172.114L275.69 175.012C278.968 166.829 288 159.703 300.812 153.762C313.431 147.91 328.953 143.548 344.097 140.339C359.216 137.135 373.84 135.105 384.61 133.877C389.993 133.263 394.406 132.849 397.431 132.59C398.943 132.46 400.108 132.368 400.875 132.309L401.731 132.244C401.816 132.237 401.903 132.23 401.966 132.224L402.044 132.215L402.12 132.205C402.156 132.2 402.257 132.181 402.323 132.167C402.497 132.121 403.793 131.288 404.522 130.027C404.414 127.267 402.334 125.416 402.074 125.369C402.039 125.365 401.997 125.361 401.956 125.358C401.9 125.353 401.848 125.35 401.824 125.349Z" fill="white" fill-opacity="0.17"/>
<path fill-rule="evenodd" clip-rule="evenodd" d="M401.738 128.793C403.065 128.793 316.67 138.553 299.816 118.206L401.738 128.793Z" fill="white" fill-opacity="0.17"/>
<path fill-rule="evenodd" clip-rule="evenodd" d="M402.049 125.366C401.89 125.347 401.763 125.348 401.738 125.348V132.231L401.736 132.231C401.714 132.231 401.598 132.231 401.45 132.214C401.349 132.2 401.046 132.133 400.847 132.068C400.318 131.804 398.924 129.838 398.879 127.925C399.304 126.845 400.286 125.799 400.568 125.636C400.695 125.576 400.896 125.497 400.968 125.473C401.083 125.437 401.174 125.417 401.194 125.413L401.196 125.413C401.235 125.404 401.266 125.399 401.278 125.397C401.273 125.397 401.262 125.399 401.247 125.401C401.154 125.414 400.973 125.438 400.696 125.47C400.152 125.535 399.299 125.628 398.175 125.74C395.929 125.965 392.62 126.265 388.556 126.562C380.423 127.156 369.29 127.736 357.606 127.684C345.903 127.633 333.739 126.948 323.509 125.042C318.394 124.089 313.842 122.845 310.107 121.266C306.336 119.67 303.62 117.824 301.959 115.819L297.673 120.585C300.226 123.666 303.896 125.966 308.07 127.731C312.281 129.512 317.233 130.844 322.567 131.838C333.235 133.825 345.747 134.515 357.584 134.567C369.439 134.619 380.71 134.031 388.929 133.431C393.041 133.131 396.396 132.827 398.686 132.598C399.831 132.483 400.715 132.387 401.298 132.318C401.585 132.284 401.816 132.255 401.973 132.232L401.976 132.232C402.029 132.224 402.156 132.206 402.277 132.18L402.278 132.18C402.306 132.174 402.407 132.153 402.529 132.114C402.604 132.089 402.807 132.009 402.936 131.948C403.219 131.785 404.202 130.738 404.627 129.657C404.582 127.744 403.187 125.777 402.657 125.513C402.457 125.447 402.152 125.38 402.049 125.366Z" fill="white" fill-opacity="0.17"/>
<path fill-rule="evenodd" clip-rule="evenodd" d="M247.384 244.118C248.711 244.118 167.134 249.264 145.462 222.361L247.384 244.118Z" fill="white" fill-opacity="0.17"/>
<path fill-rule="evenodd" clip-rule="evenodd" d="M247.543 240.681C247.465 240.676 247.401 240.676 247.383 240.676V247.559L247.382 247.559C247.371 247.559 247.317 247.559 247.246 247.555C247.2 247.552 247.068 247.538 246.982 247.526C246.767 247.481 245.578 246.837 244.85 245.885C244.51 243.322 246.166 240.988 246.544 240.823C246.665 240.784 246.847 240.737 246.906 240.725C246.991 240.709 247.058 240.701 247.069 240.699L247.07 240.699C247.098 240.696 247.116 240.694 247.114 240.694C247.113 240.694 247.1 240.696 247.072 240.698C246.979 240.705 246.803 240.717 246.545 240.732C246.032 240.762 245.228 240.803 244.168 240.847C242.048 240.934 238.914 241.029 235.045 241.06C227.301 241.122 216.639 240.925 205.278 239.897C193.901 238.867 181.912 237.01 171.481 233.785C160.951 230.529 152.464 226.012 147.632 220.013L143.29 224.709C149.293 232.162 159.131 237.09 169.95 240.435C180.869 243.812 193.255 245.713 204.815 246.759C216.392 247.807 227.229 248.005 235.085 247.943C239.016 247.911 242.206 247.815 244.378 247.725C245.464 247.681 246.298 247.638 246.845 247.606C247.116 247.59 247.327 247.576 247.465 247.565C247.516 247.562 247.612 247.554 247.699 247.543L247.701 247.543C247.72 247.541 247.794 247.532 247.885 247.514C247.946 247.501 248.13 247.454 248.252 247.415C248.632 247.25 250.288 244.916 249.948 242.352C249.219 241.399 248.03 240.755 247.813 240.711C247.726 240.698 247.592 240.684 247.543 240.681Z" fill="white" fill-opacity="0.17"/>
<path fill-rule="evenodd" clip-rule="evenodd" d="M465.892 37.7151C467.219 37.7151 449.354 53.0696 413.626 68.8906L465.892 37.7151Z" fill="white" fill-opacity="0.17"/>
<path fill-rule="evenodd" clip-rule="evenodd" d="M467.401 34.7298C466.758 34.3087 466.157 34.2736 465.893 34.2736V41.1565C465.67 41.1565 465.101 41.129 464.48 40.7228C463.711 40.2192 463.168 39.33 463.027 38.2964C462.914 37.4621 463.1 36.8217 463.183 36.5738C463.28 36.2813 463.391 36.0778 463.443 35.9873C463.521 35.8512 463.587 35.7634 463.61 35.7351C463.595 35.7517 463.562 35.7894 463.504 35.8502C463.199 36.169 462.579 36.7411 461.589 37.557C459.64 39.1634 456.5 41.5168 452.18 44.3835C443.548 50.1107 430.289 57.8285 412.567 65.676L414.687 72.1055C432.694 64.1319 446.231 56.2619 455.131 50.3565C459.577 47.4069 462.888 44.9329 465.032 43.1658C466.088 42.2951 466.925 41.544 467.482 40.9613C467.706 40.7272 468.099 40.3051 468.391 39.7954C468.476 39.6468 468.611 39.3921 468.723 39.0557C468.82 38.7638 469.012 38.0867 468.894 37.2228C468.749 36.1597 468.193 35.2482 467.401 34.7298ZM463.618 35.725C463.618 35.7251 463.615 35.7285 463.61 35.7351C463.615 35.7283 463.618 35.725 463.618 35.725Z" fill="white" fill-opacity="0.17"/>
</g>
<defs>
<filter id="filter0_d_85_6855" x="0.82251" y="0.949219" width="490.768" height="370.551" filterUnits="userSpaceOnUse" color-interpolation-filters="sRGB">
<feFlood flood-opacity="0" result="BackgroundImageFix"/>
<feColorMatrix in="SourceAlpha" type="matrix" values="0 0 0 0 0 0 0 0 0 0 0 0 0 0 0 0 0 0 127 0" result="hardAlpha"/>
<feOffset dy="4"/>
<feGaussianBlur stdDeviation="2"/>
<feComposite in2="hardAlpha" operator="out"/>
<feColorMatrix type="matrix" values="0 0 0 0 0 0 0 0 0 0 0 0 0 0 0 0 0 0 0.25 0"/>
<feBlend mode="normal" in2="BackgroundImageFix" result="effect1_dropShadow_85_6855"/>
<feBlend mode="normal" in="SourceGraphic" in2="effect1_dropShadow_85_6855" result="shape"/>
</filter>
</defs>
</svg>
