<svg width="43" height="43" viewBox="0 0 43 43" fill="none" xmlns="http://www.w3.org/2000/svg">
<path fill-rule="evenodd" clip-rule="evenodd" d="M12.9969 0.99875C15.1962 0.8975 15.8975 0.875 21.5 0.875C27.1025 0.875 27.8038 0.899375 30.0013 0.99875C32.1988 1.09812 33.6987 1.44875 35.0112 1.95688C36.3856 2.47625 37.6325 3.28812 38.6637 4.33812C39.7137 5.3675 40.5238 6.6125 41.0413 7.98875C41.5513 9.30125 41.9 10.8013 42.0013 12.995C42.1025 15.1981 42.125 15.8994 42.125 21.5C42.125 27.1025 42.1006 27.8037 42.0013 30.0031C41.9019 32.1969 41.5513 33.6969 41.0413 35.0094C40.5237 36.3858 39.7124 37.6329 38.6637 38.6637C37.6325 39.7137 36.3856 40.5238 35.0112 41.0413C33.6987 41.5513 32.1987 41.9 30.005 42.0013C27.8037 42.1025 27.1025 42.125 21.5 42.125C15.8975 42.125 15.1962 42.1006 12.9969 42.0013C10.8031 41.9019 9.30313 41.5513 7.99063 41.0413C6.61423 40.5237 5.36716 39.7124 4.33625 38.6637C3.28696 37.6338 2.47497 36.3873 1.95688 35.0112C1.44875 33.6987 1.1 32.1987 0.99875 30.005C0.8975 27.8019 0.875 27.1006 0.875 21.5C0.875 15.8975 0.899375 15.1962 0.99875 12.9987C1.09812 10.8013 1.44875 9.30125 1.95688 7.98875C2.47573 6.61265 3.28835 5.36621 4.33812 4.33625C5.36758 3.28719 6.61339 2.47521 7.98875 1.95688C9.30125 1.44875 10.8013 1.1 12.995 0.99875H12.9969ZM29.8344 4.71125C27.6594 4.61188 27.0069 4.59125 21.5 4.59125C15.9931 4.59125 15.3406 4.61188 13.1656 4.71125C11.1537 4.80312 10.0625 5.13875 9.335 5.42188C8.37313 5.79688 7.685 6.24125 6.96313 6.96313C6.27883 7.62885 5.75221 8.43928 5.42188 9.335C5.13875 10.0625 4.80312 11.1537 4.71125 13.1656C4.61188 15.3406 4.59125 15.9931 4.59125 21.5C4.59125 27.0069 4.61188 27.6594 4.71125 29.8344C4.80312 31.8462 5.13875 32.9375 5.42188 33.665C5.75187 34.5594 6.27875 35.3713 6.96313 36.0369C7.62875 36.7212 8.44063 37.2481 9.335 37.5781C10.0625 37.8613 11.1537 38.1969 13.1656 38.2887C15.3406 38.3881 15.9913 38.4087 21.5 38.4087C27.0087 38.4087 27.6594 38.3881 29.8344 38.2887C31.8462 38.1969 32.9375 37.8613 33.665 37.5781C34.6269 37.2031 35.315 36.7588 36.0369 36.0369C36.7212 35.3713 37.2481 34.5594 37.5781 33.665C37.8613 32.9375 38.1969 31.8462 38.2887 29.8344C38.3881 27.6594 38.4087 27.0069 38.4087 21.5C38.4087 15.9931 38.3881 15.3406 38.2887 13.1656C38.1969 11.1537 37.8613 10.0625 37.5781 9.335C37.2031 8.37313 36.7588 7.685 36.0369 6.96313C35.3711 6.27888 34.5607 5.75227 33.665 5.42188C32.9375 5.13875 31.8462 4.80312 29.8344 4.71125ZM18.8656 27.8581C20.3369 28.4706 21.9751 28.5532 23.5005 28.092C25.0259 27.6307 26.3439 26.6542 27.2293 25.3292C28.1147 24.0042 28.5126 22.4129 28.3551 20.8271C28.1976 19.2413 27.4944 17.7593 26.3656 16.6344C25.6461 15.9153 24.776 15.3646 23.8181 15.0222C22.8602 14.6797 21.8383 14.5538 20.8259 14.6537C19.8136 14.7535 18.8359 15.0766 17.9634 15.5996C17.0909 16.1227 16.3451 16.8326 15.7799 17.6785C15.2147 18.5243 14.8441 19.4849 14.6947 20.4912C14.5453 21.4974 14.6209 22.5243 14.916 23.4978C15.2111 24.4714 15.7184 25.3674 16.4014 26.1214C17.0843 26.8753 17.9259 27.4685 18.8656 27.8581ZM14.0037 14.0037C14.9882 13.0193 16.1568 12.2384 17.4431 11.7057C18.7293 11.1729 20.1078 10.8987 21.5 10.8987C22.8922 10.8987 24.2707 11.1729 25.5569 11.7057C26.8431 12.2384 28.0118 13.0193 28.9963 14.0037C29.9807 14.9882 30.7616 16.1568 31.2943 17.4431C31.8271 18.7293 32.1013 20.1078 32.1013 21.5C32.1013 22.8922 31.8271 24.2707 31.2943 25.5569C30.7616 26.8431 29.9807 28.0118 28.9963 28.9963C27.0081 30.9844 24.3116 32.1013 21.5 32.1013C18.6884 32.1013 15.9919 30.9844 14.0037 28.9963C12.0156 27.0081 10.8987 24.3116 10.8987 21.5C10.8987 18.6884 12.0156 15.9919 14.0037 14.0037ZM34.4525 12.4775C34.6964 12.2474 34.8917 11.9707 35.0268 11.6637C35.1619 11.3568 35.234 11.0258 35.2389 10.6905C35.2438 10.3552 35.1814 10.0223 35.0553 9.71152C34.9292 9.40076 34.7421 9.11846 34.5049 8.88132C34.2678 8.64419 33.9855 8.45705 33.6747 8.33097C33.364 8.2049 33.0311 8.14245 32.6958 8.14734C32.3604 8.15223 32.0295 8.22435 31.7225 8.35943C31.4156 8.49451 31.1389 8.6898 30.9087 8.93375C30.4612 9.40818 30.2162 10.0384 30.2257 10.6905C30.2352 11.3426 30.4985 11.9654 30.9597 12.4266C31.4209 12.8878 32.0436 13.1511 32.6958 13.1606C33.3479 13.1701 33.9781 12.925 34.4525 12.4775Z" fill="white"/>
</svg>
